<?xml version="1.0" encoding="utf-8" standalone="no"?>
<!DOCTYPE svg PUBLIC "-//W3C//DTD SVG 1.1//EN"
  "http://www.w3.org/Graphics/SVG/1.1/DTD/svg11.dtd">
<svg height="345.6pt" version="1.1" viewBox="0 0 460.8 345.6" width="460.8pt" xmlns="http://www.w3.org/2000/svg" xmlns:xlink="http://www.w3.org/1999/xlink">
 <metadata>
  <rdf:RDF xmlns:cc="http://creativecommons.org/ns#" xmlns:dc="http://purl.org/dc/elements/1.1/" xmlns:rdf="http://www.w3.org/1999/02/22-rdf-syntax-ns#">
   <cc:Work>
    <dc:type rdf:resource="http://purl.org/dc/dcmitype/StillImage"/>
    <dc:date>2021-05-16T18:16:21.277964</dc:date>
    <dc:format>image/svg+xml</dc:format>
    <dc:creator>
     <cc:Agent>
      <dc:title>Matplotlib v3.4.1, https://matplotlib.org/</dc:title>
     </cc:Agent>
    </dc:creator>
   </cc:Work>
  </rdf:RDF>
 </metadata>
 <defs>
  <style type="text/css">*{stroke-linecap:butt;stroke-linejoin:round;}</style>
 </defs>
 <g id="figure_1">
  <g id="patch_1">
   <path d="M 0 345.6 
L 460.8 345.6 
L 460.8 0 
L 0 0 
z
" style="fill:#ffffff;"/>
  </g>
  <g id="axes_1">
   <g id="patch_2">
    <path d="M 57.6 307.584 
L 414.72 307.584 
L 414.72 41.472 
L 57.6 41.472 
z
" style="fill:#ffffff;"/>
   </g>
   <g id="line2d_1">
    <path clip-path="url(#p695c74c5a1)" d="M 73.832727 253.819103 
L 80.994225 252.006758 
L 88.155722 250.88889 
L 95.317219 248.852183 
L 102.478717 246.890492 
L 109.640214 245.040129 
L 116.801711 242.875172 
L 123.963209 240.324081 
L 131.124706 237.972873 
L 138.286203 234.034671 
L 145.447701 231.408315 
L 152.609198 226.401983 
L 159.770695 223.21662 
L 166.932193 216.555917 
L 174.09369 210.145811 
L 181.255187 203.085905 
L 188.416684 189.296103 
L 195.578182 181.439122 
L 202.739679 175.606189 
L 209.901176 174.528 
L 217.062674 185.015957 
L 224.224171 196.318225 
L 231.385668 203.258999 
L 238.547166 215.151084 
L 245.708663 218.644515 
L 252.87016 224.838439 
L 260.031658 228.342625 
L 267.193155 232.047059 
L 274.354652 234.035547 
L 281.51615 235.495401 
L 288.677647 237.639657 
L 295.839144 238.68584 
L 303.000642 240.099047 
L 310.162139 241.720345 
L 317.323636 243.109721 
L 333.556364 245.099676 
L 349.789091 246.871759 
L 366.021818 248.620837 
L 382.254545 249.92262 
L 398.487273 251.055887 
" style="fill:none;stroke:#1f77b4;stroke-linecap:square;stroke-width:1.5;"/>
    <defs>
     <path d="M 0 3 
C 0.795609 3 1.55874 2.683901 2.12132 2.12132 
C 2.683901 1.55874 3 0.795609 3 0 
C 3 -0.795609 2.683901 -1.55874 2.12132 -2.12132 
C 1.55874 -2.683901 0.795609 -3 0 -3 
C -0.795609 -3 -1.55874 -2.683901 -2.12132 -2.12132 
C -2.683901 -1.55874 -3 -0.795609 -3 0 
C -3 0.795609 -2.683901 1.55874 -2.12132 2.12132 
C -1.55874 2.683901 -0.795609 3 0 3 
z
" id="m2ae14a6534" style="stroke:#1f77b4;"/>
    </defs>
    <g clip-path="url(#p695c74c5a1)">
     <use style="fill:#1f77b4;stroke:#1f77b4;" x="73.832727" xlink:href="#m2ae14a6534" y="253.819103"/>
     <use style="fill:#1f77b4;stroke:#1f77b4;" x="80.994225" xlink:href="#m2ae14a6534" y="252.006758"/>
     <use style="fill:#1f77b4;stroke:#1f77b4;" x="88.155722" xlink:href="#m2ae14a6534" y="250.88889"/>
     <use style="fill:#1f77b4;stroke:#1f77b4;" x="95.317219" xlink:href="#m2ae14a6534" y="248.852183"/>
     <use style="fill:#1f77b4;stroke:#1f77b4;" x="102.478717" xlink:href="#m2ae14a6534" y="246.890492"/>
     <use style="fill:#1f77b4;stroke:#1f77b4;" x="109.640214" xlink:href="#m2ae14a6534" y="245.040129"/>
     <use style="fill:#1f77b4;stroke:#1f77b4;" x="116.801711" xlink:href="#m2ae14a6534" y="242.875172"/>
     <use style="fill:#1f77b4;stroke:#1f77b4;" x="123.963209" xlink:href="#m2ae14a6534" y="240.324081"/>
     <use style="fill:#1f77b4;stroke:#1f77b4;" x="131.124706" xlink:href="#m2ae14a6534" y="237.972873"/>
     <use style="fill:#1f77b4;stroke:#1f77b4;" x="138.286203" xlink:href="#m2ae14a6534" y="234.034671"/>
     <use style="fill:#1f77b4;stroke:#1f77b4;" x="145.447701" xlink:href="#m2ae14a6534" y="231.408315"/>
     <use style="fill:#1f77b4;stroke:#1f77b4;" x="152.609198" xlink:href="#m2ae14a6534" y="226.401983"/>
     <use style="fill:#1f77b4;stroke:#1f77b4;" x="159.770695" xlink:href="#m2ae14a6534" y="223.21662"/>
     <use style="fill:#1f77b4;stroke:#1f77b4;" x="166.932193" xlink:href="#m2ae14a6534" y="216.555917"/>
     <use style="fill:#1f77b4;stroke:#1f77b4;" x="174.09369" xlink:href="#m2ae14a6534" y="210.145811"/>
     <use style="fill:#1f77b4;stroke:#1f77b4;" x="181.255187" xlink:href="#m2ae14a6534" y="203.085905"/>
     <use style="fill:#1f77b4;stroke:#1f77b4;" x="188.416684" xlink:href="#m2ae14a6534" y="189.296103"/>
     <use style="fill:#1f77b4;stroke:#1f77b4;" x="195.578182" xlink:href="#m2ae14a6534" y="181.439122"/>
     <use style="fill:#1f77b4;stroke:#1f77b4;" x="202.739679" xlink:href="#m2ae14a6534" y="175.606189"/>
     <use style="fill:#1f77b4;stroke:#1f77b4;" x="209.901176" xlink:href="#m2ae14a6534" y="174.528"/>
     <use style="fill:#1f77b4;stroke:#1f77b4;" x="217.062674" xlink:href="#m2ae14a6534" y="185.015957"/>
     <use style="fill:#1f77b4;stroke:#1f77b4;" x="224.224171" xlink:href="#m2ae14a6534" y="196.318225"/>
     <use style="fill:#1f77b4;stroke:#1f77b4;" x="231.385668" xlink:href="#m2ae14a6534" y="203.258999"/>
     <use style="fill:#1f77b4;stroke:#1f77b4;" x="238.547166" xlink:href="#m2ae14a6534" y="215.151084"/>
     <use style="fill:#1f77b4;stroke:#1f77b4;" x="245.708663" xlink:href="#m2ae14a6534" y="218.644515"/>
     <use style="fill:#1f77b4;stroke:#1f77b4;" x="252.87016" xlink:href="#m2ae14a6534" y="224.838439"/>
     <use style="fill:#1f77b4;stroke:#1f77b4;" x="260.031658" xlink:href="#m2ae14a6534" y="228.342625"/>
     <use style="fill:#1f77b4;stroke:#1f77b4;" x="267.193155" xlink:href="#m2ae14a6534" y="232.047059"/>
     <use style="fill:#1f77b4;stroke:#1f77b4;" x="274.354652" xlink:href="#m2ae14a6534" y="234.035547"/>
     <use style="fill:#1f77b4;stroke:#1f77b4;" x="281.51615" xlink:href="#m2ae14a6534" y="235.495401"/>
     <use style="fill:#1f77b4;stroke:#1f77b4;" x="288.677647" xlink:href="#m2ae14a6534" y="237.639657"/>
     <use style="fill:#1f77b4;stroke:#1f77b4;" x="295.839144" xlink:href="#m2ae14a6534" y="238.68584"/>
     <use style="fill:#1f77b4;stroke:#1f77b4;" x="303.000642" xlink:href="#m2ae14a6534" y="240.099047"/>
     <use style="fill:#1f77b4;stroke:#1f77b4;" x="310.162139" xlink:href="#m2ae14a6534" y="241.720345"/>
     <use style="fill:#1f77b4;stroke:#1f77b4;" x="317.323636" xlink:href="#m2ae14a6534" y="243.109721"/>
     <use style="fill:#1f77b4;stroke:#1f77b4;" x="333.556364" xlink:href="#m2ae14a6534" y="245.099676"/>
     <use style="fill:#1f77b4;stroke:#1f77b4;" x="349.789091" xlink:href="#m2ae14a6534" y="246.871759"/>
     <use style="fill:#1f77b4;stroke:#1f77b4;" x="366.021818" xlink:href="#m2ae14a6534" y="248.620837"/>
     <use style="fill:#1f77b4;stroke:#1f77b4;" x="382.254545" xlink:href="#m2ae14a6534" y="249.92262"/>
     <use style="fill:#1f77b4;stroke:#1f77b4;" x="398.487273" xlink:href="#m2ae14a6534" y="251.055887"/>
    </g>
   </g>
   <g id="matplotlib.axis_1">
    <g id="xtick_1">
     <g id="line2d_2">
      <defs>
       <path d="M 0 0 
L 0 3.5 
" id="m2cd366abe9" style="stroke:#000000;stroke-width:0.8;"/>
      </defs>
      <g>
       <use style="stroke:#000000;stroke-width:0.8;" x="73.832727" xlink:href="#m2cd366abe9" y="307.584"/>
      </g>
     </g>
     <g id="text_1">
      <!-- 1.50 -->
      <g transform="translate(62.699915 322.182437)scale(0.1 -0.1)">
       <defs>
        <path d="M 794 531 
L 1825 531 
L 1825 4091 
L 703 3866 
L 703 4441 
L 1819 4666 
L 2450 4666 
L 2450 531 
L 3481 531 
L 3481 0 
L 794 0 
L 794 531 
z
" id="DejaVuSans-31" transform="scale(0.015625)"/>
        <path d="M 684 794 
L 1344 794 
L 1344 0 
L 684 0 
L 684 794 
z
" id="DejaVuSans-2e" transform="scale(0.015625)"/>
        <path d="M 691 4666 
L 3169 4666 
L 3169 4134 
L 1269 4134 
L 1269 2991 
Q 1406 3038 1543 3061 
Q 1681 3084 1819 3084 
Q 2600 3084 3056 2656 
Q 3513 2228 3513 1497 
Q 3513 744 3044 326 
Q 2575 -91 1722 -91 
Q 1428 -91 1123 -41 
Q 819 9 494 109 
L 494 744 
Q 775 591 1075 516 
Q 1375 441 1709 441 
Q 2250 441 2565 725 
Q 2881 1009 2881 1497 
Q 2881 1984 2565 2268 
Q 2250 2553 1709 2553 
Q 1456 2553 1204 2497 
Q 953 2441 691 2322 
L 691 4666 
z
" id="DejaVuSans-35" transform="scale(0.015625)"/>
        <path d="M 2034 4250 
Q 1547 4250 1301 3770 
Q 1056 3291 1056 2328 
Q 1056 1369 1301 889 
Q 1547 409 2034 409 
Q 2525 409 2770 889 
Q 3016 1369 3016 2328 
Q 3016 3291 2770 3770 
Q 2525 4250 2034 4250 
z
M 2034 4750 
Q 2819 4750 3233 4129 
Q 3647 3509 3647 2328 
Q 3647 1150 3233 529 
Q 2819 -91 2034 -91 
Q 1250 -91 836 529 
Q 422 1150 422 2328 
Q 422 3509 836 4129 
Q 1250 4750 2034 4750 
z
" id="DejaVuSans-30" transform="scale(0.015625)"/>
       </defs>
       <use xlink:href="#DejaVuSans-31"/>
       <use x="63.623047" xlink:href="#DejaVuSans-2e"/>
       <use x="95.410156" xlink:href="#DejaVuSans-35"/>
       <use x="159.033203" xlink:href="#DejaVuSans-30"/>
      </g>
     </g>
    </g>
    <g id="xtick_2">
     <g id="line2d_3">
      <g>
       <use style="stroke:#000000;stroke-width:0.8;" x="114.414545" xlink:href="#m2cd366abe9" y="307.584"/>
      </g>
     </g>
     <g id="text_2">
      <!-- 1.75 -->
      <g transform="translate(103.281733 322.182437)scale(0.1 -0.1)">
       <defs>
        <path d="M 525 4666 
L 3525 4666 
L 3525 4397 
L 1831 0 
L 1172 0 
L 2766 4134 
L 525 4134 
L 525 4666 
z
" id="DejaVuSans-37" transform="scale(0.015625)"/>
       </defs>
       <use xlink:href="#DejaVuSans-31"/>
       <use x="63.623047" xlink:href="#DejaVuSans-2e"/>
       <use x="95.410156" xlink:href="#DejaVuSans-37"/>
       <use x="159.033203" xlink:href="#DejaVuSans-35"/>
      </g>
     </g>
    </g>
    <g id="xtick_3">
     <g id="line2d_4">
      <g>
       <use style="stroke:#000000;stroke-width:0.8;" x="154.996364" xlink:href="#m2cd366abe9" y="307.584"/>
      </g>
     </g>
     <g id="text_3">
      <!-- 2.00 -->
      <g transform="translate(143.863551 322.182437)scale(0.1 -0.1)">
       <defs>
        <path d="M 1228 531 
L 3431 531 
L 3431 0 
L 469 0 
L 469 531 
Q 828 903 1448 1529 
Q 2069 2156 2228 2338 
Q 2531 2678 2651 2914 
Q 2772 3150 2772 3378 
Q 2772 3750 2511 3984 
Q 2250 4219 1831 4219 
Q 1534 4219 1204 4116 
Q 875 4013 500 3803 
L 500 4441 
Q 881 4594 1212 4672 
Q 1544 4750 1819 4750 
Q 2544 4750 2975 4387 
Q 3406 4025 3406 3419 
Q 3406 3131 3298 2873 
Q 3191 2616 2906 2266 
Q 2828 2175 2409 1742 
Q 1991 1309 1228 531 
z
" id="DejaVuSans-32" transform="scale(0.015625)"/>
       </defs>
       <use xlink:href="#DejaVuSans-32"/>
       <use x="63.623047" xlink:href="#DejaVuSans-2e"/>
       <use x="95.410156" xlink:href="#DejaVuSans-30"/>
       <use x="159.033203" xlink:href="#DejaVuSans-30"/>
      </g>
     </g>
    </g>
    <g id="xtick_4">
     <g id="line2d_5">
      <g>
       <use style="stroke:#000000;stroke-width:0.8;" x="195.578182" xlink:href="#m2cd366abe9" y="307.584"/>
      </g>
     </g>
     <g id="text_4">
      <!-- 2.25 -->
      <g transform="translate(184.445369 322.182437)scale(0.1 -0.1)">
       <use xlink:href="#DejaVuSans-32"/>
       <use x="63.623047" xlink:href="#DejaVuSans-2e"/>
       <use x="95.410156" xlink:href="#DejaVuSans-32"/>
       <use x="159.033203" xlink:href="#DejaVuSans-35"/>
      </g>
     </g>
    </g>
    <g id="xtick_5">
     <g id="line2d_6">
      <g>
       <use style="stroke:#000000;stroke-width:0.8;" x="236.16" xlink:href="#m2cd366abe9" y="307.584"/>
      </g>
     </g>
     <g id="text_5">
      <!-- 2.50 -->
      <g transform="translate(225.027187 322.182437)scale(0.1 -0.1)">
       <use xlink:href="#DejaVuSans-32"/>
       <use x="63.623047" xlink:href="#DejaVuSans-2e"/>
       <use x="95.410156" xlink:href="#DejaVuSans-35"/>
       <use x="159.033203" xlink:href="#DejaVuSans-30"/>
      </g>
     </g>
    </g>
    <g id="xtick_6">
     <g id="line2d_7">
      <g>
       <use style="stroke:#000000;stroke-width:0.8;" x="276.741818" xlink:href="#m2cd366abe9" y="307.584"/>
      </g>
     </g>
     <g id="text_6">
      <!-- 2.75 -->
      <g transform="translate(265.609006 322.182437)scale(0.1 -0.1)">
       <use xlink:href="#DejaVuSans-32"/>
       <use x="63.623047" xlink:href="#DejaVuSans-2e"/>
       <use x="95.410156" xlink:href="#DejaVuSans-37"/>
       <use x="159.033203" xlink:href="#DejaVuSans-35"/>
      </g>
     </g>
    </g>
    <g id="xtick_7">
     <g id="line2d_8">
      <g>
       <use style="stroke:#000000;stroke-width:0.8;" x="317.323636" xlink:href="#m2cd366abe9" y="307.584"/>
      </g>
     </g>
     <g id="text_7">
      <!-- 3.00 -->
      <g transform="translate(306.190824 322.182437)scale(0.1 -0.1)">
       <defs>
        <path d="M 2597 2516 
Q 3050 2419 3304 2112 
Q 3559 1806 3559 1356 
Q 3559 666 3084 287 
Q 2609 -91 1734 -91 
Q 1441 -91 1130 -33 
Q 819 25 488 141 
L 488 750 
Q 750 597 1062 519 
Q 1375 441 1716 441 
Q 2309 441 2620 675 
Q 2931 909 2931 1356 
Q 2931 1769 2642 2001 
Q 2353 2234 1838 2234 
L 1294 2234 
L 1294 2753 
L 1863 2753 
Q 2328 2753 2575 2939 
Q 2822 3125 2822 3475 
Q 2822 3834 2567 4026 
Q 2313 4219 1838 4219 
Q 1578 4219 1281 4162 
Q 984 4106 628 3988 
L 628 4550 
Q 988 4650 1302 4700 
Q 1616 4750 1894 4750 
Q 2613 4750 3031 4423 
Q 3450 4097 3450 3541 
Q 3450 3153 3228 2886 
Q 3006 2619 2597 2516 
z
" id="DejaVuSans-33" transform="scale(0.015625)"/>
       </defs>
       <use xlink:href="#DejaVuSans-33"/>
       <use x="63.623047" xlink:href="#DejaVuSans-2e"/>
       <use x="95.410156" xlink:href="#DejaVuSans-30"/>
       <use x="159.033203" xlink:href="#DejaVuSans-30"/>
      </g>
     </g>
    </g>
    <g id="xtick_8">
     <g id="line2d_9">
      <g>
       <use style="stroke:#000000;stroke-width:0.8;" x="357.905455" xlink:href="#m2cd366abe9" y="307.584"/>
      </g>
     </g>
     <g id="text_8">
      <!-- 3.25 -->
      <g transform="translate(346.772642 322.182437)scale(0.1 -0.1)">
       <use xlink:href="#DejaVuSans-33"/>
       <use x="63.623047" xlink:href="#DejaVuSans-2e"/>
       <use x="95.410156" xlink:href="#DejaVuSans-32"/>
       <use x="159.033203" xlink:href="#DejaVuSans-35"/>
      </g>
     </g>
    </g>
    <g id="xtick_9">
     <g id="line2d_10">
      <g>
       <use style="stroke:#000000;stroke-width:0.8;" x="398.487273" xlink:href="#m2cd366abe9" y="307.584"/>
      </g>
     </g>
     <g id="text_9">
      <!-- 3.50 -->
      <g transform="translate(387.35446 322.182437)scale(0.1 -0.1)">
       <use xlink:href="#DejaVuSans-33"/>
       <use x="63.623047" xlink:href="#DejaVuSans-2e"/>
       <use x="95.410156" xlink:href="#DejaVuSans-35"/>
       <use x="159.033203" xlink:href="#DejaVuSans-30"/>
      </g>
     </g>
    </g>
    <g id="text_10">
     <!-- Temperature -->
     <g transform="translate(204.490469 335.860562)scale(0.1 -0.1)">
      <defs>
       <path d="M -19 4666 
L 3928 4666 
L 3928 4134 
L 2272 4134 
L 2272 0 
L 1638 0 
L 1638 4134 
L -19 4134 
L -19 4666 
z
" id="DejaVuSans-54" transform="scale(0.015625)"/>
       <path d="M 3597 1894 
L 3597 1613 
L 953 1613 
Q 991 1019 1311 708 
Q 1631 397 2203 397 
Q 2534 397 2845 478 
Q 3156 559 3463 722 
L 3463 178 
Q 3153 47 2828 -22 
Q 2503 -91 2169 -91 
Q 1331 -91 842 396 
Q 353 884 353 1716 
Q 353 2575 817 3079 
Q 1281 3584 2069 3584 
Q 2775 3584 3186 3129 
Q 3597 2675 3597 1894 
z
M 3022 2063 
Q 3016 2534 2758 2815 
Q 2500 3097 2075 3097 
Q 1594 3097 1305 2825 
Q 1016 2553 972 2059 
L 3022 2063 
z
" id="DejaVuSans-65" transform="scale(0.015625)"/>
       <path d="M 3328 2828 
Q 3544 3216 3844 3400 
Q 4144 3584 4550 3584 
Q 5097 3584 5394 3201 
Q 5691 2819 5691 2113 
L 5691 0 
L 5113 0 
L 5113 2094 
Q 5113 2597 4934 2840 
Q 4756 3084 4391 3084 
Q 3944 3084 3684 2787 
Q 3425 2491 3425 1978 
L 3425 0 
L 2847 0 
L 2847 2094 
Q 2847 2600 2669 2842 
Q 2491 3084 2119 3084 
Q 1678 3084 1418 2786 
Q 1159 2488 1159 1978 
L 1159 0 
L 581 0 
L 581 3500 
L 1159 3500 
L 1159 2956 
Q 1356 3278 1631 3431 
Q 1906 3584 2284 3584 
Q 2666 3584 2933 3390 
Q 3200 3197 3328 2828 
z
" id="DejaVuSans-6d" transform="scale(0.015625)"/>
       <path d="M 1159 525 
L 1159 -1331 
L 581 -1331 
L 581 3500 
L 1159 3500 
L 1159 2969 
Q 1341 3281 1617 3432 
Q 1894 3584 2278 3584 
Q 2916 3584 3314 3078 
Q 3713 2572 3713 1747 
Q 3713 922 3314 415 
Q 2916 -91 2278 -91 
Q 1894 -91 1617 61 
Q 1341 213 1159 525 
z
M 3116 1747 
Q 3116 2381 2855 2742 
Q 2594 3103 2138 3103 
Q 1681 3103 1420 2742 
Q 1159 2381 1159 1747 
Q 1159 1113 1420 752 
Q 1681 391 2138 391 
Q 2594 391 2855 752 
Q 3116 1113 3116 1747 
z
" id="DejaVuSans-70" transform="scale(0.015625)"/>
       <path d="M 2631 2963 
Q 2534 3019 2420 3045 
Q 2306 3072 2169 3072 
Q 1681 3072 1420 2755 
Q 1159 2438 1159 1844 
L 1159 0 
L 581 0 
L 581 3500 
L 1159 3500 
L 1159 2956 
Q 1341 3275 1631 3429 
Q 1922 3584 2338 3584 
Q 2397 3584 2469 3576 
Q 2541 3569 2628 3553 
L 2631 2963 
z
" id="DejaVuSans-72" transform="scale(0.015625)"/>
       <path d="M 2194 1759 
Q 1497 1759 1228 1600 
Q 959 1441 959 1056 
Q 959 750 1161 570 
Q 1363 391 1709 391 
Q 2188 391 2477 730 
Q 2766 1069 2766 1631 
L 2766 1759 
L 2194 1759 
z
M 3341 1997 
L 3341 0 
L 2766 0 
L 2766 531 
Q 2569 213 2275 61 
Q 1981 -91 1556 -91 
Q 1019 -91 701 211 
Q 384 513 384 1019 
Q 384 1609 779 1909 
Q 1175 2209 1959 2209 
L 2766 2209 
L 2766 2266 
Q 2766 2663 2505 2880 
Q 2244 3097 1772 3097 
Q 1472 3097 1187 3025 
Q 903 2953 641 2809 
L 641 3341 
Q 956 3463 1253 3523 
Q 1550 3584 1831 3584 
Q 2591 3584 2966 3190 
Q 3341 2797 3341 1997 
z
" id="DejaVuSans-61" transform="scale(0.015625)"/>
       <path d="M 1172 4494 
L 1172 3500 
L 2356 3500 
L 2356 3053 
L 1172 3053 
L 1172 1153 
Q 1172 725 1289 603 
Q 1406 481 1766 481 
L 2356 481 
L 2356 0 
L 1766 0 
Q 1100 0 847 248 
Q 594 497 594 1153 
L 594 3053 
L 172 3053 
L 172 3500 
L 594 3500 
L 594 4494 
L 1172 4494 
z
" id="DejaVuSans-74" transform="scale(0.015625)"/>
       <path d="M 544 1381 
L 544 3500 
L 1119 3500 
L 1119 1403 
Q 1119 906 1312 657 
Q 1506 409 1894 409 
Q 2359 409 2629 706 
Q 2900 1003 2900 1516 
L 2900 3500 
L 3475 3500 
L 3475 0 
L 2900 0 
L 2900 538 
Q 2691 219 2414 64 
Q 2138 -91 1772 -91 
Q 1169 -91 856 284 
Q 544 659 544 1381 
z
M 1991 3584 
L 1991 3584 
z
" id="DejaVuSans-75" transform="scale(0.015625)"/>
      </defs>
      <use xlink:href="#DejaVuSans-54"/>
      <use x="44.083984" xlink:href="#DejaVuSans-65"/>
      <use x="105.607422" xlink:href="#DejaVuSans-6d"/>
      <use x="203.019531" xlink:href="#DejaVuSans-70"/>
      <use x="266.496094" xlink:href="#DejaVuSans-65"/>
      <use x="328.019531" xlink:href="#DejaVuSans-72"/>
      <use x="369.132812" xlink:href="#DejaVuSans-61"/>
      <use x="430.412109" xlink:href="#DejaVuSans-74"/>
      <use x="469.621094" xlink:href="#DejaVuSans-75"/>
      <use x="533" xlink:href="#DejaVuSans-72"/>
      <use x="571.863281" xlink:href="#DejaVuSans-65"/>
     </g>
    </g>
   </g>
   <g id="matplotlib.axis_2">
    <g id="ytick_1">
     <g id="line2d_11">
      <defs>
       <path d="M 0 0 
L -3.5 0 
" id="m3f0464815a" style="stroke:#000000;stroke-width:0.8;"/>
      </defs>
      <g>
       <use style="stroke:#000000;stroke-width:0.8;" x="57.6" xlink:href="#m3f0464815a" y="264.246217"/>
      </g>
     </g>
     <g id="text_11">
      <!-- 0 -->
      <g transform="translate(44.2375 268.045436)scale(0.1 -0.1)">
       <use xlink:href="#DejaVuSans-30"/>
      </g>
     </g>
    </g>
    <g id="ytick_2">
     <g id="line2d_12">
      <g>
       <use style="stroke:#000000;stroke-width:0.8;" x="57.6" xlink:href="#m3f0464815a" y="210.877814"/>
      </g>
     </g>
     <g id="text_12">
      <!-- 1 -->
      <g transform="translate(44.2375 214.677032)scale(0.1 -0.1)">
       <use xlink:href="#DejaVuSans-31"/>
      </g>
     </g>
    </g>
    <g id="ytick_3">
     <g id="line2d_13">
      <g>
       <use style="stroke:#000000;stroke-width:0.8;" x="57.6" xlink:href="#m3f0464815a" y="157.50941"/>
      </g>
     </g>
     <g id="text_13">
      <!-- 2 -->
      <g transform="translate(44.2375 161.308629)scale(0.1 -0.1)">
       <use xlink:href="#DejaVuSans-32"/>
      </g>
     </g>
    </g>
    <g id="ytick_4">
     <g id="line2d_14">
      <g>
       <use style="stroke:#000000;stroke-width:0.8;" x="57.6" xlink:href="#m3f0464815a" y="104.141007"/>
      </g>
     </g>
     <g id="text_14">
      <!-- 3 -->
      <g transform="translate(44.2375 107.940226)scale(0.1 -0.1)">
       <use xlink:href="#DejaVuSans-33"/>
      </g>
     </g>
    </g>
    <g id="ytick_5">
     <g id="line2d_15">
      <g>
       <use style="stroke:#000000;stroke-width:0.8;" x="57.6" xlink:href="#m3f0464815a" y="50.772604"/>
      </g>
     </g>
     <g id="text_15">
      <!-- 4 -->
      <g transform="translate(44.2375 54.571822)scale(0.1 -0.1)">
       <defs>
        <path d="M 2419 4116 
L 825 1625 
L 2419 1625 
L 2419 4116 
z
M 2253 4666 
L 3047 4666 
L 3047 1625 
L 3713 1625 
L 3713 1100 
L 3047 1100 
L 3047 0 
L 2419 0 
L 2419 1100 
L 313 1100 
L 313 1709 
L 2253 4666 
z
" id="DejaVuSans-34" transform="scale(0.015625)"/>
       </defs>
       <use xlink:href="#DejaVuSans-34"/>
      </g>
     </g>
    </g>
    <g id="text_16">
     <!-- Specific heat -->
     <g transform="translate(38.157812 206.848312)rotate(-90)scale(0.1 -0.1)">
      <defs>
       <path d="M 3425 4513 
L 3425 3897 
Q 3066 4069 2747 4153 
Q 2428 4238 2131 4238 
Q 1616 4238 1336 4038 
Q 1056 3838 1056 3469 
Q 1056 3159 1242 3001 
Q 1428 2844 1947 2747 
L 2328 2669 
Q 3034 2534 3370 2195 
Q 3706 1856 3706 1288 
Q 3706 609 3251 259 
Q 2797 -91 1919 -91 
Q 1588 -91 1214 -16 
Q 841 59 441 206 
L 441 856 
Q 825 641 1194 531 
Q 1563 422 1919 422 
Q 2459 422 2753 634 
Q 3047 847 3047 1241 
Q 3047 1584 2836 1778 
Q 2625 1972 2144 2069 
L 1759 2144 
Q 1053 2284 737 2584 
Q 422 2884 422 3419 
Q 422 4038 858 4394 
Q 1294 4750 2059 4750 
Q 2388 4750 2728 4690 
Q 3069 4631 3425 4513 
z
" id="DejaVuSans-53" transform="scale(0.015625)"/>
       <path d="M 3122 3366 
L 3122 2828 
Q 2878 2963 2633 3030 
Q 2388 3097 2138 3097 
Q 1578 3097 1268 2742 
Q 959 2388 959 1747 
Q 959 1106 1268 751 
Q 1578 397 2138 397 
Q 2388 397 2633 464 
Q 2878 531 3122 666 
L 3122 134 
Q 2881 22 2623 -34 
Q 2366 -91 2075 -91 
Q 1284 -91 818 406 
Q 353 903 353 1747 
Q 353 2603 823 3093 
Q 1294 3584 2113 3584 
Q 2378 3584 2631 3529 
Q 2884 3475 3122 3366 
z
" id="DejaVuSans-63" transform="scale(0.015625)"/>
       <path d="M 603 3500 
L 1178 3500 
L 1178 0 
L 603 0 
L 603 3500 
z
M 603 4863 
L 1178 4863 
L 1178 4134 
L 603 4134 
L 603 4863 
z
" id="DejaVuSans-69" transform="scale(0.015625)"/>
       <path d="M 2375 4863 
L 2375 4384 
L 1825 4384 
Q 1516 4384 1395 4259 
Q 1275 4134 1275 3809 
L 1275 3500 
L 2222 3500 
L 2222 3053 
L 1275 3053 
L 1275 0 
L 697 0 
L 697 3053 
L 147 3053 
L 147 3500 
L 697 3500 
L 697 3744 
Q 697 4328 969 4595 
Q 1241 4863 1831 4863 
L 2375 4863 
z
" id="DejaVuSans-66" transform="scale(0.015625)"/>
       <path id="DejaVuSans-20" transform="scale(0.015625)"/>
       <path d="M 3513 2113 
L 3513 0 
L 2938 0 
L 2938 2094 
Q 2938 2591 2744 2837 
Q 2550 3084 2163 3084 
Q 1697 3084 1428 2787 
Q 1159 2491 1159 1978 
L 1159 0 
L 581 0 
L 581 4863 
L 1159 4863 
L 1159 2956 
Q 1366 3272 1645 3428 
Q 1925 3584 2291 3584 
Q 2894 3584 3203 3211 
Q 3513 2838 3513 2113 
z
" id="DejaVuSans-68" transform="scale(0.015625)"/>
      </defs>
      <use xlink:href="#DejaVuSans-53"/>
      <use x="63.476562" xlink:href="#DejaVuSans-70"/>
      <use x="126.953125" xlink:href="#DejaVuSans-65"/>
      <use x="188.476562" xlink:href="#DejaVuSans-63"/>
      <use x="243.457031" xlink:href="#DejaVuSans-69"/>
      <use x="271.240234" xlink:href="#DejaVuSans-66"/>
      <use x="306.445312" xlink:href="#DejaVuSans-69"/>
      <use x="334.228516" xlink:href="#DejaVuSans-63"/>
      <use x="389.208984" xlink:href="#DejaVuSans-20"/>
      <use x="420.996094" xlink:href="#DejaVuSans-68"/>
      <use x="484.375" xlink:href="#DejaVuSans-65"/>
      <use x="545.898438" xlink:href="#DejaVuSans-61"/>
      <use x="607.177734" xlink:href="#DejaVuSans-74"/>
     </g>
    </g>
   </g>
   <g id="LineCollection_1">
    <path clip-path="url(#p695c74c5a1)" d="M 73.832727 268.602286 
L 73.832727 239.03592 
" style="fill:none;stroke:#ff0000;stroke-width:2;"/>
    <path clip-path="url(#p695c74c5a1)" d="M 80.994225 267.858839 
L 80.994225 236.154677 
" style="fill:none;stroke:#ff0000;stroke-width:2;"/>
    <path clip-path="url(#p695c74c5a1)" d="M 88.155722 266.960038 
L 88.155722 234.817741 
" style="fill:none;stroke:#ff0000;stroke-width:2;"/>
    <path clip-path="url(#p695c74c5a1)" d="M 95.317219 266.379774 
L 95.317219 231.324592 
" style="fill:none;stroke:#ff0000;stroke-width:2;"/>
    <path clip-path="url(#p695c74c5a1)" d="M 102.478717 265.443278 
L 102.478717 228.337706 
" style="fill:none;stroke:#ff0000;stroke-width:2;"/>
    <path clip-path="url(#p695c74c5a1)" d="M 109.640214 264.080238 
L 109.640214 226.000019 
" style="fill:none;stroke:#ff0000;stroke-width:2;"/>
    <path clip-path="url(#p695c74c5a1)" d="M 116.801711 263.722805 
L 116.801711 222.027538 
" style="fill:none;stroke:#ff0000;stroke-width:2;"/>
    <path clip-path="url(#p695c74c5a1)" d="M 123.963209 262.083029 
L 123.963209 218.565132 
" style="fill:none;stroke:#ff0000;stroke-width:2;"/>
    <path clip-path="url(#p695c74c5a1)" d="M 131.124706 260.374131 
L 131.124706 215.571615 
" style="fill:none;stroke:#ff0000;stroke-width:2;"/>
    <path clip-path="url(#p695c74c5a1)" d="M 138.286203 259.514262 
L 138.286203 208.55508 
" style="fill:none;stroke:#ff0000;stroke-width:2;"/>
    <path clip-path="url(#p695c74c5a1)" d="M 145.447701 257.715926 
L 145.447701 205.100704 
" style="fill:none;stroke:#ff0000;stroke-width:2;"/>
    <path clip-path="url(#p695c74c5a1)" d="M 152.609198 258.251945 
L 152.609198 194.552022 
" style="fill:none;stroke:#ff0000;stroke-width:2;"/>
    <path clip-path="url(#p695c74c5a1)" d="M 159.770695 254.903012 
L 159.770695 191.530227 
" style="fill:none;stroke:#ff0000;stroke-width:2;"/>
    <path clip-path="url(#p695c74c5a1)" d="M 166.932193 256.496119 
L 166.932193 176.615715 
" style="fill:none;stroke:#ff0000;stroke-width:2;"/>
    <path clip-path="url(#p695c74c5a1)" d="M 174.09369 256.908896 
L 174.09369 163.382726 
" style="fill:none;stroke:#ff0000;stroke-width:2;"/>
    <path clip-path="url(#p695c74c5a1)" d="M 181.255187 263.202421 
L 181.255187 142.96939 
" style="fill:none;stroke:#ff0000;stroke-width:2;"/>
    <path clip-path="url(#p695c74c5a1)" d="M 188.416684 285.040552 
L 188.416684 93.551655 
" style="fill:none;stroke:#ff0000;stroke-width:2;"/>
    <path clip-path="url(#p695c74c5a1)" d="M 195.578182 283.750099 
L 195.578182 79.128146 
" style="fill:none;stroke:#ff0000;stroke-width:2;"/>
    <path clip-path="url(#p695c74c5a1)" d="M 202.739679 295.025599 
L 202.739679 56.186778 
" style="fill:none;stroke:#ff0000;stroke-width:2;"/>
    <path clip-path="url(#p695c74c5a1)" d="M 209.901176 295.488 
L 209.901176 53.568 
" style="fill:none;stroke:#ff0000;stroke-width:2;"/>
    <path clip-path="url(#p695c74c5a1)" d="M 217.062674 267.595324 
L 217.062674 102.43659 
" style="fill:none;stroke:#ff0000;stroke-width:2;"/>
    <path clip-path="url(#p695c74c5a1)" d="M 224.224171 265.258595 
L 224.224171 127.377854 
" style="fill:none;stroke:#ff0000;stroke-width:2;"/>
    <path clip-path="url(#p695c74c5a1)" d="M 231.385668 256.222533 
L 231.385668 150.295465 
" style="fill:none;stroke:#ff0000;stroke-width:2;"/>
    <path clip-path="url(#p695c74c5a1)" d="M 238.547166 247.410655 
L 238.547166 182.891513 
" style="fill:none;stroke:#ff0000;stroke-width:2;"/>
    <path clip-path="url(#p695c74c5a1)" d="M 245.708663 247.715013 
L 245.708663 189.574018 
" style="fill:none;stroke:#ff0000;stroke-width:2;"/>
    <path clip-path="url(#p695c74c5a1)" d="M 252.87016 244.511162 
L 252.87016 205.165715 
" style="fill:none;stroke:#ff0000;stroke-width:2;"/>
    <path clip-path="url(#p695c74c5a1)" d="M 260.031658 243.376124 
L 260.031658 213.309125 
" style="fill:none;stroke:#ff0000;stroke-width:2;"/>
    <path clip-path="url(#p695c74c5a1)" d="M 267.193155 243.869035 
L 267.193155 220.225084 
" style="fill:none;stroke:#ff0000;stroke-width:2;"/>
    <path clip-path="url(#p695c74c5a1)" d="M 274.354652 244.48792 
L 274.354652 223.583174 
" style="fill:none;stroke:#ff0000;stroke-width:2;"/>
    <path clip-path="url(#p695c74c5a1)" d="M 281.51615 245.216846 
L 281.51615 225.773956 
" style="fill:none;stroke:#ff0000;stroke-width:2;"/>
    <path clip-path="url(#p695c74c5a1)" d="M 288.677647 245.79635 
L 288.677647 229.482965 
" style="fill:none;stroke:#ff0000;stroke-width:2;"/>
    <path clip-path="url(#p695c74c5a1)" d="M 295.839144 246.098692 
L 295.839144 231.272989 
" style="fill:none;stroke:#ff0000;stroke-width:2;"/>
    <path clip-path="url(#p695c74c5a1)" d="M 303.000642 246.810904 
L 303.000642 233.38719 
" style="fill:none;stroke:#ff0000;stroke-width:2;"/>
    <path clip-path="url(#p695c74c5a1)" d="M 310.162139 247.455669 
L 310.162139 235.98502 
" style="fill:none;stroke:#ff0000;stroke-width:2;"/>
    <path clip-path="url(#p695c74c5a1)" d="M 317.323636 248.312726 
L 317.323636 237.906715 
" style="fill:none;stroke:#ff0000;stroke-width:2;"/>
    <path clip-path="url(#p695c74c5a1)" d="M 333.556364 249.518809 
L 333.556364 240.680543 
" style="fill:none;stroke:#ff0000;stroke-width:2;"/>
    <path clip-path="url(#p695c74c5a1)" d="M 349.789091 250.421756 
L 349.789091 243.321762 
" style="fill:none;stroke:#ff0000;stroke-width:2;"/>
    <path clip-path="url(#p695c74c5a1)" d="M 366.021818 251.654058 
L 366.021818 245.587615 
" style="fill:none;stroke:#ff0000;stroke-width:2;"/>
    <path clip-path="url(#p695c74c5a1)" d="M 382.254545 252.520804 
L 382.254545 247.324436 
" style="fill:none;stroke:#ff0000;stroke-width:2;"/>
    <path clip-path="url(#p695c74c5a1)" d="M 398.487273 253.316275 
L 398.487273 248.795499 
" style="fill:none;stroke:#ff0000;stroke-width:2;"/>
   </g>
   <g id="line2d_16">
    <defs>
     <path d="M 2 0 
L -2 -0 
" id="mbd5cd8e9a9" style="stroke:#ff0000;stroke-width:2;"/>
    </defs>
    <g clip-path="url(#p695c74c5a1)">
     <use style="fill:#ff0000;stroke:#ff0000;stroke-width:2;" x="73.832727" xlink:href="#mbd5cd8e9a9" y="268.602286"/>
     <use style="fill:#ff0000;stroke:#ff0000;stroke-width:2;" x="80.994225" xlink:href="#mbd5cd8e9a9" y="267.858839"/>
     <use style="fill:#ff0000;stroke:#ff0000;stroke-width:2;" x="88.155722" xlink:href="#mbd5cd8e9a9" y="266.960038"/>
     <use style="fill:#ff0000;stroke:#ff0000;stroke-width:2;" x="95.317219" xlink:href="#mbd5cd8e9a9" y="266.379774"/>
     <use style="fill:#ff0000;stroke:#ff0000;stroke-width:2;" x="102.478717" xlink:href="#mbd5cd8e9a9" y="265.443278"/>
     <use style="fill:#ff0000;stroke:#ff0000;stroke-width:2;" x="109.640214" xlink:href="#mbd5cd8e9a9" y="264.080238"/>
     <use style="fill:#ff0000;stroke:#ff0000;stroke-width:2;" x="116.801711" xlink:href="#mbd5cd8e9a9" y="263.722805"/>
     <use style="fill:#ff0000;stroke:#ff0000;stroke-width:2;" x="123.963209" xlink:href="#mbd5cd8e9a9" y="262.083029"/>
     <use style="fill:#ff0000;stroke:#ff0000;stroke-width:2;" x="131.124706" xlink:href="#mbd5cd8e9a9" y="260.374131"/>
     <use style="fill:#ff0000;stroke:#ff0000;stroke-width:2;" x="138.286203" xlink:href="#mbd5cd8e9a9" y="259.514262"/>
     <use style="fill:#ff0000;stroke:#ff0000;stroke-width:2;" x="145.447701" xlink:href="#mbd5cd8e9a9" y="257.715926"/>
     <use style="fill:#ff0000;stroke:#ff0000;stroke-width:2;" x="152.609198" xlink:href="#mbd5cd8e9a9" y="258.251945"/>
     <use style="fill:#ff0000;stroke:#ff0000;stroke-width:2;" x="159.770695" xlink:href="#mbd5cd8e9a9" y="254.903012"/>
     <use style="fill:#ff0000;stroke:#ff0000;stroke-width:2;" x="166.932193" xlink:href="#mbd5cd8e9a9" y="256.496119"/>
     <use style="fill:#ff0000;stroke:#ff0000;stroke-width:2;" x="174.09369" xlink:href="#mbd5cd8e9a9" y="256.908896"/>
     <use style="fill:#ff0000;stroke:#ff0000;stroke-width:2;" x="181.255187" xlink:href="#mbd5cd8e9a9" y="263.202421"/>
     <use style="fill:#ff0000;stroke:#ff0000;stroke-width:2;" x="188.416684" xlink:href="#mbd5cd8e9a9" y="285.040552"/>
     <use style="fill:#ff0000;stroke:#ff0000;stroke-width:2;" x="195.578182" xlink:href="#mbd5cd8e9a9" y="283.750099"/>
     <use style="fill:#ff0000;stroke:#ff0000;stroke-width:2;" x="202.739679" xlink:href="#mbd5cd8e9a9" y="295.025599"/>
     <use style="fill:#ff0000;stroke:#ff0000;stroke-width:2;" x="209.901176" xlink:href="#mbd5cd8e9a9" y="295.488"/>
     <use style="fill:#ff0000;stroke:#ff0000;stroke-width:2;" x="217.062674" xlink:href="#mbd5cd8e9a9" y="267.595324"/>
     <use style="fill:#ff0000;stroke:#ff0000;stroke-width:2;" x="224.224171" xlink:href="#mbd5cd8e9a9" y="265.258595"/>
     <use style="fill:#ff0000;stroke:#ff0000;stroke-width:2;" x="231.385668" xlink:href="#mbd5cd8e9a9" y="256.222533"/>
     <use style="fill:#ff0000;stroke:#ff0000;stroke-width:2;" x="238.547166" xlink:href="#mbd5cd8e9a9" y="247.410655"/>
     <use style="fill:#ff0000;stroke:#ff0000;stroke-width:2;" x="245.708663" xlink:href="#mbd5cd8e9a9" y="247.715013"/>
     <use style="fill:#ff0000;stroke:#ff0000;stroke-width:2;" x="252.87016" xlink:href="#mbd5cd8e9a9" y="244.511162"/>
     <use style="fill:#ff0000;stroke:#ff0000;stroke-width:2;" x="260.031658" xlink:href="#mbd5cd8e9a9" y="243.376124"/>
     <use style="fill:#ff0000;stroke:#ff0000;stroke-width:2;" x="267.193155" xlink:href="#mbd5cd8e9a9" y="243.869035"/>
     <use style="fill:#ff0000;stroke:#ff0000;stroke-width:2;" x="274.354652" xlink:href="#mbd5cd8e9a9" y="244.48792"/>
     <use style="fill:#ff0000;stroke:#ff0000;stroke-width:2;" x="281.51615" xlink:href="#mbd5cd8e9a9" y="245.216846"/>
     <use style="fill:#ff0000;stroke:#ff0000;stroke-width:2;" x="288.677647" xlink:href="#mbd5cd8e9a9" y="245.79635"/>
     <use style="fill:#ff0000;stroke:#ff0000;stroke-width:2;" x="295.839144" xlink:href="#mbd5cd8e9a9" y="246.098692"/>
     <use style="fill:#ff0000;stroke:#ff0000;stroke-width:2;" x="303.000642" xlink:href="#mbd5cd8e9a9" y="246.810904"/>
     <use style="fill:#ff0000;stroke:#ff0000;stroke-width:2;" x="310.162139" xlink:href="#mbd5cd8e9a9" y="247.455669"/>
     <use style="fill:#ff0000;stroke:#ff0000;stroke-width:2;" x="317.323636" xlink:href="#mbd5cd8e9a9" y="248.312726"/>
     <use style="fill:#ff0000;stroke:#ff0000;stroke-width:2;" x="333.556364" xlink:href="#mbd5cd8e9a9" y="249.518809"/>
     <use style="fill:#ff0000;stroke:#ff0000;stroke-width:2;" x="349.789091" xlink:href="#mbd5cd8e9a9" y="250.421756"/>
     <use style="fill:#ff0000;stroke:#ff0000;stroke-width:2;" x="366.021818" xlink:href="#mbd5cd8e9a9" y="251.654058"/>
     <use style="fill:#ff0000;stroke:#ff0000;stroke-width:2;" x="382.254545" xlink:href="#mbd5cd8e9a9" y="252.520804"/>
     <use style="fill:#ff0000;stroke:#ff0000;stroke-width:2;" x="398.487273" xlink:href="#mbd5cd8e9a9" y="253.316275"/>
    </g>
   </g>
   <g id="line2d_17">
    <g clip-path="url(#p695c74c5a1)">
     <use style="fill:#ff0000;stroke:#ff0000;stroke-width:2;" x="73.832727" xlink:href="#mbd5cd8e9a9" y="239.03592"/>
     <use style="fill:#ff0000;stroke:#ff0000;stroke-width:2;" x="80.994225" xlink:href="#mbd5cd8e9a9" y="236.154677"/>
     <use style="fill:#ff0000;stroke:#ff0000;stroke-width:2;" x="88.155722" xlink:href="#mbd5cd8e9a9" y="234.817741"/>
     <use style="fill:#ff0000;stroke:#ff0000;stroke-width:2;" x="95.317219" xlink:href="#mbd5cd8e9a9" y="231.324592"/>
     <use style="fill:#ff0000;stroke:#ff0000;stroke-width:2;" x="102.478717" xlink:href="#mbd5cd8e9a9" y="228.337706"/>
     <use style="fill:#ff0000;stroke:#ff0000;stroke-width:2;" x="109.640214" xlink:href="#mbd5cd8e9a9" y="226.000019"/>
     <use style="fill:#ff0000;stroke:#ff0000;stroke-width:2;" x="116.801711" xlink:href="#mbd5cd8e9a9" y="222.027538"/>
     <use style="fill:#ff0000;stroke:#ff0000;stroke-width:2;" x="123.963209" xlink:href="#mbd5cd8e9a9" y="218.565132"/>
     <use style="fill:#ff0000;stroke:#ff0000;stroke-width:2;" x="131.124706" xlink:href="#mbd5cd8e9a9" y="215.571615"/>
     <use style="fill:#ff0000;stroke:#ff0000;stroke-width:2;" x="138.286203" xlink:href="#mbd5cd8e9a9" y="208.55508"/>
     <use style="fill:#ff0000;stroke:#ff0000;stroke-width:2;" x="145.447701" xlink:href="#mbd5cd8e9a9" y="205.100704"/>
     <use style="fill:#ff0000;stroke:#ff0000;stroke-width:2;" x="152.609198" xlink:href="#mbd5cd8e9a9" y="194.552022"/>
     <use style="fill:#ff0000;stroke:#ff0000;stroke-width:2;" x="159.770695" xlink:href="#mbd5cd8e9a9" y="191.530227"/>
     <use style="fill:#ff0000;stroke:#ff0000;stroke-width:2;" x="166.932193" xlink:href="#mbd5cd8e9a9" y="176.615715"/>
     <use style="fill:#ff0000;stroke:#ff0000;stroke-width:2;" x="174.09369" xlink:href="#mbd5cd8e9a9" y="163.382726"/>
     <use style="fill:#ff0000;stroke:#ff0000;stroke-width:2;" x="181.255187" xlink:href="#mbd5cd8e9a9" y="142.96939"/>
     <use style="fill:#ff0000;stroke:#ff0000;stroke-width:2;" x="188.416684" xlink:href="#mbd5cd8e9a9" y="93.551655"/>
     <use style="fill:#ff0000;stroke:#ff0000;stroke-width:2;" x="195.578182" xlink:href="#mbd5cd8e9a9" y="79.128146"/>
     <use style="fill:#ff0000;stroke:#ff0000;stroke-width:2;" x="202.739679" xlink:href="#mbd5cd8e9a9" y="56.186778"/>
     <use style="fill:#ff0000;stroke:#ff0000;stroke-width:2;" x="209.901176" xlink:href="#mbd5cd8e9a9" y="53.568"/>
     <use style="fill:#ff0000;stroke:#ff0000;stroke-width:2;" x="217.062674" xlink:href="#mbd5cd8e9a9" y="102.43659"/>
     <use style="fill:#ff0000;stroke:#ff0000;stroke-width:2;" x="224.224171" xlink:href="#mbd5cd8e9a9" y="127.377854"/>
     <use style="fill:#ff0000;stroke:#ff0000;stroke-width:2;" x="231.385668" xlink:href="#mbd5cd8e9a9" y="150.295465"/>
     <use style="fill:#ff0000;stroke:#ff0000;stroke-width:2;" x="238.547166" xlink:href="#mbd5cd8e9a9" y="182.891513"/>
     <use style="fill:#ff0000;stroke:#ff0000;stroke-width:2;" x="245.708663" xlink:href="#mbd5cd8e9a9" y="189.574018"/>
     <use style="fill:#ff0000;stroke:#ff0000;stroke-width:2;" x="252.87016" xlink:href="#mbd5cd8e9a9" y="205.165715"/>
     <use style="fill:#ff0000;stroke:#ff0000;stroke-width:2;" x="260.031658" xlink:href="#mbd5cd8e9a9" y="213.309125"/>
     <use style="fill:#ff0000;stroke:#ff0000;stroke-width:2;" x="267.193155" xlink:href="#mbd5cd8e9a9" y="220.225084"/>
     <use style="fill:#ff0000;stroke:#ff0000;stroke-width:2;" x="274.354652" xlink:href="#mbd5cd8e9a9" y="223.583174"/>
     <use style="fill:#ff0000;stroke:#ff0000;stroke-width:2;" x="281.51615" xlink:href="#mbd5cd8e9a9" y="225.773956"/>
     <use style="fill:#ff0000;stroke:#ff0000;stroke-width:2;" x="288.677647" xlink:href="#mbd5cd8e9a9" y="229.482965"/>
     <use style="fill:#ff0000;stroke:#ff0000;stroke-width:2;" x="295.839144" xlink:href="#mbd5cd8e9a9" y="231.272989"/>
     <use style="fill:#ff0000;stroke:#ff0000;stroke-width:2;" x="303.000642" xlink:href="#mbd5cd8e9a9" y="233.38719"/>
     <use style="fill:#ff0000;stroke:#ff0000;stroke-width:2;" x="310.162139" xlink:href="#mbd5cd8e9a9" y="235.98502"/>
     <use style="fill:#ff0000;stroke:#ff0000;stroke-width:2;" x="317.323636" xlink:href="#mbd5cd8e9a9" y="237.906715"/>
     <use style="fill:#ff0000;stroke:#ff0000;stroke-width:2;" x="333.556364" xlink:href="#mbd5cd8e9a9" y="240.680543"/>
     <use style="fill:#ff0000;stroke:#ff0000;stroke-width:2;" x="349.789091" xlink:href="#mbd5cd8e9a9" y="243.321762"/>
     <use style="fill:#ff0000;stroke:#ff0000;stroke-width:2;" x="366.021818" xlink:href="#mbd5cd8e9a9" y="245.587615"/>
     <use style="fill:#ff0000;stroke:#ff0000;stroke-width:2;" x="382.254545" xlink:href="#mbd5cd8e9a9" y="247.324436"/>
     <use style="fill:#ff0000;stroke:#ff0000;stroke-width:2;" x="398.487273" xlink:href="#mbd5cd8e9a9" y="248.795499"/>
    </g>
   </g>
   <g id="patch_3">
    <path d="M 57.6 307.584 
L 57.6 41.472 
" style="fill:none;stroke:#000000;stroke-linecap:square;stroke-linejoin:miter;stroke-width:0.8;"/>
   </g>
   <g id="patch_4">
    <path d="M 414.72 307.584 
L 414.72 41.472 
" style="fill:none;stroke:#000000;stroke-linecap:square;stroke-linejoin:miter;stroke-width:0.8;"/>
   </g>
   <g id="patch_5">
    <path d="M 57.6 307.584 
L 414.72 307.584 
" style="fill:none;stroke:#000000;stroke-linecap:square;stroke-linejoin:miter;stroke-width:0.8;"/>
   </g>
   <g id="patch_6">
    <path d="M 57.6 41.472 
L 414.72 41.472 
" style="fill:none;stroke:#000000;stroke-linecap:square;stroke-linejoin:miter;stroke-width:0.8;"/>
   </g>
  </g>
 </g>
 <defs>
  <clipPath id="p695c74c5a1">
   <rect height="266.112" width="357.12" x="57.6" y="41.472"/>
  </clipPath>
 </defs>
</svg>
