<?xml version="1.0" encoding="utf-8" standalone="no"?>
<!DOCTYPE svg PUBLIC "-//W3C//DTD SVG 1.1//EN"
  "http://www.w3.org/Graphics/SVG/1.1/DTD/svg11.dtd">
<svg height="345.6pt" version="1.1" viewBox="0 0 460.8 345.6" width="460.8pt" xmlns="http://www.w3.org/2000/svg" xmlns:xlink="http://www.w3.org/1999/xlink">
 <metadata>
  <rdf:RDF xmlns:cc="http://creativecommons.org/ns#" xmlns:dc="http://purl.org/dc/elements/1.1/" xmlns:rdf="http://www.w3.org/1999/02/22-rdf-syntax-ns#">
   <cc:Work>
    <dc:type rdf:resource="http://purl.org/dc/dcmitype/StillImage"/>
    <dc:date>2021-05-16T18:16:18.509298</dc:date>
    <dc:format>image/svg+xml</dc:format>
    <dc:creator>
     <cc:Agent>
      <dc:title>Matplotlib v3.4.1, https://matplotlib.org/</dc:title>
     </cc:Agent>
    </dc:creator>
   </cc:Work>
  </rdf:RDF>
 </metadata>
 <defs>
  <style type="text/css">*{stroke-linecap:butt;stroke-linejoin:round;}</style>
 </defs>
 <g id="figure_1">
  <g id="patch_1">
   <path d="M 0 345.6 
L 460.8 345.6 
L 460.8 0 
L 0 0 
z
" style="fill:#ffffff;"/>
  </g>
  <g id="axes_1">
   <g id="patch_2">
    <path d="M 57.6 307.584 
L 414.72 307.584 
L 414.72 41.472 
L 57.6 41.472 
z
" style="fill:#ffffff;"/>
   </g>
   <g id="line2d_1">
    <path clip-path="url(#p8e3d2c8048)" d="M 73.832727 53.592259 
L 80.994225 54.415231 
L 88.155722 55.219339 
L 95.317219 56.253891 
L 102.478717 57.447573 
L 109.640214 58.720616 
L 116.801711 60.325544 
L 123.963209 62.008497 
L 131.124706 64.190444 
L 138.286203 66.660011 
L 145.447701 69.359473 
L 152.609198 73.035697 
L 159.770695 76.348983 
L 166.932193 82.214104 
L 174.09369 88.169403 
L 181.255187 96.314832 
L 188.416684 109.419182 
L 195.578182 123.040431 
L 202.739679 146.946946 
L 209.901176 172.577737 
L 217.062674 190.82424 
L 224.224171 212.318911 
L 231.385668 227.006107 
L 238.547166 239.489719 
L 245.708663 246.02303 
L 252.87016 256.2832 
L 260.031658 261.808184 
L 267.193155 268.157303 
L 274.354652 271.01213 
L 281.51615 275.327991 
L 288.677647 276.927544 
L 295.839144 279.089018 
L 303.000642 281.130631 
L 310.162139 284.131955 
L 317.323636 285.822303 
L 333.556364 287.939612 
L 349.789091 290.242345 
L 366.021818 292.691575 
L 382.254545 294.085436 
L 398.487273 295.252106 
" style="fill:none;stroke:#1f77b4;stroke-linecap:square;stroke-width:1.5;"/>
    <defs>
     <path d="M 0 3 
C 0.795609 3 1.55874 2.683901 2.12132 2.12132 
C 2.683901 1.55874 3 0.795609 3 0 
C 3 -0.795609 2.683901 -1.55874 2.12132 -2.12132 
C 1.55874 -2.683901 0.795609 -3 0 -3 
C -0.795609 -3 -1.55874 -2.683901 -2.12132 -2.12132 
C -2.683901 -1.55874 -3 -0.795609 -3 0 
C -3 0.795609 -2.683901 1.55874 -2.12132 2.12132 
C -1.55874 2.683901 -0.795609 3 0 3 
z
" id="ma04c7e262a" style="stroke:#1f77b4;"/>
    </defs>
    <g clip-path="url(#p8e3d2c8048)">
     <use style="fill:#1f77b4;stroke:#1f77b4;" x="73.832727" xlink:href="#ma04c7e262a" y="53.592259"/>
     <use style="fill:#1f77b4;stroke:#1f77b4;" x="80.994225" xlink:href="#ma04c7e262a" y="54.415231"/>
     <use style="fill:#1f77b4;stroke:#1f77b4;" x="88.155722" xlink:href="#ma04c7e262a" y="55.219339"/>
     <use style="fill:#1f77b4;stroke:#1f77b4;" x="95.317219" xlink:href="#ma04c7e262a" y="56.253891"/>
     <use style="fill:#1f77b4;stroke:#1f77b4;" x="102.478717" xlink:href="#ma04c7e262a" y="57.447573"/>
     <use style="fill:#1f77b4;stroke:#1f77b4;" x="109.640214" xlink:href="#ma04c7e262a" y="58.720616"/>
     <use style="fill:#1f77b4;stroke:#1f77b4;" x="116.801711" xlink:href="#ma04c7e262a" y="60.325544"/>
     <use style="fill:#1f77b4;stroke:#1f77b4;" x="123.963209" xlink:href="#ma04c7e262a" y="62.008497"/>
     <use style="fill:#1f77b4;stroke:#1f77b4;" x="131.124706" xlink:href="#ma04c7e262a" y="64.190444"/>
     <use style="fill:#1f77b4;stroke:#1f77b4;" x="138.286203" xlink:href="#ma04c7e262a" y="66.660011"/>
     <use style="fill:#1f77b4;stroke:#1f77b4;" x="145.447701" xlink:href="#ma04c7e262a" y="69.359473"/>
     <use style="fill:#1f77b4;stroke:#1f77b4;" x="152.609198" xlink:href="#ma04c7e262a" y="73.035697"/>
     <use style="fill:#1f77b4;stroke:#1f77b4;" x="159.770695" xlink:href="#ma04c7e262a" y="76.348983"/>
     <use style="fill:#1f77b4;stroke:#1f77b4;" x="166.932193" xlink:href="#ma04c7e262a" y="82.214104"/>
     <use style="fill:#1f77b4;stroke:#1f77b4;" x="174.09369" xlink:href="#ma04c7e262a" y="88.169403"/>
     <use style="fill:#1f77b4;stroke:#1f77b4;" x="181.255187" xlink:href="#ma04c7e262a" y="96.314832"/>
     <use style="fill:#1f77b4;stroke:#1f77b4;" x="188.416684" xlink:href="#ma04c7e262a" y="109.419182"/>
     <use style="fill:#1f77b4;stroke:#1f77b4;" x="195.578182" xlink:href="#ma04c7e262a" y="123.040431"/>
     <use style="fill:#1f77b4;stroke:#1f77b4;" x="202.739679" xlink:href="#ma04c7e262a" y="146.946946"/>
     <use style="fill:#1f77b4;stroke:#1f77b4;" x="209.901176" xlink:href="#ma04c7e262a" y="172.577737"/>
     <use style="fill:#1f77b4;stroke:#1f77b4;" x="217.062674" xlink:href="#ma04c7e262a" y="190.82424"/>
     <use style="fill:#1f77b4;stroke:#1f77b4;" x="224.224171" xlink:href="#ma04c7e262a" y="212.318911"/>
     <use style="fill:#1f77b4;stroke:#1f77b4;" x="231.385668" xlink:href="#ma04c7e262a" y="227.006107"/>
     <use style="fill:#1f77b4;stroke:#1f77b4;" x="238.547166" xlink:href="#ma04c7e262a" y="239.489719"/>
     <use style="fill:#1f77b4;stroke:#1f77b4;" x="245.708663" xlink:href="#ma04c7e262a" y="246.02303"/>
     <use style="fill:#1f77b4;stroke:#1f77b4;" x="252.87016" xlink:href="#ma04c7e262a" y="256.2832"/>
     <use style="fill:#1f77b4;stroke:#1f77b4;" x="260.031658" xlink:href="#ma04c7e262a" y="261.808184"/>
     <use style="fill:#1f77b4;stroke:#1f77b4;" x="267.193155" xlink:href="#ma04c7e262a" y="268.157303"/>
     <use style="fill:#1f77b4;stroke:#1f77b4;" x="274.354652" xlink:href="#ma04c7e262a" y="271.01213"/>
     <use style="fill:#1f77b4;stroke:#1f77b4;" x="281.51615" xlink:href="#ma04c7e262a" y="275.327991"/>
     <use style="fill:#1f77b4;stroke:#1f77b4;" x="288.677647" xlink:href="#ma04c7e262a" y="276.927544"/>
     <use style="fill:#1f77b4;stroke:#1f77b4;" x="295.839144" xlink:href="#ma04c7e262a" y="279.089018"/>
     <use style="fill:#1f77b4;stroke:#1f77b4;" x="303.000642" xlink:href="#ma04c7e262a" y="281.130631"/>
     <use style="fill:#1f77b4;stroke:#1f77b4;" x="310.162139" xlink:href="#ma04c7e262a" y="284.131955"/>
     <use style="fill:#1f77b4;stroke:#1f77b4;" x="317.323636" xlink:href="#ma04c7e262a" y="285.822303"/>
     <use style="fill:#1f77b4;stroke:#1f77b4;" x="333.556364" xlink:href="#ma04c7e262a" y="287.939612"/>
     <use style="fill:#1f77b4;stroke:#1f77b4;" x="349.789091" xlink:href="#ma04c7e262a" y="290.242345"/>
     <use style="fill:#1f77b4;stroke:#1f77b4;" x="366.021818" xlink:href="#ma04c7e262a" y="292.691575"/>
     <use style="fill:#1f77b4;stroke:#1f77b4;" x="382.254545" xlink:href="#ma04c7e262a" y="294.085436"/>
     <use style="fill:#1f77b4;stroke:#1f77b4;" x="398.487273" xlink:href="#ma04c7e262a" y="295.252106"/>
    </g>
   </g>
   <g id="matplotlib.axis_1">
    <g id="xtick_1">
     <g id="line2d_2">
      <defs>
       <path d="M 0 0 
L 0 3.5 
" id="mb58becfc3d" style="stroke:#000000;stroke-width:0.8;"/>
      </defs>
      <g>
       <use style="stroke:#000000;stroke-width:0.8;" x="73.832727" xlink:href="#mb58becfc3d" y="307.584"/>
      </g>
     </g>
     <g id="text_1">
      <!-- 1.50 -->
      <g transform="translate(62.699915 322.182437)scale(0.1 -0.1)">
       <defs>
        <path d="M 794 531 
L 1825 531 
L 1825 4091 
L 703 3866 
L 703 4441 
L 1819 4666 
L 2450 4666 
L 2450 531 
L 3481 531 
L 3481 0 
L 794 0 
L 794 531 
z
" id="DejaVuSans-31" transform="scale(0.015625)"/>
        <path d="M 684 794 
L 1344 794 
L 1344 0 
L 684 0 
L 684 794 
z
" id="DejaVuSans-2e" transform="scale(0.015625)"/>
        <path d="M 691 4666 
L 3169 4666 
L 3169 4134 
L 1269 4134 
L 1269 2991 
Q 1406 3038 1543 3061 
Q 1681 3084 1819 3084 
Q 2600 3084 3056 2656 
Q 3513 2228 3513 1497 
Q 3513 744 3044 326 
Q 2575 -91 1722 -91 
Q 1428 -91 1123 -41 
Q 819 9 494 109 
L 494 744 
Q 775 591 1075 516 
Q 1375 441 1709 441 
Q 2250 441 2565 725 
Q 2881 1009 2881 1497 
Q 2881 1984 2565 2268 
Q 2250 2553 1709 2553 
Q 1456 2553 1204 2497 
Q 953 2441 691 2322 
L 691 4666 
z
" id="DejaVuSans-35" transform="scale(0.015625)"/>
        <path d="M 2034 4250 
Q 1547 4250 1301 3770 
Q 1056 3291 1056 2328 
Q 1056 1369 1301 889 
Q 1547 409 2034 409 
Q 2525 409 2770 889 
Q 3016 1369 3016 2328 
Q 3016 3291 2770 3770 
Q 2525 4250 2034 4250 
z
M 2034 4750 
Q 2819 4750 3233 4129 
Q 3647 3509 3647 2328 
Q 3647 1150 3233 529 
Q 2819 -91 2034 -91 
Q 1250 -91 836 529 
Q 422 1150 422 2328 
Q 422 3509 836 4129 
Q 1250 4750 2034 4750 
z
" id="DejaVuSans-30" transform="scale(0.015625)"/>
       </defs>
       <use xlink:href="#DejaVuSans-31"/>
       <use x="63.623047" xlink:href="#DejaVuSans-2e"/>
       <use x="95.410156" xlink:href="#DejaVuSans-35"/>
       <use x="159.033203" xlink:href="#DejaVuSans-30"/>
      </g>
     </g>
    </g>
    <g id="xtick_2">
     <g id="line2d_3">
      <g>
       <use style="stroke:#000000;stroke-width:0.8;" x="114.414545" xlink:href="#mb58becfc3d" y="307.584"/>
      </g>
     </g>
     <g id="text_2">
      <!-- 1.75 -->
      <g transform="translate(103.281733 322.182437)scale(0.1 -0.1)">
       <defs>
        <path d="M 525 4666 
L 3525 4666 
L 3525 4397 
L 1831 0 
L 1172 0 
L 2766 4134 
L 525 4134 
L 525 4666 
z
" id="DejaVuSans-37" transform="scale(0.015625)"/>
       </defs>
       <use xlink:href="#DejaVuSans-31"/>
       <use x="63.623047" xlink:href="#DejaVuSans-2e"/>
       <use x="95.410156" xlink:href="#DejaVuSans-37"/>
       <use x="159.033203" xlink:href="#DejaVuSans-35"/>
      </g>
     </g>
    </g>
    <g id="xtick_3">
     <g id="line2d_4">
      <g>
       <use style="stroke:#000000;stroke-width:0.8;" x="154.996364" xlink:href="#mb58becfc3d" y="307.584"/>
      </g>
     </g>
     <g id="text_3">
      <!-- 2.00 -->
      <g transform="translate(143.863551 322.182437)scale(0.1 -0.1)">
       <defs>
        <path d="M 1228 531 
L 3431 531 
L 3431 0 
L 469 0 
L 469 531 
Q 828 903 1448 1529 
Q 2069 2156 2228 2338 
Q 2531 2678 2651 2914 
Q 2772 3150 2772 3378 
Q 2772 3750 2511 3984 
Q 2250 4219 1831 4219 
Q 1534 4219 1204 4116 
Q 875 4013 500 3803 
L 500 4441 
Q 881 4594 1212 4672 
Q 1544 4750 1819 4750 
Q 2544 4750 2975 4387 
Q 3406 4025 3406 3419 
Q 3406 3131 3298 2873 
Q 3191 2616 2906 2266 
Q 2828 2175 2409 1742 
Q 1991 1309 1228 531 
z
" id="DejaVuSans-32" transform="scale(0.015625)"/>
       </defs>
       <use xlink:href="#DejaVuSans-32"/>
       <use x="63.623047" xlink:href="#DejaVuSans-2e"/>
       <use x="95.410156" xlink:href="#DejaVuSans-30"/>
       <use x="159.033203" xlink:href="#DejaVuSans-30"/>
      </g>
     </g>
    </g>
    <g id="xtick_4">
     <g id="line2d_5">
      <g>
       <use style="stroke:#000000;stroke-width:0.8;" x="195.578182" xlink:href="#mb58becfc3d" y="307.584"/>
      </g>
     </g>
     <g id="text_4">
      <!-- 2.25 -->
      <g transform="translate(184.445369 322.182437)scale(0.1 -0.1)">
       <use xlink:href="#DejaVuSans-32"/>
       <use x="63.623047" xlink:href="#DejaVuSans-2e"/>
       <use x="95.410156" xlink:href="#DejaVuSans-32"/>
       <use x="159.033203" xlink:href="#DejaVuSans-35"/>
      </g>
     </g>
    </g>
    <g id="xtick_5">
     <g id="line2d_6">
      <g>
       <use style="stroke:#000000;stroke-width:0.8;" x="236.16" xlink:href="#mb58becfc3d" y="307.584"/>
      </g>
     </g>
     <g id="text_5">
      <!-- 2.50 -->
      <g transform="translate(225.027187 322.182437)scale(0.1 -0.1)">
       <use xlink:href="#DejaVuSans-32"/>
       <use x="63.623047" xlink:href="#DejaVuSans-2e"/>
       <use x="95.410156" xlink:href="#DejaVuSans-35"/>
       <use x="159.033203" xlink:href="#DejaVuSans-30"/>
      </g>
     </g>
    </g>
    <g id="xtick_6">
     <g id="line2d_7">
      <g>
       <use style="stroke:#000000;stroke-width:0.8;" x="276.741818" xlink:href="#mb58becfc3d" y="307.584"/>
      </g>
     </g>
     <g id="text_6">
      <!-- 2.75 -->
      <g transform="translate(265.609006 322.182437)scale(0.1 -0.1)">
       <use xlink:href="#DejaVuSans-32"/>
       <use x="63.623047" xlink:href="#DejaVuSans-2e"/>
       <use x="95.410156" xlink:href="#DejaVuSans-37"/>
       <use x="159.033203" xlink:href="#DejaVuSans-35"/>
      </g>
     </g>
    </g>
    <g id="xtick_7">
     <g id="line2d_8">
      <g>
       <use style="stroke:#000000;stroke-width:0.8;" x="317.323636" xlink:href="#mb58becfc3d" y="307.584"/>
      </g>
     </g>
     <g id="text_7">
      <!-- 3.00 -->
      <g transform="translate(306.190824 322.182437)scale(0.1 -0.1)">
       <defs>
        <path d="M 2597 2516 
Q 3050 2419 3304 2112 
Q 3559 1806 3559 1356 
Q 3559 666 3084 287 
Q 2609 -91 1734 -91 
Q 1441 -91 1130 -33 
Q 819 25 488 141 
L 488 750 
Q 750 597 1062 519 
Q 1375 441 1716 441 
Q 2309 441 2620 675 
Q 2931 909 2931 1356 
Q 2931 1769 2642 2001 
Q 2353 2234 1838 2234 
L 1294 2234 
L 1294 2753 
L 1863 2753 
Q 2328 2753 2575 2939 
Q 2822 3125 2822 3475 
Q 2822 3834 2567 4026 
Q 2313 4219 1838 4219 
Q 1578 4219 1281 4162 
Q 984 4106 628 3988 
L 628 4550 
Q 988 4650 1302 4700 
Q 1616 4750 1894 4750 
Q 2613 4750 3031 4423 
Q 3450 4097 3450 3541 
Q 3450 3153 3228 2886 
Q 3006 2619 2597 2516 
z
" id="DejaVuSans-33" transform="scale(0.015625)"/>
       </defs>
       <use xlink:href="#DejaVuSans-33"/>
       <use x="63.623047" xlink:href="#DejaVuSans-2e"/>
       <use x="95.410156" xlink:href="#DejaVuSans-30"/>
       <use x="159.033203" xlink:href="#DejaVuSans-30"/>
      </g>
     </g>
    </g>
    <g id="xtick_8">
     <g id="line2d_9">
      <g>
       <use style="stroke:#000000;stroke-width:0.8;" x="357.905455" xlink:href="#mb58becfc3d" y="307.584"/>
      </g>
     </g>
     <g id="text_8">
      <!-- 3.25 -->
      <g transform="translate(346.772642 322.182437)scale(0.1 -0.1)">
       <use xlink:href="#DejaVuSans-33"/>
       <use x="63.623047" xlink:href="#DejaVuSans-2e"/>
       <use x="95.410156" xlink:href="#DejaVuSans-32"/>
       <use x="159.033203" xlink:href="#DejaVuSans-35"/>
      </g>
     </g>
    </g>
    <g id="xtick_9">
     <g id="line2d_10">
      <g>
       <use style="stroke:#000000;stroke-width:0.8;" x="398.487273" xlink:href="#mb58becfc3d" y="307.584"/>
      </g>
     </g>
     <g id="text_9">
      <!-- 3.50 -->
      <g transform="translate(387.35446 322.182437)scale(0.1 -0.1)">
       <use xlink:href="#DejaVuSans-33"/>
       <use x="63.623047" xlink:href="#DejaVuSans-2e"/>
       <use x="95.410156" xlink:href="#DejaVuSans-35"/>
       <use x="159.033203" xlink:href="#DejaVuSans-30"/>
      </g>
     </g>
    </g>
    <g id="text_10">
     <!-- Temperature -->
     <g transform="translate(204.490469 335.860562)scale(0.1 -0.1)">
      <defs>
       <path d="M -19 4666 
L 3928 4666 
L 3928 4134 
L 2272 4134 
L 2272 0 
L 1638 0 
L 1638 4134 
L -19 4134 
L -19 4666 
z
" id="DejaVuSans-54" transform="scale(0.015625)"/>
       <path d="M 3597 1894 
L 3597 1613 
L 953 1613 
Q 991 1019 1311 708 
Q 1631 397 2203 397 
Q 2534 397 2845 478 
Q 3156 559 3463 722 
L 3463 178 
Q 3153 47 2828 -22 
Q 2503 -91 2169 -91 
Q 1331 -91 842 396 
Q 353 884 353 1716 
Q 353 2575 817 3079 
Q 1281 3584 2069 3584 
Q 2775 3584 3186 3129 
Q 3597 2675 3597 1894 
z
M 3022 2063 
Q 3016 2534 2758 2815 
Q 2500 3097 2075 3097 
Q 1594 3097 1305 2825 
Q 1016 2553 972 2059 
L 3022 2063 
z
" id="DejaVuSans-65" transform="scale(0.015625)"/>
       <path d="M 3328 2828 
Q 3544 3216 3844 3400 
Q 4144 3584 4550 3584 
Q 5097 3584 5394 3201 
Q 5691 2819 5691 2113 
L 5691 0 
L 5113 0 
L 5113 2094 
Q 5113 2597 4934 2840 
Q 4756 3084 4391 3084 
Q 3944 3084 3684 2787 
Q 3425 2491 3425 1978 
L 3425 0 
L 2847 0 
L 2847 2094 
Q 2847 2600 2669 2842 
Q 2491 3084 2119 3084 
Q 1678 3084 1418 2786 
Q 1159 2488 1159 1978 
L 1159 0 
L 581 0 
L 581 3500 
L 1159 3500 
L 1159 2956 
Q 1356 3278 1631 3431 
Q 1906 3584 2284 3584 
Q 2666 3584 2933 3390 
Q 3200 3197 3328 2828 
z
" id="DejaVuSans-6d" transform="scale(0.015625)"/>
       <path d="M 1159 525 
L 1159 -1331 
L 581 -1331 
L 581 3500 
L 1159 3500 
L 1159 2969 
Q 1341 3281 1617 3432 
Q 1894 3584 2278 3584 
Q 2916 3584 3314 3078 
Q 3713 2572 3713 1747 
Q 3713 922 3314 415 
Q 2916 -91 2278 -91 
Q 1894 -91 1617 61 
Q 1341 213 1159 525 
z
M 3116 1747 
Q 3116 2381 2855 2742 
Q 2594 3103 2138 3103 
Q 1681 3103 1420 2742 
Q 1159 2381 1159 1747 
Q 1159 1113 1420 752 
Q 1681 391 2138 391 
Q 2594 391 2855 752 
Q 3116 1113 3116 1747 
z
" id="DejaVuSans-70" transform="scale(0.015625)"/>
       <path d="M 2631 2963 
Q 2534 3019 2420 3045 
Q 2306 3072 2169 3072 
Q 1681 3072 1420 2755 
Q 1159 2438 1159 1844 
L 1159 0 
L 581 0 
L 581 3500 
L 1159 3500 
L 1159 2956 
Q 1341 3275 1631 3429 
Q 1922 3584 2338 3584 
Q 2397 3584 2469 3576 
Q 2541 3569 2628 3553 
L 2631 2963 
z
" id="DejaVuSans-72" transform="scale(0.015625)"/>
       <path d="M 2194 1759 
Q 1497 1759 1228 1600 
Q 959 1441 959 1056 
Q 959 750 1161 570 
Q 1363 391 1709 391 
Q 2188 391 2477 730 
Q 2766 1069 2766 1631 
L 2766 1759 
L 2194 1759 
z
M 3341 1997 
L 3341 0 
L 2766 0 
L 2766 531 
Q 2569 213 2275 61 
Q 1981 -91 1556 -91 
Q 1019 -91 701 211 
Q 384 513 384 1019 
Q 384 1609 779 1909 
Q 1175 2209 1959 2209 
L 2766 2209 
L 2766 2266 
Q 2766 2663 2505 2880 
Q 2244 3097 1772 3097 
Q 1472 3097 1187 3025 
Q 903 2953 641 2809 
L 641 3341 
Q 956 3463 1253 3523 
Q 1550 3584 1831 3584 
Q 2591 3584 2966 3190 
Q 3341 2797 3341 1997 
z
" id="DejaVuSans-61" transform="scale(0.015625)"/>
       <path d="M 1172 4494 
L 1172 3500 
L 2356 3500 
L 2356 3053 
L 1172 3053 
L 1172 1153 
Q 1172 725 1289 603 
Q 1406 481 1766 481 
L 2356 481 
L 2356 0 
L 1766 0 
Q 1100 0 847 248 
Q 594 497 594 1153 
L 594 3053 
L 172 3053 
L 172 3500 
L 594 3500 
L 594 4494 
L 1172 4494 
z
" id="DejaVuSans-74" transform="scale(0.015625)"/>
       <path d="M 544 1381 
L 544 3500 
L 1119 3500 
L 1119 1403 
Q 1119 906 1312 657 
Q 1506 409 1894 409 
Q 2359 409 2629 706 
Q 2900 1003 2900 1516 
L 2900 3500 
L 3475 3500 
L 3475 0 
L 2900 0 
L 2900 538 
Q 2691 219 2414 64 
Q 2138 -91 1772 -91 
Q 1169 -91 856 284 
Q 544 659 544 1381 
z
M 1991 3584 
L 1991 3584 
z
" id="DejaVuSans-75" transform="scale(0.015625)"/>
      </defs>
      <use xlink:href="#DejaVuSans-54"/>
      <use x="44.083984" xlink:href="#DejaVuSans-65"/>
      <use x="105.607422" xlink:href="#DejaVuSans-6d"/>
      <use x="203.019531" xlink:href="#DejaVuSans-70"/>
      <use x="266.496094" xlink:href="#DejaVuSans-65"/>
      <use x="328.019531" xlink:href="#DejaVuSans-72"/>
      <use x="369.132812" xlink:href="#DejaVuSans-61"/>
      <use x="430.412109" xlink:href="#DejaVuSans-74"/>
      <use x="469.621094" xlink:href="#DejaVuSans-75"/>
      <use x="533" xlink:href="#DejaVuSans-72"/>
      <use x="571.863281" xlink:href="#DejaVuSans-65"/>
     </g>
    </g>
   </g>
   <g id="matplotlib.axis_2">
    <g id="ytick_1">
     <g id="line2d_11">
      <defs>
       <path d="M 0 0 
L -3.5 0 
" id="mbf97caa4d0" style="stroke:#000000;stroke-width:0.8;"/>
      </defs>
      <g>
       <use style="stroke:#000000;stroke-width:0.8;" x="57.6" xlink:href="#mbf97caa4d0" y="267.959726"/>
      </g>
     </g>
     <g id="text_11">
      <!-- 0.2 -->
      <g transform="translate(34.696875 271.758944)scale(0.1 -0.1)">
       <use xlink:href="#DejaVuSans-30"/>
       <use x="63.623047" xlink:href="#DejaVuSans-2e"/>
       <use x="95.410156" xlink:href="#DejaVuSans-32"/>
      </g>
     </g>
    </g>
    <g id="ytick_2">
     <g id="line2d_12">
      <g>
       <use style="stroke:#000000;stroke-width:0.8;" x="57.6" xlink:href="#mbf97caa4d0" y="213.455556"/>
      </g>
     </g>
     <g id="text_12">
      <!-- 0.4 -->
      <g transform="translate(34.696875 217.254775)scale(0.1 -0.1)">
       <defs>
        <path d="M 2419 4116 
L 825 1625 
L 2419 1625 
L 2419 4116 
z
M 2253 4666 
L 3047 4666 
L 3047 1625 
L 3713 1625 
L 3713 1100 
L 3047 1100 
L 3047 0 
L 2419 0 
L 2419 1100 
L 313 1100 
L 313 1709 
L 2253 4666 
z
" id="DejaVuSans-34" transform="scale(0.015625)"/>
       </defs>
       <use xlink:href="#DejaVuSans-30"/>
       <use x="63.623047" xlink:href="#DejaVuSans-2e"/>
       <use x="95.410156" xlink:href="#DejaVuSans-34"/>
      </g>
     </g>
    </g>
    <g id="ytick_3">
     <g id="line2d_13">
      <g>
       <use style="stroke:#000000;stroke-width:0.8;" x="57.6" xlink:href="#mbf97caa4d0" y="158.951387"/>
      </g>
     </g>
     <g id="text_13">
      <!-- 0.6 -->
      <g transform="translate(34.696875 162.750605)scale(0.1 -0.1)">
       <defs>
        <path d="M 2113 2584 
Q 1688 2584 1439 2293 
Q 1191 2003 1191 1497 
Q 1191 994 1439 701 
Q 1688 409 2113 409 
Q 2538 409 2786 701 
Q 3034 994 3034 1497 
Q 3034 2003 2786 2293 
Q 2538 2584 2113 2584 
z
M 3366 4563 
L 3366 3988 
Q 3128 4100 2886 4159 
Q 2644 4219 2406 4219 
Q 1781 4219 1451 3797 
Q 1122 3375 1075 2522 
Q 1259 2794 1537 2939 
Q 1816 3084 2150 3084 
Q 2853 3084 3261 2657 
Q 3669 2231 3669 1497 
Q 3669 778 3244 343 
Q 2819 -91 2113 -91 
Q 1303 -91 875 529 
Q 447 1150 447 2328 
Q 447 3434 972 4092 
Q 1497 4750 2381 4750 
Q 2619 4750 2861 4703 
Q 3103 4656 3366 4563 
z
" id="DejaVuSans-36" transform="scale(0.015625)"/>
       </defs>
       <use xlink:href="#DejaVuSans-30"/>
       <use x="63.623047" xlink:href="#DejaVuSans-2e"/>
       <use x="95.410156" xlink:href="#DejaVuSans-36"/>
      </g>
     </g>
    </g>
    <g id="ytick_4">
     <g id="line2d_14">
      <g>
       <use style="stroke:#000000;stroke-width:0.8;" x="57.6" xlink:href="#mbf97caa4d0" y="104.447217"/>
      </g>
     </g>
     <g id="text_14">
      <!-- 0.8 -->
      <g transform="translate(34.696875 108.246436)scale(0.1 -0.1)">
       <defs>
        <path d="M 2034 2216 
Q 1584 2216 1326 1975 
Q 1069 1734 1069 1313 
Q 1069 891 1326 650 
Q 1584 409 2034 409 
Q 2484 409 2743 651 
Q 3003 894 3003 1313 
Q 3003 1734 2745 1975 
Q 2488 2216 2034 2216 
z
M 1403 2484 
Q 997 2584 770 2862 
Q 544 3141 544 3541 
Q 544 4100 942 4425 
Q 1341 4750 2034 4750 
Q 2731 4750 3128 4425 
Q 3525 4100 3525 3541 
Q 3525 3141 3298 2862 
Q 3072 2584 2669 2484 
Q 3125 2378 3379 2068 
Q 3634 1759 3634 1313 
Q 3634 634 3220 271 
Q 2806 -91 2034 -91 
Q 1263 -91 848 271 
Q 434 634 434 1313 
Q 434 1759 690 2068 
Q 947 2378 1403 2484 
z
M 1172 3481 
Q 1172 3119 1398 2916 
Q 1625 2713 2034 2713 
Q 2441 2713 2670 2916 
Q 2900 3119 2900 3481 
Q 2900 3844 2670 4047 
Q 2441 4250 2034 4250 
Q 1625 4250 1398 4047 
Q 1172 3844 1172 3481 
z
" id="DejaVuSans-38" transform="scale(0.015625)"/>
       </defs>
       <use xlink:href="#DejaVuSans-30"/>
       <use x="63.623047" xlink:href="#DejaVuSans-2e"/>
       <use x="95.410156" xlink:href="#DejaVuSans-38"/>
      </g>
     </g>
    </g>
    <g id="ytick_5">
     <g id="line2d_15">
      <g>
       <use style="stroke:#000000;stroke-width:0.8;" x="57.6" xlink:href="#mbf97caa4d0" y="49.943048"/>
      </g>
     </g>
     <g id="text_15">
      <!-- 1.0 -->
      <g transform="translate(34.696875 53.742266)scale(0.1 -0.1)">
       <use xlink:href="#DejaVuSans-31"/>
       <use x="63.623047" xlink:href="#DejaVuSans-2e"/>
       <use x="95.410156" xlink:href="#DejaVuSans-30"/>
      </g>
     </g>
    </g>
    <g id="text_16">
     <!-- Average absolute Magnetisation -->
     <g transform="translate(28.617187 255.128781)rotate(-90)scale(0.1 -0.1)">
      <defs>
       <path d="M 2188 4044 
L 1331 1722 
L 3047 1722 
L 2188 4044 
z
M 1831 4666 
L 2547 4666 
L 4325 0 
L 3669 0 
L 3244 1197 
L 1141 1197 
L 716 0 
L 50 0 
L 1831 4666 
z
" id="DejaVuSans-41" transform="scale(0.015625)"/>
       <path d="M 191 3500 
L 800 3500 
L 1894 563 
L 2988 3500 
L 3597 3500 
L 2284 0 
L 1503 0 
L 191 3500 
z
" id="DejaVuSans-76" transform="scale(0.015625)"/>
       <path d="M 2906 1791 
Q 2906 2416 2648 2759 
Q 2391 3103 1925 3103 
Q 1463 3103 1205 2759 
Q 947 2416 947 1791 
Q 947 1169 1205 825 
Q 1463 481 1925 481 
Q 2391 481 2648 825 
Q 2906 1169 2906 1791 
z
M 3481 434 
Q 3481 -459 3084 -895 
Q 2688 -1331 1869 -1331 
Q 1566 -1331 1297 -1286 
Q 1028 -1241 775 -1147 
L 775 -588 
Q 1028 -725 1275 -790 
Q 1522 -856 1778 -856 
Q 2344 -856 2625 -561 
Q 2906 -266 2906 331 
L 2906 616 
Q 2728 306 2450 153 
Q 2172 0 1784 0 
Q 1141 0 747 490 
Q 353 981 353 1791 
Q 353 2603 747 3093 
Q 1141 3584 1784 3584 
Q 2172 3584 2450 3431 
Q 2728 3278 2906 2969 
L 2906 3500 
L 3481 3500 
L 3481 434 
z
" id="DejaVuSans-67" transform="scale(0.015625)"/>
       <path id="DejaVuSans-20" transform="scale(0.015625)"/>
       <path d="M 3116 1747 
Q 3116 2381 2855 2742 
Q 2594 3103 2138 3103 
Q 1681 3103 1420 2742 
Q 1159 2381 1159 1747 
Q 1159 1113 1420 752 
Q 1681 391 2138 391 
Q 2594 391 2855 752 
Q 3116 1113 3116 1747 
z
M 1159 2969 
Q 1341 3281 1617 3432 
Q 1894 3584 2278 3584 
Q 2916 3584 3314 3078 
Q 3713 2572 3713 1747 
Q 3713 922 3314 415 
Q 2916 -91 2278 -91 
Q 1894 -91 1617 61 
Q 1341 213 1159 525 
L 1159 0 
L 581 0 
L 581 4863 
L 1159 4863 
L 1159 2969 
z
" id="DejaVuSans-62" transform="scale(0.015625)"/>
       <path d="M 2834 3397 
L 2834 2853 
Q 2591 2978 2328 3040 
Q 2066 3103 1784 3103 
Q 1356 3103 1142 2972 
Q 928 2841 928 2578 
Q 928 2378 1081 2264 
Q 1234 2150 1697 2047 
L 1894 2003 
Q 2506 1872 2764 1633 
Q 3022 1394 3022 966 
Q 3022 478 2636 193 
Q 2250 -91 1575 -91 
Q 1294 -91 989 -36 
Q 684 19 347 128 
L 347 722 
Q 666 556 975 473 
Q 1284 391 1588 391 
Q 1994 391 2212 530 
Q 2431 669 2431 922 
Q 2431 1156 2273 1281 
Q 2116 1406 1581 1522 
L 1381 1569 
Q 847 1681 609 1914 
Q 372 2147 372 2553 
Q 372 3047 722 3315 
Q 1072 3584 1716 3584 
Q 2034 3584 2315 3537 
Q 2597 3491 2834 3397 
z
" id="DejaVuSans-73" transform="scale(0.015625)"/>
       <path d="M 1959 3097 
Q 1497 3097 1228 2736 
Q 959 2375 959 1747 
Q 959 1119 1226 758 
Q 1494 397 1959 397 
Q 2419 397 2687 759 
Q 2956 1122 2956 1747 
Q 2956 2369 2687 2733 
Q 2419 3097 1959 3097 
z
M 1959 3584 
Q 2709 3584 3137 3096 
Q 3566 2609 3566 1747 
Q 3566 888 3137 398 
Q 2709 -91 1959 -91 
Q 1206 -91 779 398 
Q 353 888 353 1747 
Q 353 2609 779 3096 
Q 1206 3584 1959 3584 
z
" id="DejaVuSans-6f" transform="scale(0.015625)"/>
       <path d="M 603 4863 
L 1178 4863 
L 1178 0 
L 603 0 
L 603 4863 
z
" id="DejaVuSans-6c" transform="scale(0.015625)"/>
       <path d="M 628 4666 
L 1569 4666 
L 2759 1491 
L 3956 4666 
L 4897 4666 
L 4897 0 
L 4281 0 
L 4281 4097 
L 3078 897 
L 2444 897 
L 1241 4097 
L 1241 0 
L 628 0 
L 628 4666 
z
" id="DejaVuSans-4d" transform="scale(0.015625)"/>
       <path d="M 3513 2113 
L 3513 0 
L 2938 0 
L 2938 2094 
Q 2938 2591 2744 2837 
Q 2550 3084 2163 3084 
Q 1697 3084 1428 2787 
Q 1159 2491 1159 1978 
L 1159 0 
L 581 0 
L 581 3500 
L 1159 3500 
L 1159 2956 
Q 1366 3272 1645 3428 
Q 1925 3584 2291 3584 
Q 2894 3584 3203 3211 
Q 3513 2838 3513 2113 
z
" id="DejaVuSans-6e" transform="scale(0.015625)"/>
       <path d="M 603 3500 
L 1178 3500 
L 1178 0 
L 603 0 
L 603 3500 
z
M 603 4863 
L 1178 4863 
L 1178 4134 
L 603 4134 
L 603 4863 
z
" id="DejaVuSans-69" transform="scale(0.015625)"/>
      </defs>
      <use xlink:href="#DejaVuSans-41"/>
      <use x="62.533203" xlink:href="#DejaVuSans-76"/>
      <use x="121.712891" xlink:href="#DejaVuSans-65"/>
      <use x="183.236328" xlink:href="#DejaVuSans-72"/>
      <use x="224.349609" xlink:href="#DejaVuSans-61"/>
      <use x="285.628906" xlink:href="#DejaVuSans-67"/>
      <use x="349.105469" xlink:href="#DejaVuSans-65"/>
      <use x="410.628906" xlink:href="#DejaVuSans-20"/>
      <use x="442.416016" xlink:href="#DejaVuSans-61"/>
      <use x="503.695312" xlink:href="#DejaVuSans-62"/>
      <use x="567.171875" xlink:href="#DejaVuSans-73"/>
      <use x="619.271484" xlink:href="#DejaVuSans-6f"/>
      <use x="680.453125" xlink:href="#DejaVuSans-6c"/>
      <use x="708.236328" xlink:href="#DejaVuSans-75"/>
      <use x="771.615234" xlink:href="#DejaVuSans-74"/>
      <use x="810.824219" xlink:href="#DejaVuSans-65"/>
      <use x="872.347656" xlink:href="#DejaVuSans-20"/>
      <use x="904.134766" xlink:href="#DejaVuSans-4d"/>
      <use x="990.414062" xlink:href="#DejaVuSans-61"/>
      <use x="1051.693359" xlink:href="#DejaVuSans-67"/>
      <use x="1115.169922" xlink:href="#DejaVuSans-6e"/>
      <use x="1178.548828" xlink:href="#DejaVuSans-65"/>
      <use x="1240.072266" xlink:href="#DejaVuSans-74"/>
      <use x="1279.28125" xlink:href="#DejaVuSans-69"/>
      <use x="1307.064453" xlink:href="#DejaVuSans-73"/>
      <use x="1359.164062" xlink:href="#DejaVuSans-61"/>
      <use x="1420.443359" xlink:href="#DejaVuSans-74"/>
      <use x="1459.652344" xlink:href="#DejaVuSans-69"/>
      <use x="1487.435547" xlink:href="#DejaVuSans-6f"/>
      <use x="1548.617188" xlink:href="#DejaVuSans-6e"/>
     </g>
    </g>
   </g>
   <g id="LineCollection_1">
    <path clip-path="url(#p8e3d2c8048)" d="M 73.832727 53.616519 
L 73.832727 53.568 
" style="fill:none;stroke:#ff0000;stroke-width:2;"/>
    <path clip-path="url(#p8e3d2c8048)" d="M 80.994225 54.443472 
L 80.994225 54.38699 
" style="fill:none;stroke:#ff0000;stroke-width:2;"/>
    <path clip-path="url(#p8e3d2c8048)" d="M 88.155722 55.251114 
L 88.155722 55.187564 
" style="fill:none;stroke:#ff0000;stroke-width:2;"/>
    <path clip-path="url(#p8e3d2c8048)" d="M 95.317219 56.293664 
L 95.317219 56.214118 
" style="fill:none;stroke:#ff0000;stroke-width:2;"/>
    <path clip-path="url(#p8e3d2c8048)" d="M 102.478717 57.494286 
L 102.478717 57.400861 
" style="fill:none;stroke:#ff0000;stroke-width:2;"/>
    <path clip-path="url(#p8e3d2c8048)" d="M 109.640214 58.774099 
L 109.640214 58.667132 
" style="fill:none;stroke:#ff0000;stroke-width:2;"/>
    <path clip-path="url(#p8e3d2c8048)" d="M 116.801711 60.398738 
L 116.801711 60.252351 
" style="fill:none;stroke:#ff0000;stroke-width:2;"/>
    <path clip-path="url(#p8e3d2c8048)" d="M 123.963209 62.090125 
L 123.963209 61.92687 
" style="fill:none;stroke:#ff0000;stroke-width:2;"/>
    <path clip-path="url(#p8e3d2c8048)" d="M 131.124706 64.280825 
L 131.124706 64.100064 
" style="fill:none;stroke:#ff0000;stroke-width:2;"/>
    <path clip-path="url(#p8e3d2c8048)" d="M 138.286203 66.786588 
L 138.286203 66.533434 
" style="fill:none;stroke:#ff0000;stroke-width:2;"/>
    <path clip-path="url(#p8e3d2c8048)" d="M 145.447701 69.50324 
L 145.447701 69.215707 
" style="fill:none;stroke:#ff0000;stroke-width:2;"/>
    <path clip-path="url(#p8e3d2c8048)" d="M 152.609198 73.380734 
L 152.609198 72.69066 
" style="fill:none;stroke:#ff0000;stroke-width:2;"/>
    <path clip-path="url(#p8e3d2c8048)" d="M 159.770695 76.589904 
L 159.770695 76.108061 
" style="fill:none;stroke:#ff0000;stroke-width:2;"/>
    <path clip-path="url(#p8e3d2c8048)" d="M 166.932193 82.713113 
L 166.932193 81.715094 
" style="fill:none;stroke:#ff0000;stroke-width:2;"/>
    <path clip-path="url(#p8e3d2c8048)" d="M 174.09369 88.748579 
L 174.09369 87.590228 
" style="fill:none;stroke:#ff0000;stroke-width:2;"/>
    <path clip-path="url(#p8e3d2c8048)" d="M 181.255187 97.258109 
L 181.255187 95.371555 
" style="fill:none;stroke:#ff0000;stroke-width:2;"/>
    <path clip-path="url(#p8e3d2c8048)" d="M 188.416684 111.718399 
L 188.416684 107.119965 
" style="fill:none;stroke:#ff0000;stroke-width:2;"/>
    <path clip-path="url(#p8e3d2c8048)" d="M 195.578182 125.862201 
L 195.578182 120.218662 
" style="fill:none;stroke:#ff0000;stroke-width:2;"/>
    <path clip-path="url(#p8e3d2c8048)" d="M 202.739679 150.201135 
L 202.739679 143.692757 
" style="fill:none;stroke:#ff0000;stroke-width:2;"/>
    <path clip-path="url(#p8e3d2c8048)" d="M 209.901176 176.878538 
L 209.901176 168.276936 
" style="fill:none;stroke:#ff0000;stroke-width:2;"/>
    <path clip-path="url(#p8e3d2c8048)" d="M 217.062674 193.8766 
L 217.062674 187.771881 
" style="fill:none;stroke:#ff0000;stroke-width:2;"/>
    <path clip-path="url(#p8e3d2c8048)" d="M 224.224171 215.347704 
L 224.224171 209.290119 
" style="fill:none;stroke:#ff0000;stroke-width:2;"/>
    <path clip-path="url(#p8e3d2c8048)" d="M 231.385668 229.516741 
L 231.385668 224.495474 
" style="fill:none;stroke:#ff0000;stroke-width:2;"/>
    <path clip-path="url(#p8e3d2c8048)" d="M 238.547166 241.448193 
L 238.547166 237.531245 
" style="fill:none;stroke:#ff0000;stroke-width:2;"/>
    <path clip-path="url(#p8e3d2c8048)" d="M 245.708663 247.76108 
L 245.708663 244.28498 
" style="fill:none;stroke:#ff0000;stroke-width:2;"/>
    <path clip-path="url(#p8e3d2c8048)" d="M 252.87016 257.814422 
L 252.87016 254.751978 
" style="fill:none;stroke:#ff0000;stroke-width:2;"/>
    <path clip-path="url(#p8e3d2c8048)" d="M 260.031658 263.016335 
L 260.031658 260.600032 
" style="fill:none;stroke:#ff0000;stroke-width:2;"/>
    <path clip-path="url(#p8e3d2c8048)" d="M 267.193155 269.144579 
L 267.193155 267.170028 
" style="fill:none;stroke:#ff0000;stroke-width:2;"/>
    <path clip-path="url(#p8e3d2c8048)" d="M 274.354652 271.888662 
L 274.354652 270.135598 
" style="fill:none;stroke:#ff0000;stroke-width:2;"/>
    <path clip-path="url(#p8e3d2c8048)" d="M 281.51615 276.12096 
L 281.51615 274.535022 
" style="fill:none;stroke:#ff0000;stroke-width:2;"/>
    <path clip-path="url(#p8e3d2c8048)" d="M 288.677647 277.631472 
L 288.677647 276.223617 
" style="fill:none;stroke:#ff0000;stroke-width:2;"/>
    <path clip-path="url(#p8e3d2c8048)" d="M 295.839144 279.737482 
L 295.839144 278.440554 
" style="fill:none;stroke:#ff0000;stroke-width:2;"/>
    <path clip-path="url(#p8e3d2c8048)" d="M 303.000642 281.67364 
L 303.000642 280.587621 
" style="fill:none;stroke:#ff0000;stroke-width:2;"/>
    <path clip-path="url(#p8e3d2c8048)" d="M 310.162139 284.623125 
L 310.162139 283.640785 
" style="fill:none;stroke:#ff0000;stroke-width:2;"/>
    <path clip-path="url(#p8e3d2c8048)" d="M 317.323636 286.273132 
L 317.323636 285.371474 
" style="fill:none;stroke:#ff0000;stroke-width:2;"/>
    <path clip-path="url(#p8e3d2c8048)" d="M 333.556364 288.339347 
L 333.556364 287.539877 
" style="fill:none;stroke:#ff0000;stroke-width:2;"/>
    <path clip-path="url(#p8e3d2c8048)" d="M 349.789091 290.564568 
L 349.789091 289.920122 
" style="fill:none;stroke:#ff0000;stroke-width:2;"/>
    <path clip-path="url(#p8e3d2c8048)" d="M 366.021818 292.979398 
L 366.021818 292.403751 
" style="fill:none;stroke:#ff0000;stroke-width:2;"/>
    <path clip-path="url(#p8e3d2c8048)" d="M 382.254545 294.34295 
L 382.254545 293.827923 
" style="fill:none;stroke:#ff0000;stroke-width:2;"/>
    <path clip-path="url(#p8e3d2c8048)" d="M 398.487273 295.488 
L 398.487273 295.016213 
" style="fill:none;stroke:#ff0000;stroke-width:2;"/>
   </g>
   <g id="line2d_16">
    <defs>
     <path d="M 2 0 
L -2 -0 
" id="m7d24ef8d4d" style="stroke:#ff0000;stroke-width:2;"/>
    </defs>
    <g clip-path="url(#p8e3d2c8048)">
     <use style="fill:#ff0000;stroke:#ff0000;stroke-width:2;" x="73.832727" xlink:href="#m7d24ef8d4d" y="53.616519"/>
     <use style="fill:#ff0000;stroke:#ff0000;stroke-width:2;" x="80.994225" xlink:href="#m7d24ef8d4d" y="54.443472"/>
     <use style="fill:#ff0000;stroke:#ff0000;stroke-width:2;" x="88.155722" xlink:href="#m7d24ef8d4d" y="55.251114"/>
     <use style="fill:#ff0000;stroke:#ff0000;stroke-width:2;" x="95.317219" xlink:href="#m7d24ef8d4d" y="56.293664"/>
     <use style="fill:#ff0000;stroke:#ff0000;stroke-width:2;" x="102.478717" xlink:href="#m7d24ef8d4d" y="57.494286"/>
     <use style="fill:#ff0000;stroke:#ff0000;stroke-width:2;" x="109.640214" xlink:href="#m7d24ef8d4d" y="58.774099"/>
     <use style="fill:#ff0000;stroke:#ff0000;stroke-width:2;" x="116.801711" xlink:href="#m7d24ef8d4d" y="60.398738"/>
     <use style="fill:#ff0000;stroke:#ff0000;stroke-width:2;" x="123.963209" xlink:href="#m7d24ef8d4d" y="62.090125"/>
     <use style="fill:#ff0000;stroke:#ff0000;stroke-width:2;" x="131.124706" xlink:href="#m7d24ef8d4d" y="64.280825"/>
     <use style="fill:#ff0000;stroke:#ff0000;stroke-width:2;" x="138.286203" xlink:href="#m7d24ef8d4d" y="66.786588"/>
     <use style="fill:#ff0000;stroke:#ff0000;stroke-width:2;" x="145.447701" xlink:href="#m7d24ef8d4d" y="69.50324"/>
     <use style="fill:#ff0000;stroke:#ff0000;stroke-width:2;" x="152.609198" xlink:href="#m7d24ef8d4d" y="73.380734"/>
     <use style="fill:#ff0000;stroke:#ff0000;stroke-width:2;" x="159.770695" xlink:href="#m7d24ef8d4d" y="76.589904"/>
     <use style="fill:#ff0000;stroke:#ff0000;stroke-width:2;" x="166.932193" xlink:href="#m7d24ef8d4d" y="82.713113"/>
     <use style="fill:#ff0000;stroke:#ff0000;stroke-width:2;" x="174.09369" xlink:href="#m7d24ef8d4d" y="88.748579"/>
     <use style="fill:#ff0000;stroke:#ff0000;stroke-width:2;" x="181.255187" xlink:href="#m7d24ef8d4d" y="97.258109"/>
     <use style="fill:#ff0000;stroke:#ff0000;stroke-width:2;" x="188.416684" xlink:href="#m7d24ef8d4d" y="111.718399"/>
     <use style="fill:#ff0000;stroke:#ff0000;stroke-width:2;" x="195.578182" xlink:href="#m7d24ef8d4d" y="125.862201"/>
     <use style="fill:#ff0000;stroke:#ff0000;stroke-width:2;" x="202.739679" xlink:href="#m7d24ef8d4d" y="150.201135"/>
     <use style="fill:#ff0000;stroke:#ff0000;stroke-width:2;" x="209.901176" xlink:href="#m7d24ef8d4d" y="176.878538"/>
     <use style="fill:#ff0000;stroke:#ff0000;stroke-width:2;" x="217.062674" xlink:href="#m7d24ef8d4d" y="193.8766"/>
     <use style="fill:#ff0000;stroke:#ff0000;stroke-width:2;" x="224.224171" xlink:href="#m7d24ef8d4d" y="215.347704"/>
     <use style="fill:#ff0000;stroke:#ff0000;stroke-width:2;" x="231.385668" xlink:href="#m7d24ef8d4d" y="229.516741"/>
     <use style="fill:#ff0000;stroke:#ff0000;stroke-width:2;" x="238.547166" xlink:href="#m7d24ef8d4d" y="241.448193"/>
     <use style="fill:#ff0000;stroke:#ff0000;stroke-width:2;" x="245.708663" xlink:href="#m7d24ef8d4d" y="247.76108"/>
     <use style="fill:#ff0000;stroke:#ff0000;stroke-width:2;" x="252.87016" xlink:href="#m7d24ef8d4d" y="257.814422"/>
     <use style="fill:#ff0000;stroke:#ff0000;stroke-width:2;" x="260.031658" xlink:href="#m7d24ef8d4d" y="263.016335"/>
     <use style="fill:#ff0000;stroke:#ff0000;stroke-width:2;" x="267.193155" xlink:href="#m7d24ef8d4d" y="269.144579"/>
     <use style="fill:#ff0000;stroke:#ff0000;stroke-width:2;" x="274.354652" xlink:href="#m7d24ef8d4d" y="271.888662"/>
     <use style="fill:#ff0000;stroke:#ff0000;stroke-width:2;" x="281.51615" xlink:href="#m7d24ef8d4d" y="276.12096"/>
     <use style="fill:#ff0000;stroke:#ff0000;stroke-width:2;" x="288.677647" xlink:href="#m7d24ef8d4d" y="277.631472"/>
     <use style="fill:#ff0000;stroke:#ff0000;stroke-width:2;" x="295.839144" xlink:href="#m7d24ef8d4d" y="279.737482"/>
     <use style="fill:#ff0000;stroke:#ff0000;stroke-width:2;" x="303.000642" xlink:href="#m7d24ef8d4d" y="281.67364"/>
     <use style="fill:#ff0000;stroke:#ff0000;stroke-width:2;" x="310.162139" xlink:href="#m7d24ef8d4d" y="284.623125"/>
     <use style="fill:#ff0000;stroke:#ff0000;stroke-width:2;" x="317.323636" xlink:href="#m7d24ef8d4d" y="286.273132"/>
     <use style="fill:#ff0000;stroke:#ff0000;stroke-width:2;" x="333.556364" xlink:href="#m7d24ef8d4d" y="288.339347"/>
     <use style="fill:#ff0000;stroke:#ff0000;stroke-width:2;" x="349.789091" xlink:href="#m7d24ef8d4d" y="290.564568"/>
     <use style="fill:#ff0000;stroke:#ff0000;stroke-width:2;" x="366.021818" xlink:href="#m7d24ef8d4d" y="292.979398"/>
     <use style="fill:#ff0000;stroke:#ff0000;stroke-width:2;" x="382.254545" xlink:href="#m7d24ef8d4d" y="294.34295"/>
     <use style="fill:#ff0000;stroke:#ff0000;stroke-width:2;" x="398.487273" xlink:href="#m7d24ef8d4d" y="295.488"/>
    </g>
   </g>
   <g id="line2d_17">
    <g clip-path="url(#p8e3d2c8048)">
     <use style="fill:#ff0000;stroke:#ff0000;stroke-width:2;" x="73.832727" xlink:href="#m7d24ef8d4d" y="53.568"/>
     <use style="fill:#ff0000;stroke:#ff0000;stroke-width:2;" x="80.994225" xlink:href="#m7d24ef8d4d" y="54.38699"/>
     <use style="fill:#ff0000;stroke:#ff0000;stroke-width:2;" x="88.155722" xlink:href="#m7d24ef8d4d" y="55.187564"/>
     <use style="fill:#ff0000;stroke:#ff0000;stroke-width:2;" x="95.317219" xlink:href="#m7d24ef8d4d" y="56.214118"/>
     <use style="fill:#ff0000;stroke:#ff0000;stroke-width:2;" x="102.478717" xlink:href="#m7d24ef8d4d" y="57.400861"/>
     <use style="fill:#ff0000;stroke:#ff0000;stroke-width:2;" x="109.640214" xlink:href="#m7d24ef8d4d" y="58.667132"/>
     <use style="fill:#ff0000;stroke:#ff0000;stroke-width:2;" x="116.801711" xlink:href="#m7d24ef8d4d" y="60.252351"/>
     <use style="fill:#ff0000;stroke:#ff0000;stroke-width:2;" x="123.963209" xlink:href="#m7d24ef8d4d" y="61.92687"/>
     <use style="fill:#ff0000;stroke:#ff0000;stroke-width:2;" x="131.124706" xlink:href="#m7d24ef8d4d" y="64.100064"/>
     <use style="fill:#ff0000;stroke:#ff0000;stroke-width:2;" x="138.286203" xlink:href="#m7d24ef8d4d" y="66.533434"/>
     <use style="fill:#ff0000;stroke:#ff0000;stroke-width:2;" x="145.447701" xlink:href="#m7d24ef8d4d" y="69.215707"/>
     <use style="fill:#ff0000;stroke:#ff0000;stroke-width:2;" x="152.609198" xlink:href="#m7d24ef8d4d" y="72.69066"/>
     <use style="fill:#ff0000;stroke:#ff0000;stroke-width:2;" x="159.770695" xlink:href="#m7d24ef8d4d" y="76.108061"/>
     <use style="fill:#ff0000;stroke:#ff0000;stroke-width:2;" x="166.932193" xlink:href="#m7d24ef8d4d" y="81.715094"/>
     <use style="fill:#ff0000;stroke:#ff0000;stroke-width:2;" x="174.09369" xlink:href="#m7d24ef8d4d" y="87.590228"/>
     <use style="fill:#ff0000;stroke:#ff0000;stroke-width:2;" x="181.255187" xlink:href="#m7d24ef8d4d" y="95.371555"/>
     <use style="fill:#ff0000;stroke:#ff0000;stroke-width:2;" x="188.416684" xlink:href="#m7d24ef8d4d" y="107.119965"/>
     <use style="fill:#ff0000;stroke:#ff0000;stroke-width:2;" x="195.578182" xlink:href="#m7d24ef8d4d" y="120.218662"/>
     <use style="fill:#ff0000;stroke:#ff0000;stroke-width:2;" x="202.739679" xlink:href="#m7d24ef8d4d" y="143.692757"/>
     <use style="fill:#ff0000;stroke:#ff0000;stroke-width:2;" x="209.901176" xlink:href="#m7d24ef8d4d" y="168.276936"/>
     <use style="fill:#ff0000;stroke:#ff0000;stroke-width:2;" x="217.062674" xlink:href="#m7d24ef8d4d" y="187.771881"/>
     <use style="fill:#ff0000;stroke:#ff0000;stroke-width:2;" x="224.224171" xlink:href="#m7d24ef8d4d" y="209.290119"/>
     <use style="fill:#ff0000;stroke:#ff0000;stroke-width:2;" x="231.385668" xlink:href="#m7d24ef8d4d" y="224.495474"/>
     <use style="fill:#ff0000;stroke:#ff0000;stroke-width:2;" x="238.547166" xlink:href="#m7d24ef8d4d" y="237.531245"/>
     <use style="fill:#ff0000;stroke:#ff0000;stroke-width:2;" x="245.708663" xlink:href="#m7d24ef8d4d" y="244.28498"/>
     <use style="fill:#ff0000;stroke:#ff0000;stroke-width:2;" x="252.87016" xlink:href="#m7d24ef8d4d" y="254.751978"/>
     <use style="fill:#ff0000;stroke:#ff0000;stroke-width:2;" x="260.031658" xlink:href="#m7d24ef8d4d" y="260.600032"/>
     <use style="fill:#ff0000;stroke:#ff0000;stroke-width:2;" x="267.193155" xlink:href="#m7d24ef8d4d" y="267.170028"/>
     <use style="fill:#ff0000;stroke:#ff0000;stroke-width:2;" x="274.354652" xlink:href="#m7d24ef8d4d" y="270.135598"/>
     <use style="fill:#ff0000;stroke:#ff0000;stroke-width:2;" x="281.51615" xlink:href="#m7d24ef8d4d" y="274.535022"/>
     <use style="fill:#ff0000;stroke:#ff0000;stroke-width:2;" x="288.677647" xlink:href="#m7d24ef8d4d" y="276.223617"/>
     <use style="fill:#ff0000;stroke:#ff0000;stroke-width:2;" x="295.839144" xlink:href="#m7d24ef8d4d" y="278.440554"/>
     <use style="fill:#ff0000;stroke:#ff0000;stroke-width:2;" x="303.000642" xlink:href="#m7d24ef8d4d" y="280.587621"/>
     <use style="fill:#ff0000;stroke:#ff0000;stroke-width:2;" x="310.162139" xlink:href="#m7d24ef8d4d" y="283.640785"/>
     <use style="fill:#ff0000;stroke:#ff0000;stroke-width:2;" x="317.323636" xlink:href="#m7d24ef8d4d" y="285.371474"/>
     <use style="fill:#ff0000;stroke:#ff0000;stroke-width:2;" x="333.556364" xlink:href="#m7d24ef8d4d" y="287.539877"/>
     <use style="fill:#ff0000;stroke:#ff0000;stroke-width:2;" x="349.789091" xlink:href="#m7d24ef8d4d" y="289.920122"/>
     <use style="fill:#ff0000;stroke:#ff0000;stroke-width:2;" x="366.021818" xlink:href="#m7d24ef8d4d" y="292.403751"/>
     <use style="fill:#ff0000;stroke:#ff0000;stroke-width:2;" x="382.254545" xlink:href="#m7d24ef8d4d" y="293.827923"/>
     <use style="fill:#ff0000;stroke:#ff0000;stroke-width:2;" x="398.487273" xlink:href="#m7d24ef8d4d" y="295.016213"/>
    </g>
   </g>
   <g id="patch_3">
    <path d="M 57.6 307.584 
L 57.6 41.472 
" style="fill:none;stroke:#000000;stroke-linecap:square;stroke-linejoin:miter;stroke-width:0.8;"/>
   </g>
   <g id="patch_4">
    <path d="M 414.72 307.584 
L 414.72 41.472 
" style="fill:none;stroke:#000000;stroke-linecap:square;stroke-linejoin:miter;stroke-width:0.8;"/>
   </g>
   <g id="patch_5">
    <path d="M 57.6 307.584 
L 414.72 307.584 
" style="fill:none;stroke:#000000;stroke-linecap:square;stroke-linejoin:miter;stroke-width:0.8;"/>
   </g>
   <g id="patch_6">
    <path d="M 57.6 41.472 
L 414.72 41.472 
" style="fill:none;stroke:#000000;stroke-linecap:square;stroke-linejoin:miter;stroke-width:0.8;"/>
   </g>
  </g>
 </g>
 <defs>
  <clipPath id="p8e3d2c8048">
   <rect height="266.112" width="357.12" x="57.6" y="41.472"/>
  </clipPath>
 </defs>
</svg>
