<?xml version="1.0" encoding="utf-8" standalone="no"?>
<!DOCTYPE svg PUBLIC "-//W3C//DTD SVG 1.1//EN"
  "http://www.w3.org/Graphics/SVG/1.1/DTD/svg11.dtd">
<svg height="345.6pt" version="1.1" viewBox="0 0 460.8 345.6" width="460.8pt" xmlns="http://www.w3.org/2000/svg" xmlns:xlink="http://www.w3.org/1999/xlink">
 <metadata>
  <rdf:RDF xmlns:cc="http://creativecommons.org/ns#" xmlns:dc="http://purl.org/dc/elements/1.1/" xmlns:rdf="http://www.w3.org/1999/02/22-rdf-syntax-ns#">
   <cc:Work>
    <dc:type rdf:resource="http://purl.org/dc/dcmitype/StillImage"/>
    <dc:date>2021-05-15T15:11:43.959743</dc:date>
    <dc:format>image/svg+xml</dc:format>
    <dc:creator>
     <cc:Agent>
      <dc:title>Matplotlib v3.4.1, https://matplotlib.org/</dc:title>
     </cc:Agent>
    </dc:creator>
   </cc:Work>
  </rdf:RDF>
 </metadata>
 <defs>
  <style type="text/css">*{stroke-linecap:butt;stroke-linejoin:round;}</style>
 </defs>
 <g id="figure_1">
  <g id="patch_1">
   <path d="M 0 345.6 
L 460.8 345.6 
L 460.8 0 
L 0 0 
z
" style="fill:#ffffff;"/>
  </g>
  <g id="axes_1">
   <g id="patch_2">
    <path d="M 57.6 307.584 
L 414.72 307.584 
L 414.72 41.472 
L 57.6 41.472 
z
" style="fill:#ffffff;"/>
   </g>
   <g id="matplotlib.axis_1">
    <g id="xtick_1">
     <g id="line2d_1">
      <defs>
       <path d="M 0 0 
L 0 3.5 
" id="m42d4c3c17e" style="stroke:#000000;stroke-width:0.8;"/>
      </defs>
      <g>
       <use style="stroke:#000000;stroke-width:0.8;" x="73.832727" xlink:href="#m42d4c3c17e" y="307.584"/>
      </g>
     </g>
     <g id="text_1">
      <!-- 0 -->
      <g transform="translate(70.651477 322.182437)scale(0.1 -0.1)">
       <defs>
        <path d="M 2034 4250 
Q 1547 4250 1301 3770 
Q 1056 3291 1056 2328 
Q 1056 1369 1301 889 
Q 1547 409 2034 409 
Q 2525 409 2770 889 
Q 3016 1369 3016 2328 
Q 3016 3291 2770 3770 
Q 2525 4250 2034 4250 
z
M 2034 4750 
Q 2819 4750 3233 4129 
Q 3647 3509 3647 2328 
Q 3647 1150 3233 529 
Q 2819 -91 2034 -91 
Q 1250 -91 836 529 
Q 422 1150 422 2328 
Q 422 3509 836 4129 
Q 1250 4750 2034 4750 
z
" id="DejaVuSans-30" transform="scale(0.015625)"/>
       </defs>
       <use xlink:href="#DejaVuSans-30"/>
      </g>
     </g>
    </g>
    <g id="xtick_2">
     <g id="line2d_2">
      <g>
       <use style="stroke:#000000;stroke-width:0.8;" x="138.893758" xlink:href="#m42d4c3c17e" y="307.584"/>
      </g>
     </g>
     <g id="text_2">
      <!-- 100 -->
      <g transform="translate(129.350008 322.182437)scale(0.1 -0.1)">
       <defs>
        <path d="M 794 531 
L 1825 531 
L 1825 4091 
L 703 3866 
L 703 4441 
L 1819 4666 
L 2450 4666 
L 2450 531 
L 3481 531 
L 3481 0 
L 794 0 
L 794 531 
z
" id="DejaVuSans-31" transform="scale(0.015625)"/>
       </defs>
       <use xlink:href="#DejaVuSans-31"/>
       <use x="63.623047" xlink:href="#DejaVuSans-30"/>
       <use x="127.246094" xlink:href="#DejaVuSans-30"/>
      </g>
     </g>
    </g>
    <g id="xtick_3">
     <g id="line2d_3">
      <g>
       <use style="stroke:#000000;stroke-width:0.8;" x="203.95479" xlink:href="#m42d4c3c17e" y="307.584"/>
      </g>
     </g>
     <g id="text_3">
      <!-- 200 -->
      <g transform="translate(194.41104 322.182437)scale(0.1 -0.1)">
       <defs>
        <path d="M 1228 531 
L 3431 531 
L 3431 0 
L 469 0 
L 469 531 
Q 828 903 1448 1529 
Q 2069 2156 2228 2338 
Q 2531 2678 2651 2914 
Q 2772 3150 2772 3378 
Q 2772 3750 2511 3984 
Q 2250 4219 1831 4219 
Q 1534 4219 1204 4116 
Q 875 4013 500 3803 
L 500 4441 
Q 881 4594 1212 4672 
Q 1544 4750 1819 4750 
Q 2544 4750 2975 4387 
Q 3406 4025 3406 3419 
Q 3406 3131 3298 2873 
Q 3191 2616 2906 2266 
Q 2828 2175 2409 1742 
Q 1991 1309 1228 531 
z
" id="DejaVuSans-32" transform="scale(0.015625)"/>
       </defs>
       <use xlink:href="#DejaVuSans-32"/>
       <use x="63.623047" xlink:href="#DejaVuSans-30"/>
       <use x="127.246094" xlink:href="#DejaVuSans-30"/>
      </g>
     </g>
    </g>
    <g id="xtick_4">
     <g id="line2d_4">
      <g>
       <use style="stroke:#000000;stroke-width:0.8;" x="269.015821" xlink:href="#m42d4c3c17e" y="307.584"/>
      </g>
     </g>
     <g id="text_4">
      <!-- 300 -->
      <g transform="translate(259.472071 322.182437)scale(0.1 -0.1)">
       <defs>
        <path d="M 2597 2516 
Q 3050 2419 3304 2112 
Q 3559 1806 3559 1356 
Q 3559 666 3084 287 
Q 2609 -91 1734 -91 
Q 1441 -91 1130 -33 
Q 819 25 488 141 
L 488 750 
Q 750 597 1062 519 
Q 1375 441 1716 441 
Q 2309 441 2620 675 
Q 2931 909 2931 1356 
Q 2931 1769 2642 2001 
Q 2353 2234 1838 2234 
L 1294 2234 
L 1294 2753 
L 1863 2753 
Q 2328 2753 2575 2939 
Q 2822 3125 2822 3475 
Q 2822 3834 2567 4026 
Q 2313 4219 1838 4219 
Q 1578 4219 1281 4162 
Q 984 4106 628 3988 
L 628 4550 
Q 988 4650 1302 4700 
Q 1616 4750 1894 4750 
Q 2613 4750 3031 4423 
Q 3450 4097 3450 3541 
Q 3450 3153 3228 2886 
Q 3006 2619 2597 2516 
z
" id="DejaVuSans-33" transform="scale(0.015625)"/>
       </defs>
       <use xlink:href="#DejaVuSans-33"/>
       <use x="63.623047" xlink:href="#DejaVuSans-30"/>
       <use x="127.246094" xlink:href="#DejaVuSans-30"/>
      </g>
     </g>
    </g>
    <g id="xtick_5">
     <g id="line2d_5">
      <g>
       <use style="stroke:#000000;stroke-width:0.8;" x="334.076852" xlink:href="#m42d4c3c17e" y="307.584"/>
      </g>
     </g>
     <g id="text_5">
      <!-- 400 -->
      <g transform="translate(324.533102 322.182437)scale(0.1 -0.1)">
       <defs>
        <path d="M 2419 4116 
L 825 1625 
L 2419 1625 
L 2419 4116 
z
M 2253 4666 
L 3047 4666 
L 3047 1625 
L 3713 1625 
L 3713 1100 
L 3047 1100 
L 3047 0 
L 2419 0 
L 2419 1100 
L 313 1100 
L 313 1709 
L 2253 4666 
z
" id="DejaVuSans-34" transform="scale(0.015625)"/>
       </defs>
       <use xlink:href="#DejaVuSans-34"/>
       <use x="63.623047" xlink:href="#DejaVuSans-30"/>
       <use x="127.246094" xlink:href="#DejaVuSans-30"/>
      </g>
     </g>
    </g>
    <g id="xtick_6">
     <g id="line2d_6">
      <g>
       <use style="stroke:#000000;stroke-width:0.8;" x="399.137883" xlink:href="#m42d4c3c17e" y="307.584"/>
      </g>
     </g>
     <g id="text_6">
      <!-- 500 -->
      <g transform="translate(389.594133 322.182437)scale(0.1 -0.1)">
       <defs>
        <path d="M 691 4666 
L 3169 4666 
L 3169 4134 
L 1269 4134 
L 1269 2991 
Q 1406 3038 1543 3061 
Q 1681 3084 1819 3084 
Q 2600 3084 3056 2656 
Q 3513 2228 3513 1497 
Q 3513 744 3044 326 
Q 2575 -91 1722 -91 
Q 1428 -91 1123 -41 
Q 819 9 494 109 
L 494 744 
Q 775 591 1075 516 
Q 1375 441 1709 441 
Q 2250 441 2565 725 
Q 2881 1009 2881 1497 
Q 2881 1984 2565 2268 
Q 2250 2553 1709 2553 
Q 1456 2553 1204 2497 
Q 953 2441 691 2322 
L 691 4666 
z
" id="DejaVuSans-35" transform="scale(0.015625)"/>
       </defs>
       <use xlink:href="#DejaVuSans-35"/>
       <use x="63.623047" xlink:href="#DejaVuSans-30"/>
       <use x="127.246094" xlink:href="#DejaVuSans-30"/>
      </g>
     </g>
    </g>
    <g id="text_7">
     <!-- MC steps -->
     <g transform="translate(213.345156 335.860562)scale(0.1 -0.1)">
      <defs>
       <path d="M 628 4666 
L 1569 4666 
L 2759 1491 
L 3956 4666 
L 4897 4666 
L 4897 0 
L 4281 0 
L 4281 4097 
L 3078 897 
L 2444 897 
L 1241 4097 
L 1241 0 
L 628 0 
L 628 4666 
z
" id="DejaVuSans-4d" transform="scale(0.015625)"/>
       <path d="M 4122 4306 
L 4122 3641 
Q 3803 3938 3442 4084 
Q 3081 4231 2675 4231 
Q 1875 4231 1450 3742 
Q 1025 3253 1025 2328 
Q 1025 1406 1450 917 
Q 1875 428 2675 428 
Q 3081 428 3442 575 
Q 3803 722 4122 1019 
L 4122 359 
Q 3791 134 3420 21 
Q 3050 -91 2638 -91 
Q 1578 -91 968 557 
Q 359 1206 359 2328 
Q 359 3453 968 4101 
Q 1578 4750 2638 4750 
Q 3056 4750 3426 4639 
Q 3797 4528 4122 4306 
z
" id="DejaVuSans-43" transform="scale(0.015625)"/>
       <path id="DejaVuSans-20" transform="scale(0.015625)"/>
       <path d="M 2834 3397 
L 2834 2853 
Q 2591 2978 2328 3040 
Q 2066 3103 1784 3103 
Q 1356 3103 1142 2972 
Q 928 2841 928 2578 
Q 928 2378 1081 2264 
Q 1234 2150 1697 2047 
L 1894 2003 
Q 2506 1872 2764 1633 
Q 3022 1394 3022 966 
Q 3022 478 2636 193 
Q 2250 -91 1575 -91 
Q 1294 -91 989 -36 
Q 684 19 347 128 
L 347 722 
Q 666 556 975 473 
Q 1284 391 1588 391 
Q 1994 391 2212 530 
Q 2431 669 2431 922 
Q 2431 1156 2273 1281 
Q 2116 1406 1581 1522 
L 1381 1569 
Q 847 1681 609 1914 
Q 372 2147 372 2553 
Q 372 3047 722 3315 
Q 1072 3584 1716 3584 
Q 2034 3584 2315 3537 
Q 2597 3491 2834 3397 
z
" id="DejaVuSans-73" transform="scale(0.015625)"/>
       <path d="M 1172 4494 
L 1172 3500 
L 2356 3500 
L 2356 3053 
L 1172 3053 
L 1172 1153 
Q 1172 725 1289 603 
Q 1406 481 1766 481 
L 2356 481 
L 2356 0 
L 1766 0 
Q 1100 0 847 248 
Q 594 497 594 1153 
L 594 3053 
L 172 3053 
L 172 3500 
L 594 3500 
L 594 4494 
L 1172 4494 
z
" id="DejaVuSans-74" transform="scale(0.015625)"/>
       <path d="M 3597 1894 
L 3597 1613 
L 953 1613 
Q 991 1019 1311 708 
Q 1631 397 2203 397 
Q 2534 397 2845 478 
Q 3156 559 3463 722 
L 3463 178 
Q 3153 47 2828 -22 
Q 2503 -91 2169 -91 
Q 1331 -91 842 396 
Q 353 884 353 1716 
Q 353 2575 817 3079 
Q 1281 3584 2069 3584 
Q 2775 3584 3186 3129 
Q 3597 2675 3597 1894 
z
M 3022 2063 
Q 3016 2534 2758 2815 
Q 2500 3097 2075 3097 
Q 1594 3097 1305 2825 
Q 1016 2553 972 2059 
L 3022 2063 
z
" id="DejaVuSans-65" transform="scale(0.015625)"/>
       <path d="M 1159 525 
L 1159 -1331 
L 581 -1331 
L 581 3500 
L 1159 3500 
L 1159 2969 
Q 1341 3281 1617 3432 
Q 1894 3584 2278 3584 
Q 2916 3584 3314 3078 
Q 3713 2572 3713 1747 
Q 3713 922 3314 415 
Q 2916 -91 2278 -91 
Q 1894 -91 1617 61 
Q 1341 213 1159 525 
z
M 3116 1747 
Q 3116 2381 2855 2742 
Q 2594 3103 2138 3103 
Q 1681 3103 1420 2742 
Q 1159 2381 1159 1747 
Q 1159 1113 1420 752 
Q 1681 391 2138 391 
Q 2594 391 2855 752 
Q 3116 1113 3116 1747 
z
" id="DejaVuSans-70" transform="scale(0.015625)"/>
      </defs>
      <use xlink:href="#DejaVuSans-4d"/>
      <use x="86.279297" xlink:href="#DejaVuSans-43"/>
      <use x="156.103516" xlink:href="#DejaVuSans-20"/>
      <use x="187.890625" xlink:href="#DejaVuSans-73"/>
      <use x="239.990234" xlink:href="#DejaVuSans-74"/>
      <use x="279.199219" xlink:href="#DejaVuSans-65"/>
      <use x="340.722656" xlink:href="#DejaVuSans-70"/>
      <use x="404.199219" xlink:href="#DejaVuSans-73"/>
     </g>
    </g>
   </g>
   <g id="matplotlib.axis_2">
    <g id="ytick_1">
     <g id="line2d_7">
      <defs>
       <path d="M 0 0 
L -3.5 0 
" id="m22407800ce" style="stroke:#000000;stroke-width:0.8;"/>
      </defs>
      <g>
       <use style="stroke:#000000;stroke-width:0.8;" x="57.6" xlink:href="#m22407800ce" y="307.584"/>
      </g>
     </g>
     <g id="text_8">
      <!-- −1.00 -->
      <g transform="translate(19.954687 311.383219)scale(0.1 -0.1)">
       <defs>
        <path d="M 678 2272 
L 4684 2272 
L 4684 1741 
L 678 1741 
L 678 2272 
z
" id="DejaVuSans-2212" transform="scale(0.015625)"/>
        <path d="M 684 794 
L 1344 794 
L 1344 0 
L 684 0 
L 684 794 
z
" id="DejaVuSans-2e" transform="scale(0.015625)"/>
       </defs>
       <use xlink:href="#DejaVuSans-2212"/>
       <use x="83.789062" xlink:href="#DejaVuSans-31"/>
       <use x="147.412109" xlink:href="#DejaVuSans-2e"/>
       <use x="179.199219" xlink:href="#DejaVuSans-30"/>
       <use x="242.822266" xlink:href="#DejaVuSans-30"/>
      </g>
     </g>
    </g>
    <g id="ytick_2">
     <g id="line2d_8">
      <g>
       <use style="stroke:#000000;stroke-width:0.8;" x="57.6" xlink:href="#m22407800ce" y="274.32"/>
      </g>
     </g>
     <g id="text_9">
      <!-- −0.75 -->
      <g transform="translate(19.954687 278.119219)scale(0.1 -0.1)">
       <defs>
        <path d="M 525 4666 
L 3525 4666 
L 3525 4397 
L 1831 0 
L 1172 0 
L 2766 4134 
L 525 4134 
L 525 4666 
z
" id="DejaVuSans-37" transform="scale(0.015625)"/>
       </defs>
       <use xlink:href="#DejaVuSans-2212"/>
       <use x="83.789062" xlink:href="#DejaVuSans-30"/>
       <use x="147.412109" xlink:href="#DejaVuSans-2e"/>
       <use x="179.199219" xlink:href="#DejaVuSans-37"/>
       <use x="242.822266" xlink:href="#DejaVuSans-35"/>
      </g>
     </g>
    </g>
    <g id="ytick_3">
     <g id="line2d_9">
      <g>
       <use style="stroke:#000000;stroke-width:0.8;" x="57.6" xlink:href="#m22407800ce" y="241.056"/>
      </g>
     </g>
     <g id="text_10">
      <!-- −0.50 -->
      <g transform="translate(19.954687 244.855219)scale(0.1 -0.1)">
       <use xlink:href="#DejaVuSans-2212"/>
       <use x="83.789062" xlink:href="#DejaVuSans-30"/>
       <use x="147.412109" xlink:href="#DejaVuSans-2e"/>
       <use x="179.199219" xlink:href="#DejaVuSans-35"/>
       <use x="242.822266" xlink:href="#DejaVuSans-30"/>
      </g>
     </g>
    </g>
    <g id="ytick_4">
     <g id="line2d_10">
      <g>
       <use style="stroke:#000000;stroke-width:0.8;" x="57.6" xlink:href="#m22407800ce" y="207.792"/>
      </g>
     </g>
     <g id="text_11">
      <!-- −0.25 -->
      <g transform="translate(19.954687 211.591219)scale(0.1 -0.1)">
       <use xlink:href="#DejaVuSans-2212"/>
       <use x="83.789062" xlink:href="#DejaVuSans-30"/>
       <use x="147.412109" xlink:href="#DejaVuSans-2e"/>
       <use x="179.199219" xlink:href="#DejaVuSans-32"/>
       <use x="242.822266" xlink:href="#DejaVuSans-35"/>
      </g>
     </g>
    </g>
    <g id="ytick_5">
     <g id="line2d_11">
      <g>
       <use style="stroke:#000000;stroke-width:0.8;" x="57.6" xlink:href="#m22407800ce" y="174.528"/>
      </g>
     </g>
     <g id="text_12">
      <!-- 0.00 -->
      <g transform="translate(28.334375 178.327219)scale(0.1 -0.1)">
       <use xlink:href="#DejaVuSans-30"/>
       <use x="63.623047" xlink:href="#DejaVuSans-2e"/>
       <use x="95.410156" xlink:href="#DejaVuSans-30"/>
       <use x="159.033203" xlink:href="#DejaVuSans-30"/>
      </g>
     </g>
    </g>
    <g id="ytick_6">
     <g id="line2d_12">
      <g>
       <use style="stroke:#000000;stroke-width:0.8;" x="57.6" xlink:href="#m22407800ce" y="141.264"/>
      </g>
     </g>
     <g id="text_13">
      <!-- 0.25 -->
      <g transform="translate(28.334375 145.063219)scale(0.1 -0.1)">
       <use xlink:href="#DejaVuSans-30"/>
       <use x="63.623047" xlink:href="#DejaVuSans-2e"/>
       <use x="95.410156" xlink:href="#DejaVuSans-32"/>
       <use x="159.033203" xlink:href="#DejaVuSans-35"/>
      </g>
     </g>
    </g>
    <g id="ytick_7">
     <g id="line2d_13">
      <g>
       <use style="stroke:#000000;stroke-width:0.8;" x="57.6" xlink:href="#m22407800ce" y="108"/>
      </g>
     </g>
     <g id="text_14">
      <!-- 0.50 -->
      <g transform="translate(28.334375 111.799219)scale(0.1 -0.1)">
       <use xlink:href="#DejaVuSans-30"/>
       <use x="63.623047" xlink:href="#DejaVuSans-2e"/>
       <use x="95.410156" xlink:href="#DejaVuSans-35"/>
       <use x="159.033203" xlink:href="#DejaVuSans-30"/>
      </g>
     </g>
    </g>
    <g id="ytick_8">
     <g id="line2d_14">
      <g>
       <use style="stroke:#000000;stroke-width:0.8;" x="57.6" xlink:href="#m22407800ce" y="74.736"/>
      </g>
     </g>
     <g id="text_15">
      <!-- 0.75 -->
      <g transform="translate(28.334375 78.535219)scale(0.1 -0.1)">
       <use xlink:href="#DejaVuSans-30"/>
       <use x="63.623047" xlink:href="#DejaVuSans-2e"/>
       <use x="95.410156" xlink:href="#DejaVuSans-37"/>
       <use x="159.033203" xlink:href="#DejaVuSans-35"/>
      </g>
     </g>
    </g>
    <g id="ytick_9">
     <g id="line2d_15">
      <g>
       <use style="stroke:#000000;stroke-width:0.8;" x="57.6" xlink:href="#m22407800ce" y="41.472"/>
      </g>
     </g>
     <g id="text_16">
      <!-- 1.00 -->
      <g transform="translate(28.334375 45.271219)scale(0.1 -0.1)">
       <use xlink:href="#DejaVuSans-31"/>
       <use x="63.623047" xlink:href="#DejaVuSans-2e"/>
       <use x="95.410156" xlink:href="#DejaVuSans-30"/>
       <use x="159.033203" xlink:href="#DejaVuSans-30"/>
      </g>
     </g>
    </g>
    <g id="text_17">
     <!-- Magnetization -->
     <g transform="translate(13.875 209.9405)rotate(-90)scale(0.1 -0.1)">
      <defs>
       <path d="M 2194 1759 
Q 1497 1759 1228 1600 
Q 959 1441 959 1056 
Q 959 750 1161 570 
Q 1363 391 1709 391 
Q 2188 391 2477 730 
Q 2766 1069 2766 1631 
L 2766 1759 
L 2194 1759 
z
M 3341 1997 
L 3341 0 
L 2766 0 
L 2766 531 
Q 2569 213 2275 61 
Q 1981 -91 1556 -91 
Q 1019 -91 701 211 
Q 384 513 384 1019 
Q 384 1609 779 1909 
Q 1175 2209 1959 2209 
L 2766 2209 
L 2766 2266 
Q 2766 2663 2505 2880 
Q 2244 3097 1772 3097 
Q 1472 3097 1187 3025 
Q 903 2953 641 2809 
L 641 3341 
Q 956 3463 1253 3523 
Q 1550 3584 1831 3584 
Q 2591 3584 2966 3190 
Q 3341 2797 3341 1997 
z
" id="DejaVuSans-61" transform="scale(0.015625)"/>
       <path d="M 2906 1791 
Q 2906 2416 2648 2759 
Q 2391 3103 1925 3103 
Q 1463 3103 1205 2759 
Q 947 2416 947 1791 
Q 947 1169 1205 825 
Q 1463 481 1925 481 
Q 2391 481 2648 825 
Q 2906 1169 2906 1791 
z
M 3481 434 
Q 3481 -459 3084 -895 
Q 2688 -1331 1869 -1331 
Q 1566 -1331 1297 -1286 
Q 1028 -1241 775 -1147 
L 775 -588 
Q 1028 -725 1275 -790 
Q 1522 -856 1778 -856 
Q 2344 -856 2625 -561 
Q 2906 -266 2906 331 
L 2906 616 
Q 2728 306 2450 153 
Q 2172 0 1784 0 
Q 1141 0 747 490 
Q 353 981 353 1791 
Q 353 2603 747 3093 
Q 1141 3584 1784 3584 
Q 2172 3584 2450 3431 
Q 2728 3278 2906 2969 
L 2906 3500 
L 3481 3500 
L 3481 434 
z
" id="DejaVuSans-67" transform="scale(0.015625)"/>
       <path d="M 3513 2113 
L 3513 0 
L 2938 0 
L 2938 2094 
Q 2938 2591 2744 2837 
Q 2550 3084 2163 3084 
Q 1697 3084 1428 2787 
Q 1159 2491 1159 1978 
L 1159 0 
L 581 0 
L 581 3500 
L 1159 3500 
L 1159 2956 
Q 1366 3272 1645 3428 
Q 1925 3584 2291 3584 
Q 2894 3584 3203 3211 
Q 3513 2838 3513 2113 
z
" id="DejaVuSans-6e" transform="scale(0.015625)"/>
       <path d="M 603 3500 
L 1178 3500 
L 1178 0 
L 603 0 
L 603 3500 
z
M 603 4863 
L 1178 4863 
L 1178 4134 
L 603 4134 
L 603 4863 
z
" id="DejaVuSans-69" transform="scale(0.015625)"/>
       <path d="M 353 3500 
L 3084 3500 
L 3084 2975 
L 922 459 
L 3084 459 
L 3084 0 
L 275 0 
L 275 525 
L 2438 3041 
L 353 3041 
L 353 3500 
z
" id="DejaVuSans-7a" transform="scale(0.015625)"/>
       <path d="M 1959 3097 
Q 1497 3097 1228 2736 
Q 959 2375 959 1747 
Q 959 1119 1226 758 
Q 1494 397 1959 397 
Q 2419 397 2687 759 
Q 2956 1122 2956 1747 
Q 2956 2369 2687 2733 
Q 2419 3097 1959 3097 
z
M 1959 3584 
Q 2709 3584 3137 3096 
Q 3566 2609 3566 1747 
Q 3566 888 3137 398 
Q 2709 -91 1959 -91 
Q 1206 -91 779 398 
Q 353 888 353 1747 
Q 353 2609 779 3096 
Q 1206 3584 1959 3584 
z
" id="DejaVuSans-6f" transform="scale(0.015625)"/>
      </defs>
      <use xlink:href="#DejaVuSans-4d"/>
      <use x="86.279297" xlink:href="#DejaVuSans-61"/>
      <use x="147.558594" xlink:href="#DejaVuSans-67"/>
      <use x="211.035156" xlink:href="#DejaVuSans-6e"/>
      <use x="274.414062" xlink:href="#DejaVuSans-65"/>
      <use x="335.9375" xlink:href="#DejaVuSans-74"/>
      <use x="375.146484" xlink:href="#DejaVuSans-69"/>
      <use x="402.929688" xlink:href="#DejaVuSans-7a"/>
      <use x="455.419922" xlink:href="#DejaVuSans-61"/>
      <use x="516.699219" xlink:href="#DejaVuSans-74"/>
      <use x="555.908203" xlink:href="#DejaVuSans-69"/>
      <use x="583.691406" xlink:href="#DejaVuSans-6f"/>
      <use x="644.873047" xlink:href="#DejaVuSans-6e"/>
     </g>
    </g>
   </g>
   <g id="line2d_16">
    <path clip-path="url(#p9cabe91080)" d="M 73.832727 68.0832 
L 74.483338 99.35136 
L 75.133948 121.3056 
L 76.435169 171.2016 
L 77.085779 167.8752 
L 77.736389 167.8752 
L 78.386999 169.20576 
L 79.03761 166.54464 
L 79.68822 169.20576 
L 80.33883 171.2016 
L 80.989441 171.86688 
L 81.640051 191.82528 
L 82.290661 189.82944 
L 83.591882 199.14336 
L 84.242492 193.82112 
L 84.893103 197.14752 
L 85.543713 171.2016 
L 86.194323 177.8544 
L 86.844934 181.84608 
L 87.495544 169.87104 
L 88.146154 180.51552 
L 90.097985 145.92096 
L 90.748595 137.27232 
L 91.399206 152.57376 
L 92.049816 151.90848 
L 92.700426 150.57792 
L 93.351037 161.88768 
L 94.001647 167.20992 
L 94.652257 166.54464 
L 95.302868 167.20992 
L 95.953478 169.20576 
L 96.604088 173.19744 
L 97.254698 171.86688 
L 97.905309 178.51968 
L 98.555919 181.84608 
L 99.206529 195.15168 
L 99.85714 184.5072 
L 101.15836 159.89184 
L 101.808971 158.56128 
L 102.459581 150.57792 
L 103.110191 155.23488 
L 103.760802 156.56544 
L 104.411412 158.56128 
L 105.062022 159.89184 
L 105.712633 150.57792 
L 106.363243 154.5696 
L 107.013853 154.5696 
L 107.664463 171.86688 
L 108.315074 144.5904 
L 108.965684 169.20576 
L 109.616294 185.83776 
L 110.266905 169.20576 
L 110.917515 180.51552 
L 111.568125 167.8752 
L 112.218736 163.21824 
L 112.869346 152.57376 
L 113.519956 167.8752 
L 114.170567 168.54048 
L 114.821177 166.54464 
L 115.471787 163.21824 
L 116.122398 162.55296 
L 116.773008 163.88352 
L 117.423618 173.19744 
L 118.074228 178.51968 
L 118.724839 177.8544 
L 119.375449 176.52384 
L 120.026059 175.85856 
L 120.67667 175.85856 
L 121.32728 189.82944 
L 121.97789 169.87104 
L 122.628501 176.52384 
L 123.279111 173.86272 
L 123.929721 173.19744 
L 125.230942 161.88768 
L 125.881552 165.21408 
L 126.532163 159.22656 
L 127.182773 165.21408 
L 127.833383 161.2224 
L 128.483993 164.5488 
L 129.134604 153.23904 
L 129.785214 160.55712 
L 130.435824 178.51968 
L 131.086435 179.18496 
L 131.737045 187.16832 
L 132.387655 178.51968 
L 133.038266 177.8544 
L 133.688876 165.87936 
L 134.339486 180.51552 
L 134.990097 179.85024 
L 135.640707 183.17664 
L 136.291317 193.82112 
L 136.941927 199.14336 
L 137.592538 211.78368 
L 138.243148 203.80032 
L 138.893758 213.77952 
L 139.544369 194.4864 
L 140.194979 185.17248 
L 140.845589 182.51136 
L 141.4962 175.85856 
L 142.14681 173.19744 
L 142.79742 169.20576 
L 143.448031 163.21824 
L 144.098641 172.53216 
L 144.749251 173.86272 
L 145.399862 169.20576 
L 146.050472 163.21824 
L 146.701082 151.2432 
L 147.351692 154.5696 
L 148.002303 176.52384 
L 148.652913 182.51136 
L 149.303523 173.86272 
L 149.954134 159.89184 
L 150.604744 161.88768 
L 151.255354 161.88768 
L 151.905965 167.20992 
L 152.556575 159.89184 
L 153.207185 165.21408 
L 153.857796 161.2224 
L 154.508406 162.55296 
L 155.159016 146.58624 
L 156.460237 175.85856 
L 157.110847 185.83776 
L 157.761457 167.8752 
L 158.412068 162.55296 
L 159.062678 162.55296 
L 159.713288 172.53216 
L 160.363899 169.87104 
L 161.014509 172.53216 
L 161.665119 166.54464 
L 162.31573 186.50304 
L 162.96634 176.52384 
L 163.61695 172.53216 
L 164.267561 178.51968 
L 164.918171 179.18496 
L 165.568781 185.83776 
L 166.870002 150.57792 
L 167.520612 164.5488 
L 168.171222 153.90432 
L 168.821833 164.5488 
L 169.472443 183.17664 
L 170.123053 189.82944 
L 170.773664 191.16 
L 171.424274 191.82528 
L 172.074884 181.1808 
L 172.725495 182.51136 
L 173.376105 169.87104 
L 174.026715 194.4864 
L 174.677326 205.79616 
L 176.629156 188.49888 
L 177.279767 195.81696 
L 178.580987 181.1808 
L 179.231598 168.54048 
L 179.882208 169.87104 
L 180.532818 161.88768 
L 181.183429 163.21824 
L 181.834039 163.88352 
L 182.484649 149.24736 
L 183.13526 155.90016 
L 183.78587 150.57792 
L 184.43648 152.57376 
L 185.087091 160.55712 
L 185.737701 180.51552 
L 186.388311 174.528 
L 187.038921 162.55296 
L 187.689532 166.54464 
L 188.340142 185.17248 
L 188.990752 177.18912 
L 189.641363 185.83776 
L 190.291973 185.83776 
L 190.942583 201.1392 
L 191.593194 188.49888 
L 192.243804 184.5072 
L 192.894414 171.86688 
L 193.545025 177.8544 
L 194.195635 174.528 
L 194.846245 177.18912 
L 195.496856 174.528 
L 196.147466 187.8336 
L 196.798076 166.54464 
L 197.448686 166.54464 
L 198.099297 156.56544 
L 199.400517 173.19744 
L 200.051128 177.8544 
L 200.701738 183.84192 
L 201.352348 167.20992 
L 202.002959 169.20576 
L 202.653569 166.54464 
L 203.304179 177.8544 
L 203.95479 172.53216 
L 204.6054 174.528 
L 205.25601 177.8544 
L 205.906621 184.5072 
L 206.557231 171.86688 
L 207.207841 177.8544 
L 207.858451 178.51968 
L 208.509062 161.2224 
L 209.159672 180.51552 
L 209.810282 175.19328 
L 210.460893 175.19328 
L 211.111503 180.51552 
L 211.762113 169.87104 
L 214.364555 177.8544 
L 215.015165 168.54048 
L 215.665775 165.21408 
L 216.316385 171.2016 
L 216.966996 166.54464 
L 217.617606 167.20992 
L 218.268216 174.528 
L 218.918827 161.2224 
L 219.569437 166.54464 
L 220.220047 168.54048 
L 220.870658 168.54048 
L 221.521268 185.17248 
L 222.171878 169.20576 
L 222.822489 159.89184 
L 223.473099 166.54464 
L 224.123709 167.20992 
L 224.77432 168.54048 
L 225.42493 170.53632 
L 226.07554 179.85024 
L 226.72615 177.8544 
L 227.376761 173.86272 
L 228.027371 197.14752 
L 228.677981 198.47808 
L 229.328592 197.8128 
L 229.979202 184.5072 
L 230.629812 163.88352 
L 231.280423 153.23904 
L 231.931033 174.528 
L 232.581643 171.2016 
L 233.232254 177.8544 
L 233.882864 163.88352 
L 234.533474 170.53632 
L 235.184085 173.86272 
L 235.834695 163.88352 
L 236.485305 183.84192 
L 237.135915 177.18912 
L 237.786526 174.528 
L 238.437136 169.20576 
L 239.087746 171.2016 
L 239.738357 190.49472 
L 240.388967 180.51552 
L 241.039577 153.23904 
L 241.690188 159.22656 
L 242.340798 175.85856 
L 242.991408 166.54464 
L 243.642019 192.49056 
L 244.292629 182.51136 
L 244.943239 203.80032 
L 245.59385 194.4864 
L 246.24446 190.49472 
L 246.89507 178.51968 
L 247.54568 179.85024 
L 248.196291 183.17664 
L 248.846901 190.49472 
L 249.497511 184.5072 
L 250.148122 187.8336 
L 250.798732 173.86272 
L 251.449342 165.87936 
L 252.099953 171.2016 
L 252.750563 169.20576 
L 253.401173 171.86688 
L 254.051784 178.51968 
L 254.702394 173.19744 
L 255.353004 175.19328 
L 256.003615 163.21824 
L 256.654225 162.55296 
L 257.304835 182.51136 
L 257.955445 170.53632 
L 258.606056 164.5488 
L 259.256666 159.89184 
L 259.907276 158.56128 
L 260.557887 170.53632 
L 261.208497 165.21408 
L 261.859107 163.21824 
L 262.509718 165.87936 
L 263.160328 166.54464 
L 263.810938 176.52384 
L 264.461549 178.51968 
L 265.112159 176.52384 
L 265.762769 173.19744 
L 266.413379 173.86272 
L 267.06399 183.17664 
L 268.36521 188.49888 
L 269.015821 197.8128 
L 269.666431 187.8336 
L 270.317041 189.82944 
L 270.967652 186.50304 
L 271.618262 179.85024 
L 272.268872 181.1808 
L 272.919483 173.86272 
L 273.570093 172.53216 
L 274.220703 169.20576 
L 274.871314 183.17664 
L 275.521924 179.18496 
L 276.172534 181.1808 
L 276.823144 166.54464 
L 277.473755 161.2224 
L 278.124365 157.896 
L 278.774975 155.90016 
L 279.425586 157.23072 
L 280.076196 173.19744 
L 280.726806 174.528 
L 281.377417 180.51552 
L 282.028027 181.84608 
L 282.678637 183.84192 
L 283.329248 191.16 
L 283.979858 193.15584 
L 284.630468 199.14336 
L 285.281079 219.10176 
L 285.931689 201.80448 
L 286.582299 199.80864 
L 287.232909 186.50304 
L 287.88352 178.51968 
L 288.53413 191.82528 
L 289.18474 172.53216 
L 289.835351 161.2224 
L 290.485961 175.19328 
L 291.136571 169.87104 
L 291.787182 175.85856 
L 292.437792 197.14752 
L 293.088402 203.13504 
L 293.739013 184.5072 
L 294.389623 189.16416 
L 295.040233 167.20992 
L 295.690844 159.89184 
L 296.341454 147.9168 
L 296.992064 155.23488 
L 297.642674 153.90432 
L 298.293285 165.21408 
L 298.943895 169.20576 
L 299.594505 195.15168 
L 300.245116 181.84608 
L 300.895726 185.17248 
L 301.546336 166.54464 
L 302.196947 167.8752 
L 302.847557 185.83776 
L 303.498167 186.50304 
L 304.148778 164.5488 
L 304.799388 167.20992 
L 305.449998 174.528 
L 306.100608 177.8544 
L 306.751219 167.20992 
L 308.052439 195.15168 
L 308.70305 170.53632 
L 309.35366 168.54048 
L 310.00427 155.23488 
L 310.654881 149.91264 
L 311.305491 147.25152 
L 311.956101 152.57376 
L 312.606712 156.56544 
L 313.257322 149.91264 
L 313.907932 147.25152 
L 314.558543 157.896 
L 315.209153 152.57376 
L 315.859763 165.21408 
L 316.510373 164.5488 
L 317.160984 161.2224 
L 317.811594 159.22656 
L 318.462204 160.55712 
L 319.112815 152.57376 
L 319.763425 154.5696 
L 320.414035 169.87104 
L 321.064646 165.87936 
L 321.715256 146.58624 
L 323.016477 171.86688 
L 323.667087 166.54464 
L 324.317697 172.53216 
L 324.968308 172.53216 
L 325.618918 154.5696 
L 326.269528 173.86272 
L 326.920138 176.52384 
L 327.570749 198.47808 
L 328.221359 210.45312 
L 328.871969 217.7712 
L 330.17319 212.44896 
L 330.8238 194.4864 
L 331.474411 184.5072 
L 332.125021 170.53632 
L 332.775631 160.55712 
L 333.426242 161.2224 
L 334.076852 154.5696 
L 334.727462 151.2432 
L 335.378073 158.56128 
L 336.028683 172.53216 
L 336.679293 173.19744 
L 337.329903 189.82944 
L 337.980514 189.82944 
L 338.631124 178.51968 
L 339.281734 182.51136 
L 339.932345 191.82528 
L 340.582955 179.85024 
L 341.233565 174.528 
L 341.884176 175.85856 
L 342.534786 179.85024 
L 343.185396 179.85024 
L 343.836007 181.84608 
L 344.486617 201.1392 
L 345.137227 177.18912 
L 345.787837 177.18912 
L 346.438448 185.83776 
L 347.089058 189.82944 
L 347.739668 191.16 
L 348.390279 189.16416 
L 349.040889 197.8128 
L 349.691499 196.48224 
L 350.34211 181.1808 
L 350.99272 177.18912 
L 351.64333 162.55296 
L 352.293941 155.23488 
L 352.944551 154.5696 
L 353.595161 158.56128 
L 354.245772 164.5488 
L 354.896382 181.1808 
L 355.546992 185.17248 
L 356.197602 186.50304 
L 356.848213 179.18496 
L 357.498823 175.85856 
L 358.149433 167.8752 
L 358.800044 175.85856 
L 359.450654 171.86688 
L 360.101264 186.50304 
L 360.751875 191.16 
L 361.402485 187.8336 
L 362.053095 164.5488 
L 362.703706 165.21408 
L 363.354316 181.1808 
L 364.004926 165.21408 
L 364.655537 163.88352 
L 365.306147 157.23072 
L 365.956757 155.23488 
L 366.607367 145.25568 
L 367.257978 149.91264 
L 367.908588 133.94592 
L 369.209809 139.26816 
L 369.860419 136.60704 
L 370.511029 163.88352 
L 371.16164 175.19328 
L 371.81225 169.20576 
L 372.46286 169.20576 
L 373.113471 169.87104 
L 373.764081 161.88768 
L 374.414691 162.55296 
L 375.065302 169.20576 
L 375.715912 147.25152 
L 376.366522 145.25568 
L 377.017132 147.25152 
L 377.667743 145.25568 
L 378.968963 159.89184 
L 379.619574 159.89184 
L 380.270184 152.57376 
L 380.920794 158.56128 
L 381.571405 157.23072 
L 382.222015 154.5696 
L 382.872625 169.87104 
L 383.523236 158.56128 
L 384.824456 173.86272 
L 385.475066 186.50304 
L 386.125677 177.18912 
L 386.776287 179.18496 
L 387.426897 171.2016 
L 388.077508 174.528 
L 388.728118 191.82528 
L 389.378728 200.47392 
L 390.029339 184.5072 
L 390.679949 185.83776 
L 391.330559 181.1808 
L 392.63178 162.55296 
L 393.28239 177.8544 
L 393.933001 178.51968 
L 394.583611 165.21408 
L 395.234221 147.25152 
L 395.884831 157.896 
L 396.535442 187.8336 
L 397.186052 175.19328 
L 397.836662 175.19328 
L 398.487273 173.86272 
L 398.487273 173.86272 
" style="fill:none;stroke:#1f77b4;stroke-linecap:square;stroke-width:1.5;"/>
   </g>
   <g id="patch_3">
    <path d="M 57.6 307.584 
L 57.6 41.472 
" style="fill:none;stroke:#000000;stroke-linecap:square;stroke-linejoin:miter;stroke-width:0.8;"/>
   </g>
   <g id="patch_4">
    <path d="M 414.72 307.584 
L 414.72 41.472 
" style="fill:none;stroke:#000000;stroke-linecap:square;stroke-linejoin:miter;stroke-width:0.8;"/>
   </g>
   <g id="patch_5">
    <path d="M 57.6 307.584 
L 414.72 307.584 
" style="fill:none;stroke:#000000;stroke-linecap:square;stroke-linejoin:miter;stroke-width:0.8;"/>
   </g>
   <g id="patch_6">
    <path d="M 57.6 41.472 
L 414.72 41.472 
" style="fill:none;stroke:#000000;stroke-linecap:square;stroke-linejoin:miter;stroke-width:0.8;"/>
   </g>
  </g>
 </g>
 <defs>
  <clipPath id="p9cabe91080">
   <rect height="266.112" width="357.12" x="57.6" y="41.472"/>
  </clipPath>
 </defs>
</svg>
