<?xml version="1.0" encoding="utf-8" standalone="no"?>
<!DOCTYPE svg PUBLIC "-//W3C//DTD SVG 1.1//EN"
  "http://www.w3.org/Graphics/SVG/1.1/DTD/svg11.dtd">
<svg height="345.6pt" version="1.1" viewBox="0 0 460.8 345.6" width="460.8pt" xmlns="http://www.w3.org/2000/svg" xmlns:xlink="http://www.w3.org/1999/xlink">
 <metadata>
  <rdf:RDF xmlns:cc="http://creativecommons.org/ns#" xmlns:dc="http://purl.org/dc/elements/1.1/" xmlns:rdf="http://www.w3.org/1999/02/22-rdf-syntax-ns#">
   <cc:Work>
    <dc:type rdf:resource="http://purl.org/dc/dcmitype/StillImage"/>
    <dc:date>2021-05-16T18:16:43.242043</dc:date>
    <dc:format>image/svg+xml</dc:format>
    <dc:creator>
     <cc:Agent>
      <dc:title>Matplotlib v3.4.1, https://matplotlib.org/</dc:title>
     </cc:Agent>
    </dc:creator>
   </cc:Work>
  </rdf:RDF>
 </metadata>
 <defs>
  <style type="text/css">*{stroke-linecap:butt;stroke-linejoin:round;}</style>
 </defs>
 <g id="figure_1">
  <g id="patch_1">
   <path d="M 0 345.6 
L 460.8 345.6 
L 460.8 0 
L 0 0 
z
" style="fill:#ffffff;"/>
  </g>
  <g id="axes_1">
   <g id="patch_2">
    <path d="M 57.6 307.584 
L 414.72 307.584 
L 414.72 41.472 
L 57.6 41.472 
z
" style="fill:#ffffff;"/>
   </g>
   <g id="line2d_1">
    <path clip-path="url(#p98080dafae)" d="M 73.832727 294.627185 
L 80.994225 294.479217 
L 88.155722 294.286699 
L 95.317219 294.020683 
L 102.478717 293.723801 
L 109.640214 293.396339 
L 116.801711 292.916246 
L 123.963209 292.314435 
L 131.124706 291.522217 
L 138.286203 290.29333 
L 145.447701 288.764937 
L 152.609198 286.772418 
L 159.770695 282.818034 
L 166.932193 278.005048 
L 174.09369 266.396992 
L 181.255187 245.261761 
L 188.416684 208.59257 
L 195.578182 158.521235 
L 202.739679 109.418022 
L 209.901176 73.435342 
L 217.062674 68.44066 
L 224.224171 83.118731 
L 231.385668 110.754647 
L 238.547166 139.594544 
L 245.708663 164.381053 
L 252.87016 183.999692 
L 260.031658 205.084018 
L 267.193155 217.087995 
L 274.354652 227.843966 
L 281.51615 237.782022 
L 288.677647 243.096045 
L 295.839144 248.635692 
L 303.000642 252.820151 
L 310.162139 257.580762 
L 317.323636 260.396827 
L 333.556364 267.186488 
L 349.789091 271.128702 
L 366.021818 273.599433 
L 382.254545 276.215493 
L 398.487273 279.342091 
" style="fill:none;stroke:#1f77b4;stroke-linecap:square;stroke-width:1.5;"/>
    <defs>
     <path d="M 0 3 
C 0.795609 3 1.55874 2.683901 2.12132 2.12132 
C 2.683901 1.55874 3 0.795609 3 0 
C 3 -0.795609 2.683901 -1.55874 2.12132 -2.12132 
C 1.55874 -2.683901 0.795609 -3 0 -3 
C -0.795609 -3 -1.55874 -2.683901 -2.12132 -2.12132 
C -2.683901 -1.55874 -3 -0.795609 -3 0 
C -3 0.795609 -2.683901 1.55874 -2.12132 2.12132 
C -1.55874 2.683901 -0.795609 3 0 3 
z
" id="m5faea87c25" style="stroke:#1f77b4;"/>
    </defs>
    <g clip-path="url(#p98080dafae)">
     <use style="fill:#1f77b4;stroke:#1f77b4;" x="73.832727" xlink:href="#m5faea87c25" y="294.627185"/>
     <use style="fill:#1f77b4;stroke:#1f77b4;" x="80.994225" xlink:href="#m5faea87c25" y="294.479217"/>
     <use style="fill:#1f77b4;stroke:#1f77b4;" x="88.155722" xlink:href="#m5faea87c25" y="294.286699"/>
     <use style="fill:#1f77b4;stroke:#1f77b4;" x="95.317219" xlink:href="#m5faea87c25" y="294.020683"/>
     <use style="fill:#1f77b4;stroke:#1f77b4;" x="102.478717" xlink:href="#m5faea87c25" y="293.723801"/>
     <use style="fill:#1f77b4;stroke:#1f77b4;" x="109.640214" xlink:href="#m5faea87c25" y="293.396339"/>
     <use style="fill:#1f77b4;stroke:#1f77b4;" x="116.801711" xlink:href="#m5faea87c25" y="292.916246"/>
     <use style="fill:#1f77b4;stroke:#1f77b4;" x="123.963209" xlink:href="#m5faea87c25" y="292.314435"/>
     <use style="fill:#1f77b4;stroke:#1f77b4;" x="131.124706" xlink:href="#m5faea87c25" y="291.522217"/>
     <use style="fill:#1f77b4;stroke:#1f77b4;" x="138.286203" xlink:href="#m5faea87c25" y="290.29333"/>
     <use style="fill:#1f77b4;stroke:#1f77b4;" x="145.447701" xlink:href="#m5faea87c25" y="288.764937"/>
     <use style="fill:#1f77b4;stroke:#1f77b4;" x="152.609198" xlink:href="#m5faea87c25" y="286.772418"/>
     <use style="fill:#1f77b4;stroke:#1f77b4;" x="159.770695" xlink:href="#m5faea87c25" y="282.818034"/>
     <use style="fill:#1f77b4;stroke:#1f77b4;" x="166.932193" xlink:href="#m5faea87c25" y="278.005048"/>
     <use style="fill:#1f77b4;stroke:#1f77b4;" x="174.09369" xlink:href="#m5faea87c25" y="266.396992"/>
     <use style="fill:#1f77b4;stroke:#1f77b4;" x="181.255187" xlink:href="#m5faea87c25" y="245.261761"/>
     <use style="fill:#1f77b4;stroke:#1f77b4;" x="188.416684" xlink:href="#m5faea87c25" y="208.59257"/>
     <use style="fill:#1f77b4;stroke:#1f77b4;" x="195.578182" xlink:href="#m5faea87c25" y="158.521235"/>
     <use style="fill:#1f77b4;stroke:#1f77b4;" x="202.739679" xlink:href="#m5faea87c25" y="109.418022"/>
     <use style="fill:#1f77b4;stroke:#1f77b4;" x="209.901176" xlink:href="#m5faea87c25" y="73.435342"/>
     <use style="fill:#1f77b4;stroke:#1f77b4;" x="217.062674" xlink:href="#m5faea87c25" y="68.44066"/>
     <use style="fill:#1f77b4;stroke:#1f77b4;" x="224.224171" xlink:href="#m5faea87c25" y="83.118731"/>
     <use style="fill:#1f77b4;stroke:#1f77b4;" x="231.385668" xlink:href="#m5faea87c25" y="110.754647"/>
     <use style="fill:#1f77b4;stroke:#1f77b4;" x="238.547166" xlink:href="#m5faea87c25" y="139.594544"/>
     <use style="fill:#1f77b4;stroke:#1f77b4;" x="245.708663" xlink:href="#m5faea87c25" y="164.381053"/>
     <use style="fill:#1f77b4;stroke:#1f77b4;" x="252.87016" xlink:href="#m5faea87c25" y="183.999692"/>
     <use style="fill:#1f77b4;stroke:#1f77b4;" x="260.031658" xlink:href="#m5faea87c25" y="205.084018"/>
     <use style="fill:#1f77b4;stroke:#1f77b4;" x="267.193155" xlink:href="#m5faea87c25" y="217.087995"/>
     <use style="fill:#1f77b4;stroke:#1f77b4;" x="274.354652" xlink:href="#m5faea87c25" y="227.843966"/>
     <use style="fill:#1f77b4;stroke:#1f77b4;" x="281.51615" xlink:href="#m5faea87c25" y="237.782022"/>
     <use style="fill:#1f77b4;stroke:#1f77b4;" x="288.677647" xlink:href="#m5faea87c25" y="243.096045"/>
     <use style="fill:#1f77b4;stroke:#1f77b4;" x="295.839144" xlink:href="#m5faea87c25" y="248.635692"/>
     <use style="fill:#1f77b4;stroke:#1f77b4;" x="303.000642" xlink:href="#m5faea87c25" y="252.820151"/>
     <use style="fill:#1f77b4;stroke:#1f77b4;" x="310.162139" xlink:href="#m5faea87c25" y="257.580762"/>
     <use style="fill:#1f77b4;stroke:#1f77b4;" x="317.323636" xlink:href="#m5faea87c25" y="260.396827"/>
     <use style="fill:#1f77b4;stroke:#1f77b4;" x="333.556364" xlink:href="#m5faea87c25" y="267.186488"/>
     <use style="fill:#1f77b4;stroke:#1f77b4;" x="349.789091" xlink:href="#m5faea87c25" y="271.128702"/>
     <use style="fill:#1f77b4;stroke:#1f77b4;" x="366.021818" xlink:href="#m5faea87c25" y="273.599433"/>
     <use style="fill:#1f77b4;stroke:#1f77b4;" x="382.254545" xlink:href="#m5faea87c25" y="276.215493"/>
     <use style="fill:#1f77b4;stroke:#1f77b4;" x="398.487273" xlink:href="#m5faea87c25" y="279.342091"/>
    </g>
   </g>
   <g id="matplotlib.axis_1">
    <g id="xtick_1">
     <g id="line2d_2">
      <defs>
       <path d="M 0 0 
L 0 3.5 
" id="mb3a76c9dbe" style="stroke:#000000;stroke-width:0.8;"/>
      </defs>
      <g>
       <use style="stroke:#000000;stroke-width:0.8;" x="73.832727" xlink:href="#mb3a76c9dbe" y="307.584"/>
      </g>
     </g>
     <g id="text_1">
      <!-- 1.50 -->
      <g transform="translate(62.699915 322.182437)scale(0.1 -0.1)">
       <defs>
        <path d="M 794 531 
L 1825 531 
L 1825 4091 
L 703 3866 
L 703 4441 
L 1819 4666 
L 2450 4666 
L 2450 531 
L 3481 531 
L 3481 0 
L 794 0 
L 794 531 
z
" id="DejaVuSans-31" transform="scale(0.015625)"/>
        <path d="M 684 794 
L 1344 794 
L 1344 0 
L 684 0 
L 684 794 
z
" id="DejaVuSans-2e" transform="scale(0.015625)"/>
        <path d="M 691 4666 
L 3169 4666 
L 3169 4134 
L 1269 4134 
L 1269 2991 
Q 1406 3038 1543 3061 
Q 1681 3084 1819 3084 
Q 2600 3084 3056 2656 
Q 3513 2228 3513 1497 
Q 3513 744 3044 326 
Q 2575 -91 1722 -91 
Q 1428 -91 1123 -41 
Q 819 9 494 109 
L 494 744 
Q 775 591 1075 516 
Q 1375 441 1709 441 
Q 2250 441 2565 725 
Q 2881 1009 2881 1497 
Q 2881 1984 2565 2268 
Q 2250 2553 1709 2553 
Q 1456 2553 1204 2497 
Q 953 2441 691 2322 
L 691 4666 
z
" id="DejaVuSans-35" transform="scale(0.015625)"/>
        <path d="M 2034 4250 
Q 1547 4250 1301 3770 
Q 1056 3291 1056 2328 
Q 1056 1369 1301 889 
Q 1547 409 2034 409 
Q 2525 409 2770 889 
Q 3016 1369 3016 2328 
Q 3016 3291 2770 3770 
Q 2525 4250 2034 4250 
z
M 2034 4750 
Q 2819 4750 3233 4129 
Q 3647 3509 3647 2328 
Q 3647 1150 3233 529 
Q 2819 -91 2034 -91 
Q 1250 -91 836 529 
Q 422 1150 422 2328 
Q 422 3509 836 4129 
Q 1250 4750 2034 4750 
z
" id="DejaVuSans-30" transform="scale(0.015625)"/>
       </defs>
       <use xlink:href="#DejaVuSans-31"/>
       <use x="63.623047" xlink:href="#DejaVuSans-2e"/>
       <use x="95.410156" xlink:href="#DejaVuSans-35"/>
       <use x="159.033203" xlink:href="#DejaVuSans-30"/>
      </g>
     </g>
    </g>
    <g id="xtick_2">
     <g id="line2d_3">
      <g>
       <use style="stroke:#000000;stroke-width:0.8;" x="114.414545" xlink:href="#mb3a76c9dbe" y="307.584"/>
      </g>
     </g>
     <g id="text_2">
      <!-- 1.75 -->
      <g transform="translate(103.281733 322.182437)scale(0.1 -0.1)">
       <defs>
        <path d="M 525 4666 
L 3525 4666 
L 3525 4397 
L 1831 0 
L 1172 0 
L 2766 4134 
L 525 4134 
L 525 4666 
z
" id="DejaVuSans-37" transform="scale(0.015625)"/>
       </defs>
       <use xlink:href="#DejaVuSans-31"/>
       <use x="63.623047" xlink:href="#DejaVuSans-2e"/>
       <use x="95.410156" xlink:href="#DejaVuSans-37"/>
       <use x="159.033203" xlink:href="#DejaVuSans-35"/>
      </g>
     </g>
    </g>
    <g id="xtick_3">
     <g id="line2d_4">
      <g>
       <use style="stroke:#000000;stroke-width:0.8;" x="154.996364" xlink:href="#mb3a76c9dbe" y="307.584"/>
      </g>
     </g>
     <g id="text_3">
      <!-- 2.00 -->
      <g transform="translate(143.863551 322.182437)scale(0.1 -0.1)">
       <defs>
        <path d="M 1228 531 
L 3431 531 
L 3431 0 
L 469 0 
L 469 531 
Q 828 903 1448 1529 
Q 2069 2156 2228 2338 
Q 2531 2678 2651 2914 
Q 2772 3150 2772 3378 
Q 2772 3750 2511 3984 
Q 2250 4219 1831 4219 
Q 1534 4219 1204 4116 
Q 875 4013 500 3803 
L 500 4441 
Q 881 4594 1212 4672 
Q 1544 4750 1819 4750 
Q 2544 4750 2975 4387 
Q 3406 4025 3406 3419 
Q 3406 3131 3298 2873 
Q 3191 2616 2906 2266 
Q 2828 2175 2409 1742 
Q 1991 1309 1228 531 
z
" id="DejaVuSans-32" transform="scale(0.015625)"/>
       </defs>
       <use xlink:href="#DejaVuSans-32"/>
       <use x="63.623047" xlink:href="#DejaVuSans-2e"/>
       <use x="95.410156" xlink:href="#DejaVuSans-30"/>
       <use x="159.033203" xlink:href="#DejaVuSans-30"/>
      </g>
     </g>
    </g>
    <g id="xtick_4">
     <g id="line2d_5">
      <g>
       <use style="stroke:#000000;stroke-width:0.8;" x="195.578182" xlink:href="#mb3a76c9dbe" y="307.584"/>
      </g>
     </g>
     <g id="text_4">
      <!-- 2.25 -->
      <g transform="translate(184.445369 322.182437)scale(0.1 -0.1)">
       <use xlink:href="#DejaVuSans-32"/>
       <use x="63.623047" xlink:href="#DejaVuSans-2e"/>
       <use x="95.410156" xlink:href="#DejaVuSans-32"/>
       <use x="159.033203" xlink:href="#DejaVuSans-35"/>
      </g>
     </g>
    </g>
    <g id="xtick_5">
     <g id="line2d_6">
      <g>
       <use style="stroke:#000000;stroke-width:0.8;" x="236.16" xlink:href="#mb3a76c9dbe" y="307.584"/>
      </g>
     </g>
     <g id="text_5">
      <!-- 2.50 -->
      <g transform="translate(225.027187 322.182437)scale(0.1 -0.1)">
       <use xlink:href="#DejaVuSans-32"/>
       <use x="63.623047" xlink:href="#DejaVuSans-2e"/>
       <use x="95.410156" xlink:href="#DejaVuSans-35"/>
       <use x="159.033203" xlink:href="#DejaVuSans-30"/>
      </g>
     </g>
    </g>
    <g id="xtick_6">
     <g id="line2d_7">
      <g>
       <use style="stroke:#000000;stroke-width:0.8;" x="276.741818" xlink:href="#mb3a76c9dbe" y="307.584"/>
      </g>
     </g>
     <g id="text_6">
      <!-- 2.75 -->
      <g transform="translate(265.609006 322.182437)scale(0.1 -0.1)">
       <use xlink:href="#DejaVuSans-32"/>
       <use x="63.623047" xlink:href="#DejaVuSans-2e"/>
       <use x="95.410156" xlink:href="#DejaVuSans-37"/>
       <use x="159.033203" xlink:href="#DejaVuSans-35"/>
      </g>
     </g>
    </g>
    <g id="xtick_7">
     <g id="line2d_8">
      <g>
       <use style="stroke:#000000;stroke-width:0.8;" x="317.323636" xlink:href="#mb3a76c9dbe" y="307.584"/>
      </g>
     </g>
     <g id="text_7">
      <!-- 3.00 -->
      <g transform="translate(306.190824 322.182437)scale(0.1 -0.1)">
       <defs>
        <path d="M 2597 2516 
Q 3050 2419 3304 2112 
Q 3559 1806 3559 1356 
Q 3559 666 3084 287 
Q 2609 -91 1734 -91 
Q 1441 -91 1130 -33 
Q 819 25 488 141 
L 488 750 
Q 750 597 1062 519 
Q 1375 441 1716 441 
Q 2309 441 2620 675 
Q 2931 909 2931 1356 
Q 2931 1769 2642 2001 
Q 2353 2234 1838 2234 
L 1294 2234 
L 1294 2753 
L 1863 2753 
Q 2328 2753 2575 2939 
Q 2822 3125 2822 3475 
Q 2822 3834 2567 4026 
Q 2313 4219 1838 4219 
Q 1578 4219 1281 4162 
Q 984 4106 628 3988 
L 628 4550 
Q 988 4650 1302 4700 
Q 1616 4750 1894 4750 
Q 2613 4750 3031 4423 
Q 3450 4097 3450 3541 
Q 3450 3153 3228 2886 
Q 3006 2619 2597 2516 
z
" id="DejaVuSans-33" transform="scale(0.015625)"/>
       </defs>
       <use xlink:href="#DejaVuSans-33"/>
       <use x="63.623047" xlink:href="#DejaVuSans-2e"/>
       <use x="95.410156" xlink:href="#DejaVuSans-30"/>
       <use x="159.033203" xlink:href="#DejaVuSans-30"/>
      </g>
     </g>
    </g>
    <g id="xtick_8">
     <g id="line2d_9">
      <g>
       <use style="stroke:#000000;stroke-width:0.8;" x="357.905455" xlink:href="#mb3a76c9dbe" y="307.584"/>
      </g>
     </g>
     <g id="text_8">
      <!-- 3.25 -->
      <g transform="translate(346.772642 322.182437)scale(0.1 -0.1)">
       <use xlink:href="#DejaVuSans-33"/>
       <use x="63.623047" xlink:href="#DejaVuSans-2e"/>
       <use x="95.410156" xlink:href="#DejaVuSans-32"/>
       <use x="159.033203" xlink:href="#DejaVuSans-35"/>
      </g>
     </g>
    </g>
    <g id="xtick_9">
     <g id="line2d_10">
      <g>
       <use style="stroke:#000000;stroke-width:0.8;" x="398.487273" xlink:href="#mb3a76c9dbe" y="307.584"/>
      </g>
     </g>
     <g id="text_9">
      <!-- 3.50 -->
      <g transform="translate(387.35446 322.182437)scale(0.1 -0.1)">
       <use xlink:href="#DejaVuSans-33"/>
       <use x="63.623047" xlink:href="#DejaVuSans-2e"/>
       <use x="95.410156" xlink:href="#DejaVuSans-35"/>
       <use x="159.033203" xlink:href="#DejaVuSans-30"/>
      </g>
     </g>
    </g>
    <g id="text_10">
     <!-- Temperature -->
     <g transform="translate(204.490469 335.860562)scale(0.1 -0.1)">
      <defs>
       <path d="M -19 4666 
L 3928 4666 
L 3928 4134 
L 2272 4134 
L 2272 0 
L 1638 0 
L 1638 4134 
L -19 4134 
L -19 4666 
z
" id="DejaVuSans-54" transform="scale(0.015625)"/>
       <path d="M 3597 1894 
L 3597 1613 
L 953 1613 
Q 991 1019 1311 708 
Q 1631 397 2203 397 
Q 2534 397 2845 478 
Q 3156 559 3463 722 
L 3463 178 
Q 3153 47 2828 -22 
Q 2503 -91 2169 -91 
Q 1331 -91 842 396 
Q 353 884 353 1716 
Q 353 2575 817 3079 
Q 1281 3584 2069 3584 
Q 2775 3584 3186 3129 
Q 3597 2675 3597 1894 
z
M 3022 2063 
Q 3016 2534 2758 2815 
Q 2500 3097 2075 3097 
Q 1594 3097 1305 2825 
Q 1016 2553 972 2059 
L 3022 2063 
z
" id="DejaVuSans-65" transform="scale(0.015625)"/>
       <path d="M 3328 2828 
Q 3544 3216 3844 3400 
Q 4144 3584 4550 3584 
Q 5097 3584 5394 3201 
Q 5691 2819 5691 2113 
L 5691 0 
L 5113 0 
L 5113 2094 
Q 5113 2597 4934 2840 
Q 4756 3084 4391 3084 
Q 3944 3084 3684 2787 
Q 3425 2491 3425 1978 
L 3425 0 
L 2847 0 
L 2847 2094 
Q 2847 2600 2669 2842 
Q 2491 3084 2119 3084 
Q 1678 3084 1418 2786 
Q 1159 2488 1159 1978 
L 1159 0 
L 581 0 
L 581 3500 
L 1159 3500 
L 1159 2956 
Q 1356 3278 1631 3431 
Q 1906 3584 2284 3584 
Q 2666 3584 2933 3390 
Q 3200 3197 3328 2828 
z
" id="DejaVuSans-6d" transform="scale(0.015625)"/>
       <path d="M 1159 525 
L 1159 -1331 
L 581 -1331 
L 581 3500 
L 1159 3500 
L 1159 2969 
Q 1341 3281 1617 3432 
Q 1894 3584 2278 3584 
Q 2916 3584 3314 3078 
Q 3713 2572 3713 1747 
Q 3713 922 3314 415 
Q 2916 -91 2278 -91 
Q 1894 -91 1617 61 
Q 1341 213 1159 525 
z
M 3116 1747 
Q 3116 2381 2855 2742 
Q 2594 3103 2138 3103 
Q 1681 3103 1420 2742 
Q 1159 2381 1159 1747 
Q 1159 1113 1420 752 
Q 1681 391 2138 391 
Q 2594 391 2855 752 
Q 3116 1113 3116 1747 
z
" id="DejaVuSans-70" transform="scale(0.015625)"/>
       <path d="M 2631 2963 
Q 2534 3019 2420 3045 
Q 2306 3072 2169 3072 
Q 1681 3072 1420 2755 
Q 1159 2438 1159 1844 
L 1159 0 
L 581 0 
L 581 3500 
L 1159 3500 
L 1159 2956 
Q 1341 3275 1631 3429 
Q 1922 3584 2338 3584 
Q 2397 3584 2469 3576 
Q 2541 3569 2628 3553 
L 2631 2963 
z
" id="DejaVuSans-72" transform="scale(0.015625)"/>
       <path d="M 2194 1759 
Q 1497 1759 1228 1600 
Q 959 1441 959 1056 
Q 959 750 1161 570 
Q 1363 391 1709 391 
Q 2188 391 2477 730 
Q 2766 1069 2766 1631 
L 2766 1759 
L 2194 1759 
z
M 3341 1997 
L 3341 0 
L 2766 0 
L 2766 531 
Q 2569 213 2275 61 
Q 1981 -91 1556 -91 
Q 1019 -91 701 211 
Q 384 513 384 1019 
Q 384 1609 779 1909 
Q 1175 2209 1959 2209 
L 2766 2209 
L 2766 2266 
Q 2766 2663 2505 2880 
Q 2244 3097 1772 3097 
Q 1472 3097 1187 3025 
Q 903 2953 641 2809 
L 641 3341 
Q 956 3463 1253 3523 
Q 1550 3584 1831 3584 
Q 2591 3584 2966 3190 
Q 3341 2797 3341 1997 
z
" id="DejaVuSans-61" transform="scale(0.015625)"/>
       <path d="M 1172 4494 
L 1172 3500 
L 2356 3500 
L 2356 3053 
L 1172 3053 
L 1172 1153 
Q 1172 725 1289 603 
Q 1406 481 1766 481 
L 2356 481 
L 2356 0 
L 1766 0 
Q 1100 0 847 248 
Q 594 497 594 1153 
L 594 3053 
L 172 3053 
L 172 3500 
L 594 3500 
L 594 4494 
L 1172 4494 
z
" id="DejaVuSans-74" transform="scale(0.015625)"/>
       <path d="M 544 1381 
L 544 3500 
L 1119 3500 
L 1119 1403 
Q 1119 906 1312 657 
Q 1506 409 1894 409 
Q 2359 409 2629 706 
Q 2900 1003 2900 1516 
L 2900 3500 
L 3475 3500 
L 3475 0 
L 2900 0 
L 2900 538 
Q 2691 219 2414 64 
Q 2138 -91 1772 -91 
Q 1169 -91 856 284 
Q 544 659 544 1381 
z
M 1991 3584 
L 1991 3584 
z
" id="DejaVuSans-75" transform="scale(0.015625)"/>
      </defs>
      <use xlink:href="#DejaVuSans-54"/>
      <use x="44.083984" xlink:href="#DejaVuSans-65"/>
      <use x="105.607422" xlink:href="#DejaVuSans-6d"/>
      <use x="203.019531" xlink:href="#DejaVuSans-70"/>
      <use x="266.496094" xlink:href="#DejaVuSans-65"/>
      <use x="328.019531" xlink:href="#DejaVuSans-72"/>
      <use x="369.132812" xlink:href="#DejaVuSans-61"/>
      <use x="430.412109" xlink:href="#DejaVuSans-74"/>
      <use x="469.621094" xlink:href="#DejaVuSans-75"/>
      <use x="533" xlink:href="#DejaVuSans-72"/>
      <use x="571.863281" xlink:href="#DejaVuSans-65"/>
     </g>
    </g>
   </g>
   <g id="matplotlib.axis_2">
    <g id="ytick_1">
     <g id="line2d_11">
      <defs>
       <path d="M 0 0 
L -3.5 0 
" id="m7c31a1c18f" style="stroke:#000000;stroke-width:0.8;"/>
      </defs>
      <g>
       <use style="stroke:#000000;stroke-width:0.8;" x="57.6" xlink:href="#m7c31a1c18f" y="295.320213"/>
      </g>
     </g>
     <g id="text_11">
      <!-- 0 -->
      <g transform="translate(44.2375 299.119431)scale(0.1 -0.1)">
       <use xlink:href="#DejaVuSans-30"/>
      </g>
     </g>
    </g>
    <g id="ytick_2">
     <g id="line2d_12">
      <g>
       <use style="stroke:#000000;stroke-width:0.8;" x="57.6" xlink:href="#m7c31a1c18f" y="244.545648"/>
      </g>
     </g>
     <g id="text_12">
      <!-- 2 -->
      <g transform="translate(44.2375 248.344867)scale(0.1 -0.1)">
       <use xlink:href="#DejaVuSans-32"/>
      </g>
     </g>
    </g>
    <g id="ytick_3">
     <g id="line2d_13">
      <g>
       <use style="stroke:#000000;stroke-width:0.8;" x="57.6" xlink:href="#m7c31a1c18f" y="193.771083"/>
      </g>
     </g>
     <g id="text_13">
      <!-- 4 -->
      <g transform="translate(44.2375 197.570302)scale(0.1 -0.1)">
       <defs>
        <path d="M 2419 4116 
L 825 1625 
L 2419 1625 
L 2419 4116 
z
M 2253 4666 
L 3047 4666 
L 3047 1625 
L 3713 1625 
L 3713 1100 
L 3047 1100 
L 3047 0 
L 2419 0 
L 2419 1100 
L 313 1100 
L 313 1709 
L 2253 4666 
z
" id="DejaVuSans-34" transform="scale(0.015625)"/>
       </defs>
       <use xlink:href="#DejaVuSans-34"/>
      </g>
     </g>
    </g>
    <g id="ytick_4">
     <g id="line2d_14">
      <g>
       <use style="stroke:#000000;stroke-width:0.8;" x="57.6" xlink:href="#m7c31a1c18f" y="142.996519"/>
      </g>
     </g>
     <g id="text_14">
      <!-- 6 -->
      <g transform="translate(44.2375 146.795737)scale(0.1 -0.1)">
       <defs>
        <path d="M 2113 2584 
Q 1688 2584 1439 2293 
Q 1191 2003 1191 1497 
Q 1191 994 1439 701 
Q 1688 409 2113 409 
Q 2538 409 2786 701 
Q 3034 994 3034 1497 
Q 3034 2003 2786 2293 
Q 2538 2584 2113 2584 
z
M 3366 4563 
L 3366 3988 
Q 3128 4100 2886 4159 
Q 2644 4219 2406 4219 
Q 1781 4219 1451 3797 
Q 1122 3375 1075 2522 
Q 1259 2794 1537 2939 
Q 1816 3084 2150 3084 
Q 2853 3084 3261 2657 
Q 3669 2231 3669 1497 
Q 3669 778 3244 343 
Q 2819 -91 2113 -91 
Q 1303 -91 875 529 
Q 447 1150 447 2328 
Q 447 3434 972 4092 
Q 1497 4750 2381 4750 
Q 2619 4750 2861 4703 
Q 3103 4656 3366 4563 
z
" id="DejaVuSans-36" transform="scale(0.015625)"/>
       </defs>
       <use xlink:href="#DejaVuSans-36"/>
      </g>
     </g>
    </g>
    <g id="ytick_5">
     <g id="line2d_15">
      <g>
       <use style="stroke:#000000;stroke-width:0.8;" x="57.6" xlink:href="#m7c31a1c18f" y="92.221954"/>
      </g>
     </g>
     <g id="text_15">
      <!-- 8 -->
      <g transform="translate(44.2375 96.021173)scale(0.1 -0.1)">
       <defs>
        <path d="M 2034 2216 
Q 1584 2216 1326 1975 
Q 1069 1734 1069 1313 
Q 1069 891 1326 650 
Q 1584 409 2034 409 
Q 2484 409 2743 651 
Q 3003 894 3003 1313 
Q 3003 1734 2745 1975 
Q 2488 2216 2034 2216 
z
M 1403 2484 
Q 997 2584 770 2862 
Q 544 3141 544 3541 
Q 544 4100 942 4425 
Q 1341 4750 2034 4750 
Q 2731 4750 3128 4425 
Q 3525 4100 3525 3541 
Q 3525 3141 3298 2862 
Q 3072 2584 2669 2484 
Q 3125 2378 3379 2068 
Q 3634 1759 3634 1313 
Q 3634 634 3220 271 
Q 2806 -91 2034 -91 
Q 1263 -91 848 271 
Q 434 634 434 1313 
Q 434 1759 690 2068 
Q 947 2378 1403 2484 
z
M 1172 3481 
Q 1172 3119 1398 2916 
Q 1625 2713 2034 2713 
Q 2441 2713 2670 2916 
Q 2900 3119 2900 3481 
Q 2900 3844 2670 4047 
Q 2441 4250 2034 4250 
Q 1625 4250 1398 4047 
Q 1172 3844 1172 3481 
z
" id="DejaVuSans-38" transform="scale(0.015625)"/>
       </defs>
       <use xlink:href="#DejaVuSans-38"/>
      </g>
     </g>
    </g>
    <g id="text_16">
     <!-- Susceptibility -->
     <g transform="translate(38.157812 208.085813)rotate(-90)scale(0.1 -0.1)">
      <defs>
       <path d="M 3425 4513 
L 3425 3897 
Q 3066 4069 2747 4153 
Q 2428 4238 2131 4238 
Q 1616 4238 1336 4038 
Q 1056 3838 1056 3469 
Q 1056 3159 1242 3001 
Q 1428 2844 1947 2747 
L 2328 2669 
Q 3034 2534 3370 2195 
Q 3706 1856 3706 1288 
Q 3706 609 3251 259 
Q 2797 -91 1919 -91 
Q 1588 -91 1214 -16 
Q 841 59 441 206 
L 441 856 
Q 825 641 1194 531 
Q 1563 422 1919 422 
Q 2459 422 2753 634 
Q 3047 847 3047 1241 
Q 3047 1584 2836 1778 
Q 2625 1972 2144 2069 
L 1759 2144 
Q 1053 2284 737 2584 
Q 422 2884 422 3419 
Q 422 4038 858 4394 
Q 1294 4750 2059 4750 
Q 2388 4750 2728 4690 
Q 3069 4631 3425 4513 
z
" id="DejaVuSans-53" transform="scale(0.015625)"/>
       <path d="M 2834 3397 
L 2834 2853 
Q 2591 2978 2328 3040 
Q 2066 3103 1784 3103 
Q 1356 3103 1142 2972 
Q 928 2841 928 2578 
Q 928 2378 1081 2264 
Q 1234 2150 1697 2047 
L 1894 2003 
Q 2506 1872 2764 1633 
Q 3022 1394 3022 966 
Q 3022 478 2636 193 
Q 2250 -91 1575 -91 
Q 1294 -91 989 -36 
Q 684 19 347 128 
L 347 722 
Q 666 556 975 473 
Q 1284 391 1588 391 
Q 1994 391 2212 530 
Q 2431 669 2431 922 
Q 2431 1156 2273 1281 
Q 2116 1406 1581 1522 
L 1381 1569 
Q 847 1681 609 1914 
Q 372 2147 372 2553 
Q 372 3047 722 3315 
Q 1072 3584 1716 3584 
Q 2034 3584 2315 3537 
Q 2597 3491 2834 3397 
z
" id="DejaVuSans-73" transform="scale(0.015625)"/>
       <path d="M 3122 3366 
L 3122 2828 
Q 2878 2963 2633 3030 
Q 2388 3097 2138 3097 
Q 1578 3097 1268 2742 
Q 959 2388 959 1747 
Q 959 1106 1268 751 
Q 1578 397 2138 397 
Q 2388 397 2633 464 
Q 2878 531 3122 666 
L 3122 134 
Q 2881 22 2623 -34 
Q 2366 -91 2075 -91 
Q 1284 -91 818 406 
Q 353 903 353 1747 
Q 353 2603 823 3093 
Q 1294 3584 2113 3584 
Q 2378 3584 2631 3529 
Q 2884 3475 3122 3366 
z
" id="DejaVuSans-63" transform="scale(0.015625)"/>
       <path d="M 603 3500 
L 1178 3500 
L 1178 0 
L 603 0 
L 603 3500 
z
M 603 4863 
L 1178 4863 
L 1178 4134 
L 603 4134 
L 603 4863 
z
" id="DejaVuSans-69" transform="scale(0.015625)"/>
       <path d="M 3116 1747 
Q 3116 2381 2855 2742 
Q 2594 3103 2138 3103 
Q 1681 3103 1420 2742 
Q 1159 2381 1159 1747 
Q 1159 1113 1420 752 
Q 1681 391 2138 391 
Q 2594 391 2855 752 
Q 3116 1113 3116 1747 
z
M 1159 2969 
Q 1341 3281 1617 3432 
Q 1894 3584 2278 3584 
Q 2916 3584 3314 3078 
Q 3713 2572 3713 1747 
Q 3713 922 3314 415 
Q 2916 -91 2278 -91 
Q 1894 -91 1617 61 
Q 1341 213 1159 525 
L 1159 0 
L 581 0 
L 581 4863 
L 1159 4863 
L 1159 2969 
z
" id="DejaVuSans-62" transform="scale(0.015625)"/>
       <path d="M 603 4863 
L 1178 4863 
L 1178 0 
L 603 0 
L 603 4863 
z
" id="DejaVuSans-6c" transform="scale(0.015625)"/>
       <path d="M 2059 -325 
Q 1816 -950 1584 -1140 
Q 1353 -1331 966 -1331 
L 506 -1331 
L 506 -850 
L 844 -850 
Q 1081 -850 1212 -737 
Q 1344 -625 1503 -206 
L 1606 56 
L 191 3500 
L 800 3500 
L 1894 763 
L 2988 3500 
L 3597 3500 
L 2059 -325 
z
" id="DejaVuSans-79" transform="scale(0.015625)"/>
      </defs>
      <use xlink:href="#DejaVuSans-53"/>
      <use x="63.476562" xlink:href="#DejaVuSans-75"/>
      <use x="126.855469" xlink:href="#DejaVuSans-73"/>
      <use x="178.955078" xlink:href="#DejaVuSans-63"/>
      <use x="233.935547" xlink:href="#DejaVuSans-65"/>
      <use x="295.458984" xlink:href="#DejaVuSans-70"/>
      <use x="358.935547" xlink:href="#DejaVuSans-74"/>
      <use x="398.144531" xlink:href="#DejaVuSans-69"/>
      <use x="425.927734" xlink:href="#DejaVuSans-62"/>
      <use x="489.404297" xlink:href="#DejaVuSans-69"/>
      <use x="517.1875" xlink:href="#DejaVuSans-6c"/>
      <use x="544.970703" xlink:href="#DejaVuSans-69"/>
      <use x="572.753906" xlink:href="#DejaVuSans-74"/>
      <use x="611.962891" xlink:href="#DejaVuSans-79"/>
     </g>
    </g>
   </g>
   <g id="LineCollection_1">
    <path clip-path="url(#p98080dafae)" d="M 73.832727 295.488 
L 73.832727 293.76637 
" style="fill:none;stroke:#ff0000;stroke-width:2;"/>
    <path clip-path="url(#p98080dafae)" d="M 80.994225 295.43662 
L 80.994225 293.521814 
" style="fill:none;stroke:#ff0000;stroke-width:2;"/>
    <path clip-path="url(#p98080dafae)" d="M 88.155722 295.34262 
L 88.155722 293.230778 
" style="fill:none;stroke:#ff0000;stroke-width:2;"/>
    <path clip-path="url(#p98080dafae)" d="M 95.317219 295.225662 
L 95.317219 292.815703 
" style="fill:none;stroke:#ff0000;stroke-width:2;"/>
    <path clip-path="url(#p98080dafae)" d="M 102.478717 295.095132 
L 102.478717 292.352469 
" style="fill:none;stroke:#ff0000;stroke-width:2;"/>
    <path clip-path="url(#p98080dafae)" d="M 109.640214 294.910942 
L 109.640214 291.881735 
" style="fill:none;stroke:#ff0000;stroke-width:2;"/>
    <path clip-path="url(#p98080dafae)" d="M 116.801711 294.642803 
L 116.801711 291.18969 
" style="fill:none;stroke:#ff0000;stroke-width:2;"/>
    <path clip-path="url(#p98080dafae)" d="M 123.963209 294.221495 
L 123.963209 290.407374 
" style="fill:none;stroke:#ff0000;stroke-width:2;"/>
    <path clip-path="url(#p98080dafae)" d="M 131.124706 293.707867 
L 131.124706 289.336567 
" style="fill:none;stroke:#ff0000;stroke-width:2;"/>
    <path clip-path="url(#p98080dafae)" d="M 138.286203 292.921826 
L 138.286203 287.664834 
" style="fill:none;stroke:#ff0000;stroke-width:2;"/>
    <path clip-path="url(#p98080dafae)" d="M 145.447701 291.76211 
L 145.447701 285.767763 
" style="fill:none;stroke:#ff0000;stroke-width:2;"/>
    <path clip-path="url(#p98080dafae)" d="M 152.609198 290.255225 
L 152.609198 283.28961 
" style="fill:none;stroke:#ff0000;stroke-width:2;"/>
    <path clip-path="url(#p98080dafae)" d="M 159.770695 287.190658 
L 159.770695 278.44541 
" style="fill:none;stroke:#ff0000;stroke-width:2;"/>
    <path clip-path="url(#p98080dafae)" d="M 166.932193 283.151028 
L 166.932193 272.859068 
" style="fill:none;stroke:#ff0000;stroke-width:2;"/>
    <path clip-path="url(#p98080dafae)" d="M 174.09369 273.275503 
L 174.09369 259.518481 
" style="fill:none;stroke:#ff0000;stroke-width:2;"/>
    <path clip-path="url(#p98080dafae)" d="M 181.255187 254.497118 
L 181.255187 236.026404 
" style="fill:none;stroke:#ff0000;stroke-width:2;"/>
    <path clip-path="url(#p98080dafae)" d="M 188.416684 221.320661 
L 188.416684 195.864479 
" style="fill:none;stroke:#ff0000;stroke-width:2;"/>
    <path clip-path="url(#p98080dafae)" d="M 195.578182 173.977909 
L 195.578182 143.06456 
" style="fill:none;stroke:#ff0000;stroke-width:2;"/>
    <path clip-path="url(#p98080dafae)" d="M 202.739679 126.535148 
L 202.739679 92.300896 
" style="fill:none;stroke:#ff0000;stroke-width:2;"/>
    <path clip-path="url(#p98080dafae)" d="M 209.901176 90.552703 
L 209.901176 56.317981 
" style="fill:none;stroke:#ff0000;stroke-width:2;"/>
    <path clip-path="url(#p98080dafae)" d="M 217.062674 83.31332 
L 217.062674 53.568 
" style="fill:none;stroke:#ff0000;stroke-width:2;"/>
    <path clip-path="url(#p98080dafae)" d="M 224.224171 96.068187 
L 224.224171 70.169275 
" style="fill:none;stroke:#ff0000;stroke-width:2;"/>
    <path clip-path="url(#p98080dafae)" d="M 231.385668 120.817639 
L 231.385668 100.691654 
" style="fill:none;stroke:#ff0000;stroke-width:2;"/>
    <path clip-path="url(#p98080dafae)" d="M 238.547166 147.823344 
L 238.547166 131.365745 
" style="fill:none;stroke:#ff0000;stroke-width:2;"/>
    <path clip-path="url(#p98080dafae)" d="M 245.708663 170.997878 
L 245.708663 157.764229 
" style="fill:none;stroke:#ff0000;stroke-width:2;"/>
    <path clip-path="url(#p98080dafae)" d="M 252.87016 189.435152 
L 252.87016 178.564232 
" style="fill:none;stroke:#ff0000;stroke-width:2;"/>
    <path clip-path="url(#p98080dafae)" d="M 260.031658 209.573175 
L 260.031658 200.59486 
" style="fill:none;stroke:#ff0000;stroke-width:2;"/>
    <path clip-path="url(#p98080dafae)" d="M 267.193155 221.060186 
L 267.193155 213.115803 
" style="fill:none;stroke:#ff0000;stroke-width:2;"/>
    <path clip-path="url(#p98080dafae)" d="M 274.354652 231.322584 
L 274.354652 224.365348 
" style="fill:none;stroke:#ff0000;stroke-width:2;"/>
    <path clip-path="url(#p98080dafae)" d="M 281.51615 240.805807 
L 281.51615 234.758237 
" style="fill:none;stroke:#ff0000;stroke-width:2;"/>
    <path clip-path="url(#p98080dafae)" d="M 288.677647 245.941897 
L 288.677647 240.250192 
" style="fill:none;stroke:#ff0000;stroke-width:2;"/>
    <path clip-path="url(#p98080dafae)" d="M 295.839144 251.339129 
L 295.839144 245.932255 
" style="fill:none;stroke:#ff0000;stroke-width:2;"/>
    <path clip-path="url(#p98080dafae)" d="M 303.000642 255.367459 
L 303.000642 250.272844 
" style="fill:none;stroke:#ff0000;stroke-width:2;"/>
    <path clip-path="url(#p98080dafae)" d="M 310.162139 259.912695 
L 310.162139 255.248828 
" style="fill:none;stroke:#ff0000;stroke-width:2;"/>
    <path clip-path="url(#p98080dafae)" d="M 317.323636 262.686055 
L 317.323636 258.107599 
" style="fill:none;stroke:#ff0000;stroke-width:2;"/>
    <path clip-path="url(#p98080dafae)" d="M 333.556364 269.14452 
L 333.556364 265.228455 
" style="fill:none;stroke:#ff0000;stroke-width:2;"/>
    <path clip-path="url(#p98080dafae)" d="M 349.789091 272.995883 
L 349.789091 269.261521 
" style="fill:none;stroke:#ff0000;stroke-width:2;"/>
    <path clip-path="url(#p98080dafae)" d="M 366.021818 275.480307 
L 366.021818 271.718558 
" style="fill:none;stroke:#ff0000;stroke-width:2;"/>
    <path clip-path="url(#p98080dafae)" d="M 382.254545 277.851859 
L 382.254545 274.579127 
" style="fill:none;stroke:#ff0000;stroke-width:2;"/>
    <path clip-path="url(#p98080dafae)" d="M 398.487273 280.776469 
L 398.487273 277.907713 
" style="fill:none;stroke:#ff0000;stroke-width:2;"/>
   </g>
   <g id="line2d_16">
    <defs>
     <path d="M 2 0 
L -2 -0 
" id="maddb9866e4" style="stroke:#ff0000;stroke-width:2;"/>
    </defs>
    <g clip-path="url(#p98080dafae)">
     <use style="fill:#ff0000;stroke:#ff0000;stroke-width:2;" x="73.832727" xlink:href="#maddb9866e4" y="295.488"/>
     <use style="fill:#ff0000;stroke:#ff0000;stroke-width:2;" x="80.994225" xlink:href="#maddb9866e4" y="295.43662"/>
     <use style="fill:#ff0000;stroke:#ff0000;stroke-width:2;" x="88.155722" xlink:href="#maddb9866e4" y="295.34262"/>
     <use style="fill:#ff0000;stroke:#ff0000;stroke-width:2;" x="95.317219" xlink:href="#maddb9866e4" y="295.225662"/>
     <use style="fill:#ff0000;stroke:#ff0000;stroke-width:2;" x="102.478717" xlink:href="#maddb9866e4" y="295.095132"/>
     <use style="fill:#ff0000;stroke:#ff0000;stroke-width:2;" x="109.640214" xlink:href="#maddb9866e4" y="294.910942"/>
     <use style="fill:#ff0000;stroke:#ff0000;stroke-width:2;" x="116.801711" xlink:href="#maddb9866e4" y="294.642803"/>
     <use style="fill:#ff0000;stroke:#ff0000;stroke-width:2;" x="123.963209" xlink:href="#maddb9866e4" y="294.221495"/>
     <use style="fill:#ff0000;stroke:#ff0000;stroke-width:2;" x="131.124706" xlink:href="#maddb9866e4" y="293.707867"/>
     <use style="fill:#ff0000;stroke:#ff0000;stroke-width:2;" x="138.286203" xlink:href="#maddb9866e4" y="292.921826"/>
     <use style="fill:#ff0000;stroke:#ff0000;stroke-width:2;" x="145.447701" xlink:href="#maddb9866e4" y="291.76211"/>
     <use style="fill:#ff0000;stroke:#ff0000;stroke-width:2;" x="152.609198" xlink:href="#maddb9866e4" y="290.255225"/>
     <use style="fill:#ff0000;stroke:#ff0000;stroke-width:2;" x="159.770695" xlink:href="#maddb9866e4" y="287.190658"/>
     <use style="fill:#ff0000;stroke:#ff0000;stroke-width:2;" x="166.932193" xlink:href="#maddb9866e4" y="283.151028"/>
     <use style="fill:#ff0000;stroke:#ff0000;stroke-width:2;" x="174.09369" xlink:href="#maddb9866e4" y="273.275503"/>
     <use style="fill:#ff0000;stroke:#ff0000;stroke-width:2;" x="181.255187" xlink:href="#maddb9866e4" y="254.497118"/>
     <use style="fill:#ff0000;stroke:#ff0000;stroke-width:2;" x="188.416684" xlink:href="#maddb9866e4" y="221.320661"/>
     <use style="fill:#ff0000;stroke:#ff0000;stroke-width:2;" x="195.578182" xlink:href="#maddb9866e4" y="173.977909"/>
     <use style="fill:#ff0000;stroke:#ff0000;stroke-width:2;" x="202.739679" xlink:href="#maddb9866e4" y="126.535148"/>
     <use style="fill:#ff0000;stroke:#ff0000;stroke-width:2;" x="209.901176" xlink:href="#maddb9866e4" y="90.552703"/>
     <use style="fill:#ff0000;stroke:#ff0000;stroke-width:2;" x="217.062674" xlink:href="#maddb9866e4" y="83.31332"/>
     <use style="fill:#ff0000;stroke:#ff0000;stroke-width:2;" x="224.224171" xlink:href="#maddb9866e4" y="96.068187"/>
     <use style="fill:#ff0000;stroke:#ff0000;stroke-width:2;" x="231.385668" xlink:href="#maddb9866e4" y="120.817639"/>
     <use style="fill:#ff0000;stroke:#ff0000;stroke-width:2;" x="238.547166" xlink:href="#maddb9866e4" y="147.823344"/>
     <use style="fill:#ff0000;stroke:#ff0000;stroke-width:2;" x="245.708663" xlink:href="#maddb9866e4" y="170.997878"/>
     <use style="fill:#ff0000;stroke:#ff0000;stroke-width:2;" x="252.87016" xlink:href="#maddb9866e4" y="189.435152"/>
     <use style="fill:#ff0000;stroke:#ff0000;stroke-width:2;" x="260.031658" xlink:href="#maddb9866e4" y="209.573175"/>
     <use style="fill:#ff0000;stroke:#ff0000;stroke-width:2;" x="267.193155" xlink:href="#maddb9866e4" y="221.060186"/>
     <use style="fill:#ff0000;stroke:#ff0000;stroke-width:2;" x="274.354652" xlink:href="#maddb9866e4" y="231.322584"/>
     <use style="fill:#ff0000;stroke:#ff0000;stroke-width:2;" x="281.51615" xlink:href="#maddb9866e4" y="240.805807"/>
     <use style="fill:#ff0000;stroke:#ff0000;stroke-width:2;" x="288.677647" xlink:href="#maddb9866e4" y="245.941897"/>
     <use style="fill:#ff0000;stroke:#ff0000;stroke-width:2;" x="295.839144" xlink:href="#maddb9866e4" y="251.339129"/>
     <use style="fill:#ff0000;stroke:#ff0000;stroke-width:2;" x="303.000642" xlink:href="#maddb9866e4" y="255.367459"/>
     <use style="fill:#ff0000;stroke:#ff0000;stroke-width:2;" x="310.162139" xlink:href="#maddb9866e4" y="259.912695"/>
     <use style="fill:#ff0000;stroke:#ff0000;stroke-width:2;" x="317.323636" xlink:href="#maddb9866e4" y="262.686055"/>
     <use style="fill:#ff0000;stroke:#ff0000;stroke-width:2;" x="333.556364" xlink:href="#maddb9866e4" y="269.14452"/>
     <use style="fill:#ff0000;stroke:#ff0000;stroke-width:2;" x="349.789091" xlink:href="#maddb9866e4" y="272.995883"/>
     <use style="fill:#ff0000;stroke:#ff0000;stroke-width:2;" x="366.021818" xlink:href="#maddb9866e4" y="275.480307"/>
     <use style="fill:#ff0000;stroke:#ff0000;stroke-width:2;" x="382.254545" xlink:href="#maddb9866e4" y="277.851859"/>
     <use style="fill:#ff0000;stroke:#ff0000;stroke-width:2;" x="398.487273" xlink:href="#maddb9866e4" y="280.776469"/>
    </g>
   </g>
   <g id="line2d_17">
    <g clip-path="url(#p98080dafae)">
     <use style="fill:#ff0000;stroke:#ff0000;stroke-width:2;" x="73.832727" xlink:href="#maddb9866e4" y="293.76637"/>
     <use style="fill:#ff0000;stroke:#ff0000;stroke-width:2;" x="80.994225" xlink:href="#maddb9866e4" y="293.521814"/>
     <use style="fill:#ff0000;stroke:#ff0000;stroke-width:2;" x="88.155722" xlink:href="#maddb9866e4" y="293.230778"/>
     <use style="fill:#ff0000;stroke:#ff0000;stroke-width:2;" x="95.317219" xlink:href="#maddb9866e4" y="292.815703"/>
     <use style="fill:#ff0000;stroke:#ff0000;stroke-width:2;" x="102.478717" xlink:href="#maddb9866e4" y="292.352469"/>
     <use style="fill:#ff0000;stroke:#ff0000;stroke-width:2;" x="109.640214" xlink:href="#maddb9866e4" y="291.881735"/>
     <use style="fill:#ff0000;stroke:#ff0000;stroke-width:2;" x="116.801711" xlink:href="#maddb9866e4" y="291.18969"/>
     <use style="fill:#ff0000;stroke:#ff0000;stroke-width:2;" x="123.963209" xlink:href="#maddb9866e4" y="290.407374"/>
     <use style="fill:#ff0000;stroke:#ff0000;stroke-width:2;" x="131.124706" xlink:href="#maddb9866e4" y="289.336567"/>
     <use style="fill:#ff0000;stroke:#ff0000;stroke-width:2;" x="138.286203" xlink:href="#maddb9866e4" y="287.664834"/>
     <use style="fill:#ff0000;stroke:#ff0000;stroke-width:2;" x="145.447701" xlink:href="#maddb9866e4" y="285.767763"/>
     <use style="fill:#ff0000;stroke:#ff0000;stroke-width:2;" x="152.609198" xlink:href="#maddb9866e4" y="283.28961"/>
     <use style="fill:#ff0000;stroke:#ff0000;stroke-width:2;" x="159.770695" xlink:href="#maddb9866e4" y="278.44541"/>
     <use style="fill:#ff0000;stroke:#ff0000;stroke-width:2;" x="166.932193" xlink:href="#maddb9866e4" y="272.859068"/>
     <use style="fill:#ff0000;stroke:#ff0000;stroke-width:2;" x="174.09369" xlink:href="#maddb9866e4" y="259.518481"/>
     <use style="fill:#ff0000;stroke:#ff0000;stroke-width:2;" x="181.255187" xlink:href="#maddb9866e4" y="236.026404"/>
     <use style="fill:#ff0000;stroke:#ff0000;stroke-width:2;" x="188.416684" xlink:href="#maddb9866e4" y="195.864479"/>
     <use style="fill:#ff0000;stroke:#ff0000;stroke-width:2;" x="195.578182" xlink:href="#maddb9866e4" y="143.06456"/>
     <use style="fill:#ff0000;stroke:#ff0000;stroke-width:2;" x="202.739679" xlink:href="#maddb9866e4" y="92.300896"/>
     <use style="fill:#ff0000;stroke:#ff0000;stroke-width:2;" x="209.901176" xlink:href="#maddb9866e4" y="56.317981"/>
     <use style="fill:#ff0000;stroke:#ff0000;stroke-width:2;" x="217.062674" xlink:href="#maddb9866e4" y="53.568"/>
     <use style="fill:#ff0000;stroke:#ff0000;stroke-width:2;" x="224.224171" xlink:href="#maddb9866e4" y="70.169275"/>
     <use style="fill:#ff0000;stroke:#ff0000;stroke-width:2;" x="231.385668" xlink:href="#maddb9866e4" y="100.691654"/>
     <use style="fill:#ff0000;stroke:#ff0000;stroke-width:2;" x="238.547166" xlink:href="#maddb9866e4" y="131.365745"/>
     <use style="fill:#ff0000;stroke:#ff0000;stroke-width:2;" x="245.708663" xlink:href="#maddb9866e4" y="157.764229"/>
     <use style="fill:#ff0000;stroke:#ff0000;stroke-width:2;" x="252.87016" xlink:href="#maddb9866e4" y="178.564232"/>
     <use style="fill:#ff0000;stroke:#ff0000;stroke-width:2;" x="260.031658" xlink:href="#maddb9866e4" y="200.59486"/>
     <use style="fill:#ff0000;stroke:#ff0000;stroke-width:2;" x="267.193155" xlink:href="#maddb9866e4" y="213.115803"/>
     <use style="fill:#ff0000;stroke:#ff0000;stroke-width:2;" x="274.354652" xlink:href="#maddb9866e4" y="224.365348"/>
     <use style="fill:#ff0000;stroke:#ff0000;stroke-width:2;" x="281.51615" xlink:href="#maddb9866e4" y="234.758237"/>
     <use style="fill:#ff0000;stroke:#ff0000;stroke-width:2;" x="288.677647" xlink:href="#maddb9866e4" y="240.250192"/>
     <use style="fill:#ff0000;stroke:#ff0000;stroke-width:2;" x="295.839144" xlink:href="#maddb9866e4" y="245.932255"/>
     <use style="fill:#ff0000;stroke:#ff0000;stroke-width:2;" x="303.000642" xlink:href="#maddb9866e4" y="250.272844"/>
     <use style="fill:#ff0000;stroke:#ff0000;stroke-width:2;" x="310.162139" xlink:href="#maddb9866e4" y="255.248828"/>
     <use style="fill:#ff0000;stroke:#ff0000;stroke-width:2;" x="317.323636" xlink:href="#maddb9866e4" y="258.107599"/>
     <use style="fill:#ff0000;stroke:#ff0000;stroke-width:2;" x="333.556364" xlink:href="#maddb9866e4" y="265.228455"/>
     <use style="fill:#ff0000;stroke:#ff0000;stroke-width:2;" x="349.789091" xlink:href="#maddb9866e4" y="269.261521"/>
     <use style="fill:#ff0000;stroke:#ff0000;stroke-width:2;" x="366.021818" xlink:href="#maddb9866e4" y="271.718558"/>
     <use style="fill:#ff0000;stroke:#ff0000;stroke-width:2;" x="382.254545" xlink:href="#maddb9866e4" y="274.579127"/>
     <use style="fill:#ff0000;stroke:#ff0000;stroke-width:2;" x="398.487273" xlink:href="#maddb9866e4" y="277.907713"/>
    </g>
   </g>
   <g id="patch_3">
    <path d="M 57.6 307.584 
L 57.6 41.472 
" style="fill:none;stroke:#000000;stroke-linecap:square;stroke-linejoin:miter;stroke-width:0.8;"/>
   </g>
   <g id="patch_4">
    <path d="M 414.72 307.584 
L 414.72 41.472 
" style="fill:none;stroke:#000000;stroke-linecap:square;stroke-linejoin:miter;stroke-width:0.8;"/>
   </g>
   <g id="patch_5">
    <path d="M 57.6 307.584 
L 414.72 307.584 
" style="fill:none;stroke:#000000;stroke-linecap:square;stroke-linejoin:miter;stroke-width:0.8;"/>
   </g>
   <g id="patch_6">
    <path d="M 57.6 41.472 
L 414.72 41.472 
" style="fill:none;stroke:#000000;stroke-linecap:square;stroke-linejoin:miter;stroke-width:0.8;"/>
   </g>
  </g>
 </g>
 <defs>
  <clipPath id="p98080dafae">
   <rect height="266.112" width="357.12" x="57.6" y="41.472"/>
  </clipPath>
 </defs>
</svg>
