<?xml version="1.0" encoding="utf-8" standalone="no"?>
<!DOCTYPE svg PUBLIC "-//W3C//DTD SVG 1.1//EN"
  "http://www.w3.org/Graphics/SVG/1.1/DTD/svg11.dtd">
<svg height="345.6pt" version="1.1" viewBox="0 0 460.8 345.6" width="460.8pt" xmlns="http://www.w3.org/2000/svg" xmlns:xlink="http://www.w3.org/1999/xlink">
 <metadata>
  <rdf:RDF xmlns:cc="http://creativecommons.org/ns#" xmlns:dc="http://purl.org/dc/elements/1.1/" xmlns:rdf="http://www.w3.org/1999/02/22-rdf-syntax-ns#">
   <cc:Work>
    <dc:type rdf:resource="http://purl.org/dc/dcmitype/StillImage"/>
    <dc:date>2021-05-16T18:16:41.714140</dc:date>
    <dc:format>image/svg+xml</dc:format>
    <dc:creator>
     <cc:Agent>
      <dc:title>Matplotlib v3.4.1, https://matplotlib.org/</dc:title>
     </cc:Agent>
    </dc:creator>
   </cc:Work>
  </rdf:RDF>
 </metadata>
 <defs>
  <style type="text/css">*{stroke-linecap:butt;stroke-linejoin:round;}</style>
 </defs>
 <g id="figure_1">
  <g id="patch_1">
   <path d="M 0 345.6 
L 460.8 345.6 
L 460.8 0 
L 0 0 
z
" style="fill:#ffffff;"/>
  </g>
  <g id="axes_1">
   <g id="patch_2">
    <path d="M 57.6 307.584 
L 414.72 307.584 
L 414.72 41.472 
L 57.6 41.472 
z
" style="fill:#ffffff;"/>
   </g>
   <g id="line2d_1">
    <path clip-path="url(#pca96f23222)" d="M 73.832727 276.033156 
L 80.994225 273.18677 
L 88.155722 269.844159 
L 95.317219 265.988153 
L 102.478717 262.412397 
L 109.640214 258.461105 
L 116.801711 253.478309 
L 123.963209 248.7248 
L 131.124706 244.067339 
L 138.286203 235.890078 
L 145.447701 228.759443 
L 152.609198 221.969258 
L 159.770695 211.226189 
L 166.932193 202.665353 
L 174.09369 185.688144 
L 181.255187 168.918025 
L 188.416684 144.601227 
L 195.578182 124.170456 
L 202.739679 114.949806 
L 209.901176 118.733997 
L 217.062674 142.481021 
L 224.224171 153.663277 
L 231.385668 176.921403 
L 238.547166 190.494216 
L 245.708663 206.797339 
L 252.87016 216.061149 
L 260.031658 227.221606 
L 267.193155 229.426671 
L 274.354652 234.293397 
L 281.51615 240.943489 
L 288.677647 244.163551 
L 295.839144 245.483609 
L 303.000642 245.475219 
L 310.162139 251.109205 
L 317.323636 252.350511 
L 333.556364 260.872224 
L 349.789091 262.500165 
L 366.021818 266.890014 
L 382.254545 268.555265 
L 398.487273 270.336982 
" style="fill:none;stroke:#1f77b4;stroke-linecap:square;stroke-width:1.5;"/>
    <defs>
     <path d="M 0 3 
C 0.795609 3 1.55874 2.683901 2.12132 2.12132 
C 2.683901 1.55874 3 0.795609 3 0 
C 3 -0.795609 2.683901 -1.55874 2.12132 -2.12132 
C 1.55874 -2.683901 0.795609 -3 0 -3 
C -0.795609 -3 -1.55874 -2.683901 -2.12132 -2.12132 
C -2.683901 -1.55874 -3 -0.795609 -3 0 
C -3 0.795609 -2.683901 1.55874 -2.12132 2.12132 
C -1.55874 2.683901 -0.795609 3 0 3 
z
" id="mb2fce71350" style="stroke:#1f77b4;"/>
    </defs>
    <g clip-path="url(#pca96f23222)">
     <use style="fill:#1f77b4;stroke:#1f77b4;" x="73.832727" xlink:href="#mb2fce71350" y="276.033156"/>
     <use style="fill:#1f77b4;stroke:#1f77b4;" x="80.994225" xlink:href="#mb2fce71350" y="273.18677"/>
     <use style="fill:#1f77b4;stroke:#1f77b4;" x="88.155722" xlink:href="#mb2fce71350" y="269.844159"/>
     <use style="fill:#1f77b4;stroke:#1f77b4;" x="95.317219" xlink:href="#mb2fce71350" y="265.988153"/>
     <use style="fill:#1f77b4;stroke:#1f77b4;" x="102.478717" xlink:href="#mb2fce71350" y="262.412397"/>
     <use style="fill:#1f77b4;stroke:#1f77b4;" x="109.640214" xlink:href="#mb2fce71350" y="258.461105"/>
     <use style="fill:#1f77b4;stroke:#1f77b4;" x="116.801711" xlink:href="#mb2fce71350" y="253.478309"/>
     <use style="fill:#1f77b4;stroke:#1f77b4;" x="123.963209" xlink:href="#mb2fce71350" y="248.7248"/>
     <use style="fill:#1f77b4;stroke:#1f77b4;" x="131.124706" xlink:href="#mb2fce71350" y="244.067339"/>
     <use style="fill:#1f77b4;stroke:#1f77b4;" x="138.286203" xlink:href="#mb2fce71350" y="235.890078"/>
     <use style="fill:#1f77b4;stroke:#1f77b4;" x="145.447701" xlink:href="#mb2fce71350" y="228.759443"/>
     <use style="fill:#1f77b4;stroke:#1f77b4;" x="152.609198" xlink:href="#mb2fce71350" y="221.969258"/>
     <use style="fill:#1f77b4;stroke:#1f77b4;" x="159.770695" xlink:href="#mb2fce71350" y="211.226189"/>
     <use style="fill:#1f77b4;stroke:#1f77b4;" x="166.932193" xlink:href="#mb2fce71350" y="202.665353"/>
     <use style="fill:#1f77b4;stroke:#1f77b4;" x="174.09369" xlink:href="#mb2fce71350" y="185.688144"/>
     <use style="fill:#1f77b4;stroke:#1f77b4;" x="181.255187" xlink:href="#mb2fce71350" y="168.918025"/>
     <use style="fill:#1f77b4;stroke:#1f77b4;" x="188.416684" xlink:href="#mb2fce71350" y="144.601227"/>
     <use style="fill:#1f77b4;stroke:#1f77b4;" x="195.578182" xlink:href="#mb2fce71350" y="124.170456"/>
     <use style="fill:#1f77b4;stroke:#1f77b4;" x="202.739679" xlink:href="#mb2fce71350" y="114.949806"/>
     <use style="fill:#1f77b4;stroke:#1f77b4;" x="209.901176" xlink:href="#mb2fce71350" y="118.733997"/>
     <use style="fill:#1f77b4;stroke:#1f77b4;" x="217.062674" xlink:href="#mb2fce71350" y="142.481021"/>
     <use style="fill:#1f77b4;stroke:#1f77b4;" x="224.224171" xlink:href="#mb2fce71350" y="153.663277"/>
     <use style="fill:#1f77b4;stroke:#1f77b4;" x="231.385668" xlink:href="#mb2fce71350" y="176.921403"/>
     <use style="fill:#1f77b4;stroke:#1f77b4;" x="238.547166" xlink:href="#mb2fce71350" y="190.494216"/>
     <use style="fill:#1f77b4;stroke:#1f77b4;" x="245.708663" xlink:href="#mb2fce71350" y="206.797339"/>
     <use style="fill:#1f77b4;stroke:#1f77b4;" x="252.87016" xlink:href="#mb2fce71350" y="216.061149"/>
     <use style="fill:#1f77b4;stroke:#1f77b4;" x="260.031658" xlink:href="#mb2fce71350" y="227.221606"/>
     <use style="fill:#1f77b4;stroke:#1f77b4;" x="267.193155" xlink:href="#mb2fce71350" y="229.426671"/>
     <use style="fill:#1f77b4;stroke:#1f77b4;" x="274.354652" xlink:href="#mb2fce71350" y="234.293397"/>
     <use style="fill:#1f77b4;stroke:#1f77b4;" x="281.51615" xlink:href="#mb2fce71350" y="240.943489"/>
     <use style="fill:#1f77b4;stroke:#1f77b4;" x="288.677647" xlink:href="#mb2fce71350" y="244.163551"/>
     <use style="fill:#1f77b4;stroke:#1f77b4;" x="295.839144" xlink:href="#mb2fce71350" y="245.483609"/>
     <use style="fill:#1f77b4;stroke:#1f77b4;" x="303.000642" xlink:href="#mb2fce71350" y="245.475219"/>
     <use style="fill:#1f77b4;stroke:#1f77b4;" x="310.162139" xlink:href="#mb2fce71350" y="251.109205"/>
     <use style="fill:#1f77b4;stroke:#1f77b4;" x="317.323636" xlink:href="#mb2fce71350" y="252.350511"/>
     <use style="fill:#1f77b4;stroke:#1f77b4;" x="333.556364" xlink:href="#mb2fce71350" y="260.872224"/>
     <use style="fill:#1f77b4;stroke:#1f77b4;" x="349.789091" xlink:href="#mb2fce71350" y="262.500165"/>
     <use style="fill:#1f77b4;stroke:#1f77b4;" x="366.021818" xlink:href="#mb2fce71350" y="266.890014"/>
     <use style="fill:#1f77b4;stroke:#1f77b4;" x="382.254545" xlink:href="#mb2fce71350" y="268.555265"/>
     <use style="fill:#1f77b4;stroke:#1f77b4;" x="398.487273" xlink:href="#mb2fce71350" y="270.336982"/>
    </g>
   </g>
   <g id="matplotlib.axis_1">
    <g id="xtick_1">
     <g id="line2d_2">
      <defs>
       <path d="M 0 0 
L 0 3.5 
" id="mc0c2c6783a" style="stroke:#000000;stroke-width:0.8;"/>
      </defs>
      <g>
       <use style="stroke:#000000;stroke-width:0.8;" x="73.832727" xlink:href="#mc0c2c6783a" y="307.584"/>
      </g>
     </g>
     <g id="text_1">
      <!-- 1.50 -->
      <g transform="translate(62.699915 322.182437)scale(0.1 -0.1)">
       <defs>
        <path d="M 794 531 
L 1825 531 
L 1825 4091 
L 703 3866 
L 703 4441 
L 1819 4666 
L 2450 4666 
L 2450 531 
L 3481 531 
L 3481 0 
L 794 0 
L 794 531 
z
" id="DejaVuSans-31" transform="scale(0.015625)"/>
        <path d="M 684 794 
L 1344 794 
L 1344 0 
L 684 0 
L 684 794 
z
" id="DejaVuSans-2e" transform="scale(0.015625)"/>
        <path d="M 691 4666 
L 3169 4666 
L 3169 4134 
L 1269 4134 
L 1269 2991 
Q 1406 3038 1543 3061 
Q 1681 3084 1819 3084 
Q 2600 3084 3056 2656 
Q 3513 2228 3513 1497 
Q 3513 744 3044 326 
Q 2575 -91 1722 -91 
Q 1428 -91 1123 -41 
Q 819 9 494 109 
L 494 744 
Q 775 591 1075 516 
Q 1375 441 1709 441 
Q 2250 441 2565 725 
Q 2881 1009 2881 1497 
Q 2881 1984 2565 2268 
Q 2250 2553 1709 2553 
Q 1456 2553 1204 2497 
Q 953 2441 691 2322 
L 691 4666 
z
" id="DejaVuSans-35" transform="scale(0.015625)"/>
        <path d="M 2034 4250 
Q 1547 4250 1301 3770 
Q 1056 3291 1056 2328 
Q 1056 1369 1301 889 
Q 1547 409 2034 409 
Q 2525 409 2770 889 
Q 3016 1369 3016 2328 
Q 3016 3291 2770 3770 
Q 2525 4250 2034 4250 
z
M 2034 4750 
Q 2819 4750 3233 4129 
Q 3647 3509 3647 2328 
Q 3647 1150 3233 529 
Q 2819 -91 2034 -91 
Q 1250 -91 836 529 
Q 422 1150 422 2328 
Q 422 3509 836 4129 
Q 1250 4750 2034 4750 
z
" id="DejaVuSans-30" transform="scale(0.015625)"/>
       </defs>
       <use xlink:href="#DejaVuSans-31"/>
       <use x="63.623047" xlink:href="#DejaVuSans-2e"/>
       <use x="95.410156" xlink:href="#DejaVuSans-35"/>
       <use x="159.033203" xlink:href="#DejaVuSans-30"/>
      </g>
     </g>
    </g>
    <g id="xtick_2">
     <g id="line2d_3">
      <g>
       <use style="stroke:#000000;stroke-width:0.8;" x="114.414545" xlink:href="#mc0c2c6783a" y="307.584"/>
      </g>
     </g>
     <g id="text_2">
      <!-- 1.75 -->
      <g transform="translate(103.281733 322.182437)scale(0.1 -0.1)">
       <defs>
        <path d="M 525 4666 
L 3525 4666 
L 3525 4397 
L 1831 0 
L 1172 0 
L 2766 4134 
L 525 4134 
L 525 4666 
z
" id="DejaVuSans-37" transform="scale(0.015625)"/>
       </defs>
       <use xlink:href="#DejaVuSans-31"/>
       <use x="63.623047" xlink:href="#DejaVuSans-2e"/>
       <use x="95.410156" xlink:href="#DejaVuSans-37"/>
       <use x="159.033203" xlink:href="#DejaVuSans-35"/>
      </g>
     </g>
    </g>
    <g id="xtick_3">
     <g id="line2d_4">
      <g>
       <use style="stroke:#000000;stroke-width:0.8;" x="154.996364" xlink:href="#mc0c2c6783a" y="307.584"/>
      </g>
     </g>
     <g id="text_3">
      <!-- 2.00 -->
      <g transform="translate(143.863551 322.182437)scale(0.1 -0.1)">
       <defs>
        <path d="M 1228 531 
L 3431 531 
L 3431 0 
L 469 0 
L 469 531 
Q 828 903 1448 1529 
Q 2069 2156 2228 2338 
Q 2531 2678 2651 2914 
Q 2772 3150 2772 3378 
Q 2772 3750 2511 3984 
Q 2250 4219 1831 4219 
Q 1534 4219 1204 4116 
Q 875 4013 500 3803 
L 500 4441 
Q 881 4594 1212 4672 
Q 1544 4750 1819 4750 
Q 2544 4750 2975 4387 
Q 3406 4025 3406 3419 
Q 3406 3131 3298 2873 
Q 3191 2616 2906 2266 
Q 2828 2175 2409 1742 
Q 1991 1309 1228 531 
z
" id="DejaVuSans-32" transform="scale(0.015625)"/>
       </defs>
       <use xlink:href="#DejaVuSans-32"/>
       <use x="63.623047" xlink:href="#DejaVuSans-2e"/>
       <use x="95.410156" xlink:href="#DejaVuSans-30"/>
       <use x="159.033203" xlink:href="#DejaVuSans-30"/>
      </g>
     </g>
    </g>
    <g id="xtick_4">
     <g id="line2d_5">
      <g>
       <use style="stroke:#000000;stroke-width:0.8;" x="195.578182" xlink:href="#mc0c2c6783a" y="307.584"/>
      </g>
     </g>
     <g id="text_4">
      <!-- 2.25 -->
      <g transform="translate(184.445369 322.182437)scale(0.1 -0.1)">
       <use xlink:href="#DejaVuSans-32"/>
       <use x="63.623047" xlink:href="#DejaVuSans-2e"/>
       <use x="95.410156" xlink:href="#DejaVuSans-32"/>
       <use x="159.033203" xlink:href="#DejaVuSans-35"/>
      </g>
     </g>
    </g>
    <g id="xtick_5">
     <g id="line2d_6">
      <g>
       <use style="stroke:#000000;stroke-width:0.8;" x="236.16" xlink:href="#mc0c2c6783a" y="307.584"/>
      </g>
     </g>
     <g id="text_5">
      <!-- 2.50 -->
      <g transform="translate(225.027187 322.182437)scale(0.1 -0.1)">
       <use xlink:href="#DejaVuSans-32"/>
       <use x="63.623047" xlink:href="#DejaVuSans-2e"/>
       <use x="95.410156" xlink:href="#DejaVuSans-35"/>
       <use x="159.033203" xlink:href="#DejaVuSans-30"/>
      </g>
     </g>
    </g>
    <g id="xtick_6">
     <g id="line2d_7">
      <g>
       <use style="stroke:#000000;stroke-width:0.8;" x="276.741818" xlink:href="#mc0c2c6783a" y="307.584"/>
      </g>
     </g>
     <g id="text_6">
      <!-- 2.75 -->
      <g transform="translate(265.609006 322.182437)scale(0.1 -0.1)">
       <use xlink:href="#DejaVuSans-32"/>
       <use x="63.623047" xlink:href="#DejaVuSans-2e"/>
       <use x="95.410156" xlink:href="#DejaVuSans-37"/>
       <use x="159.033203" xlink:href="#DejaVuSans-35"/>
      </g>
     </g>
    </g>
    <g id="xtick_7">
     <g id="line2d_8">
      <g>
       <use style="stroke:#000000;stroke-width:0.8;" x="317.323636" xlink:href="#mc0c2c6783a" y="307.584"/>
      </g>
     </g>
     <g id="text_7">
      <!-- 3.00 -->
      <g transform="translate(306.190824 322.182437)scale(0.1 -0.1)">
       <defs>
        <path d="M 2597 2516 
Q 3050 2419 3304 2112 
Q 3559 1806 3559 1356 
Q 3559 666 3084 287 
Q 2609 -91 1734 -91 
Q 1441 -91 1130 -33 
Q 819 25 488 141 
L 488 750 
Q 750 597 1062 519 
Q 1375 441 1716 441 
Q 2309 441 2620 675 
Q 2931 909 2931 1356 
Q 2931 1769 2642 2001 
Q 2353 2234 1838 2234 
L 1294 2234 
L 1294 2753 
L 1863 2753 
Q 2328 2753 2575 2939 
Q 2822 3125 2822 3475 
Q 2822 3834 2567 4026 
Q 2313 4219 1838 4219 
Q 1578 4219 1281 4162 
Q 984 4106 628 3988 
L 628 4550 
Q 988 4650 1302 4700 
Q 1616 4750 1894 4750 
Q 2613 4750 3031 4423 
Q 3450 4097 3450 3541 
Q 3450 3153 3228 2886 
Q 3006 2619 2597 2516 
z
" id="DejaVuSans-33" transform="scale(0.015625)"/>
       </defs>
       <use xlink:href="#DejaVuSans-33"/>
       <use x="63.623047" xlink:href="#DejaVuSans-2e"/>
       <use x="95.410156" xlink:href="#DejaVuSans-30"/>
       <use x="159.033203" xlink:href="#DejaVuSans-30"/>
      </g>
     </g>
    </g>
    <g id="xtick_8">
     <g id="line2d_9">
      <g>
       <use style="stroke:#000000;stroke-width:0.8;" x="357.905455" xlink:href="#mc0c2c6783a" y="307.584"/>
      </g>
     </g>
     <g id="text_8">
      <!-- 3.25 -->
      <g transform="translate(346.772642 322.182437)scale(0.1 -0.1)">
       <use xlink:href="#DejaVuSans-33"/>
       <use x="63.623047" xlink:href="#DejaVuSans-2e"/>
       <use x="95.410156" xlink:href="#DejaVuSans-32"/>
       <use x="159.033203" xlink:href="#DejaVuSans-35"/>
      </g>
     </g>
    </g>
    <g id="xtick_9">
     <g id="line2d_10">
      <g>
       <use style="stroke:#000000;stroke-width:0.8;" x="398.487273" xlink:href="#mc0c2c6783a" y="307.584"/>
      </g>
     </g>
     <g id="text_9">
      <!-- 3.50 -->
      <g transform="translate(387.35446 322.182437)scale(0.1 -0.1)">
       <use xlink:href="#DejaVuSans-33"/>
       <use x="63.623047" xlink:href="#DejaVuSans-2e"/>
       <use x="95.410156" xlink:href="#DejaVuSans-35"/>
       <use x="159.033203" xlink:href="#DejaVuSans-30"/>
      </g>
     </g>
    </g>
    <g id="text_10">
     <!-- Temperature -->
     <g transform="translate(204.490469 335.860562)scale(0.1 -0.1)">
      <defs>
       <path d="M -19 4666 
L 3928 4666 
L 3928 4134 
L 2272 4134 
L 2272 0 
L 1638 0 
L 1638 4134 
L -19 4134 
L -19 4666 
z
" id="DejaVuSans-54" transform="scale(0.015625)"/>
       <path d="M 3597 1894 
L 3597 1613 
L 953 1613 
Q 991 1019 1311 708 
Q 1631 397 2203 397 
Q 2534 397 2845 478 
Q 3156 559 3463 722 
L 3463 178 
Q 3153 47 2828 -22 
Q 2503 -91 2169 -91 
Q 1331 -91 842 396 
Q 353 884 353 1716 
Q 353 2575 817 3079 
Q 1281 3584 2069 3584 
Q 2775 3584 3186 3129 
Q 3597 2675 3597 1894 
z
M 3022 2063 
Q 3016 2534 2758 2815 
Q 2500 3097 2075 3097 
Q 1594 3097 1305 2825 
Q 1016 2553 972 2059 
L 3022 2063 
z
" id="DejaVuSans-65" transform="scale(0.015625)"/>
       <path d="M 3328 2828 
Q 3544 3216 3844 3400 
Q 4144 3584 4550 3584 
Q 5097 3584 5394 3201 
Q 5691 2819 5691 2113 
L 5691 0 
L 5113 0 
L 5113 2094 
Q 5113 2597 4934 2840 
Q 4756 3084 4391 3084 
Q 3944 3084 3684 2787 
Q 3425 2491 3425 1978 
L 3425 0 
L 2847 0 
L 2847 2094 
Q 2847 2600 2669 2842 
Q 2491 3084 2119 3084 
Q 1678 3084 1418 2786 
Q 1159 2488 1159 1978 
L 1159 0 
L 581 0 
L 581 3500 
L 1159 3500 
L 1159 2956 
Q 1356 3278 1631 3431 
Q 1906 3584 2284 3584 
Q 2666 3584 2933 3390 
Q 3200 3197 3328 2828 
z
" id="DejaVuSans-6d" transform="scale(0.015625)"/>
       <path d="M 1159 525 
L 1159 -1331 
L 581 -1331 
L 581 3500 
L 1159 3500 
L 1159 2969 
Q 1341 3281 1617 3432 
Q 1894 3584 2278 3584 
Q 2916 3584 3314 3078 
Q 3713 2572 3713 1747 
Q 3713 922 3314 415 
Q 2916 -91 2278 -91 
Q 1894 -91 1617 61 
Q 1341 213 1159 525 
z
M 3116 1747 
Q 3116 2381 2855 2742 
Q 2594 3103 2138 3103 
Q 1681 3103 1420 2742 
Q 1159 2381 1159 1747 
Q 1159 1113 1420 752 
Q 1681 391 2138 391 
Q 2594 391 2855 752 
Q 3116 1113 3116 1747 
z
" id="DejaVuSans-70" transform="scale(0.015625)"/>
       <path d="M 2631 2963 
Q 2534 3019 2420 3045 
Q 2306 3072 2169 3072 
Q 1681 3072 1420 2755 
Q 1159 2438 1159 1844 
L 1159 0 
L 581 0 
L 581 3500 
L 1159 3500 
L 1159 2956 
Q 1341 3275 1631 3429 
Q 1922 3584 2338 3584 
Q 2397 3584 2469 3576 
Q 2541 3569 2628 3553 
L 2631 2963 
z
" id="DejaVuSans-72" transform="scale(0.015625)"/>
       <path d="M 2194 1759 
Q 1497 1759 1228 1600 
Q 959 1441 959 1056 
Q 959 750 1161 570 
Q 1363 391 1709 391 
Q 2188 391 2477 730 
Q 2766 1069 2766 1631 
L 2766 1759 
L 2194 1759 
z
M 3341 1997 
L 3341 0 
L 2766 0 
L 2766 531 
Q 2569 213 2275 61 
Q 1981 -91 1556 -91 
Q 1019 -91 701 211 
Q 384 513 384 1019 
Q 384 1609 779 1909 
Q 1175 2209 1959 2209 
L 2766 2209 
L 2766 2266 
Q 2766 2663 2505 2880 
Q 2244 3097 1772 3097 
Q 1472 3097 1187 3025 
Q 903 2953 641 2809 
L 641 3341 
Q 956 3463 1253 3523 
Q 1550 3584 1831 3584 
Q 2591 3584 2966 3190 
Q 3341 2797 3341 1997 
z
" id="DejaVuSans-61" transform="scale(0.015625)"/>
       <path d="M 1172 4494 
L 1172 3500 
L 2356 3500 
L 2356 3053 
L 1172 3053 
L 1172 1153 
Q 1172 725 1289 603 
Q 1406 481 1766 481 
L 2356 481 
L 2356 0 
L 1766 0 
Q 1100 0 847 248 
Q 594 497 594 1153 
L 594 3053 
L 172 3053 
L 172 3500 
L 594 3500 
L 594 4494 
L 1172 4494 
z
" id="DejaVuSans-74" transform="scale(0.015625)"/>
       <path d="M 544 1381 
L 544 3500 
L 1119 3500 
L 1119 1403 
Q 1119 906 1312 657 
Q 1506 409 1894 409 
Q 2359 409 2629 706 
Q 2900 1003 2900 1516 
L 2900 3500 
L 3475 3500 
L 3475 0 
L 2900 0 
L 2900 538 
Q 2691 219 2414 64 
Q 2138 -91 1772 -91 
Q 1169 -91 856 284 
Q 544 659 544 1381 
z
M 1991 3584 
L 1991 3584 
z
" id="DejaVuSans-75" transform="scale(0.015625)"/>
      </defs>
      <use xlink:href="#DejaVuSans-54"/>
      <use x="44.083984" xlink:href="#DejaVuSans-65"/>
      <use x="105.607422" xlink:href="#DejaVuSans-6d"/>
      <use x="203.019531" xlink:href="#DejaVuSans-70"/>
      <use x="266.496094" xlink:href="#DejaVuSans-65"/>
      <use x="328.019531" xlink:href="#DejaVuSans-72"/>
      <use x="369.132812" xlink:href="#DejaVuSans-61"/>
      <use x="430.412109" xlink:href="#DejaVuSans-74"/>
      <use x="469.621094" xlink:href="#DejaVuSans-75"/>
      <use x="533" xlink:href="#DejaVuSans-72"/>
      <use x="571.863281" xlink:href="#DejaVuSans-65"/>
     </g>
    </g>
   </g>
   <g id="matplotlib.axis_2">
    <g id="ytick_1">
     <g id="line2d_11">
      <defs>
       <path d="M 0 0 
L -3.5 0 
" id="m67c2aa912f" style="stroke:#000000;stroke-width:0.8;"/>
      </defs>
      <g>
       <use style="stroke:#000000;stroke-width:0.8;" x="57.6" xlink:href="#m67c2aa912f" y="297.73846"/>
      </g>
     </g>
     <g id="text_11">
      <!-- 0.0 -->
      <g transform="translate(34.696875 301.537679)scale(0.1 -0.1)">
       <use xlink:href="#DejaVuSans-30"/>
       <use x="63.623047" xlink:href="#DejaVuSans-2e"/>
       <use x="95.410156" xlink:href="#DejaVuSans-30"/>
      </g>
     </g>
    </g>
    <g id="ytick_2">
     <g id="line2d_12">
      <g>
       <use style="stroke:#000000;stroke-width:0.8;" x="57.6" xlink:href="#m67c2aa912f" y="242.996363"/>
      </g>
     </g>
     <g id="text_12">
      <!-- 0.5 -->
      <g transform="translate(34.696875 246.795582)scale(0.1 -0.1)">
       <use xlink:href="#DejaVuSans-30"/>
       <use x="63.623047" xlink:href="#DejaVuSans-2e"/>
       <use x="95.410156" xlink:href="#DejaVuSans-35"/>
      </g>
     </g>
    </g>
    <g id="ytick_3">
     <g id="line2d_13">
      <g>
       <use style="stroke:#000000;stroke-width:0.8;" x="57.6" xlink:href="#m67c2aa912f" y="188.254266"/>
      </g>
     </g>
     <g id="text_13">
      <!-- 1.0 -->
      <g transform="translate(34.696875 192.053484)scale(0.1 -0.1)">
       <use xlink:href="#DejaVuSans-31"/>
       <use x="63.623047" xlink:href="#DejaVuSans-2e"/>
       <use x="95.410156" xlink:href="#DejaVuSans-30"/>
      </g>
     </g>
    </g>
    <g id="ytick_4">
     <g id="line2d_14">
      <g>
       <use style="stroke:#000000;stroke-width:0.8;" x="57.6" xlink:href="#m67c2aa912f" y="133.512168"/>
      </g>
     </g>
     <g id="text_14">
      <!-- 1.5 -->
      <g transform="translate(34.696875 137.311387)scale(0.1 -0.1)">
       <use xlink:href="#DejaVuSans-31"/>
       <use x="63.623047" xlink:href="#DejaVuSans-2e"/>
       <use x="95.410156" xlink:href="#DejaVuSans-35"/>
      </g>
     </g>
    </g>
    <g id="ytick_5">
     <g id="line2d_15">
      <g>
       <use style="stroke:#000000;stroke-width:0.8;" x="57.6" xlink:href="#m67c2aa912f" y="78.770071"/>
      </g>
     </g>
     <g id="text_15">
      <!-- 2.0 -->
      <g transform="translate(34.696875 82.56929)scale(0.1 -0.1)">
       <use xlink:href="#DejaVuSans-32"/>
       <use x="63.623047" xlink:href="#DejaVuSans-2e"/>
       <use x="95.410156" xlink:href="#DejaVuSans-30"/>
      </g>
     </g>
    </g>
    <g id="text_16">
     <!-- Specific heat -->
     <g transform="translate(28.617187 206.848312)rotate(-90)scale(0.1 -0.1)">
      <defs>
       <path d="M 3425 4513 
L 3425 3897 
Q 3066 4069 2747 4153 
Q 2428 4238 2131 4238 
Q 1616 4238 1336 4038 
Q 1056 3838 1056 3469 
Q 1056 3159 1242 3001 
Q 1428 2844 1947 2747 
L 2328 2669 
Q 3034 2534 3370 2195 
Q 3706 1856 3706 1288 
Q 3706 609 3251 259 
Q 2797 -91 1919 -91 
Q 1588 -91 1214 -16 
Q 841 59 441 206 
L 441 856 
Q 825 641 1194 531 
Q 1563 422 1919 422 
Q 2459 422 2753 634 
Q 3047 847 3047 1241 
Q 3047 1584 2836 1778 
Q 2625 1972 2144 2069 
L 1759 2144 
Q 1053 2284 737 2584 
Q 422 2884 422 3419 
Q 422 4038 858 4394 
Q 1294 4750 2059 4750 
Q 2388 4750 2728 4690 
Q 3069 4631 3425 4513 
z
" id="DejaVuSans-53" transform="scale(0.015625)"/>
       <path d="M 3122 3366 
L 3122 2828 
Q 2878 2963 2633 3030 
Q 2388 3097 2138 3097 
Q 1578 3097 1268 2742 
Q 959 2388 959 1747 
Q 959 1106 1268 751 
Q 1578 397 2138 397 
Q 2388 397 2633 464 
Q 2878 531 3122 666 
L 3122 134 
Q 2881 22 2623 -34 
Q 2366 -91 2075 -91 
Q 1284 -91 818 406 
Q 353 903 353 1747 
Q 353 2603 823 3093 
Q 1294 3584 2113 3584 
Q 2378 3584 2631 3529 
Q 2884 3475 3122 3366 
z
" id="DejaVuSans-63" transform="scale(0.015625)"/>
       <path d="M 603 3500 
L 1178 3500 
L 1178 0 
L 603 0 
L 603 3500 
z
M 603 4863 
L 1178 4863 
L 1178 4134 
L 603 4134 
L 603 4863 
z
" id="DejaVuSans-69" transform="scale(0.015625)"/>
       <path d="M 2375 4863 
L 2375 4384 
L 1825 4384 
Q 1516 4384 1395 4259 
Q 1275 4134 1275 3809 
L 1275 3500 
L 2222 3500 
L 2222 3053 
L 1275 3053 
L 1275 0 
L 697 0 
L 697 3053 
L 147 3053 
L 147 3500 
L 697 3500 
L 697 3744 
Q 697 4328 969 4595 
Q 1241 4863 1831 4863 
L 2375 4863 
z
" id="DejaVuSans-66" transform="scale(0.015625)"/>
       <path id="DejaVuSans-20" transform="scale(0.015625)"/>
       <path d="M 3513 2113 
L 3513 0 
L 2938 0 
L 2938 2094 
Q 2938 2591 2744 2837 
Q 2550 3084 2163 3084 
Q 1697 3084 1428 2787 
Q 1159 2491 1159 1978 
L 1159 0 
L 581 0 
L 581 4863 
L 1159 4863 
L 1159 2956 
Q 1366 3272 1645 3428 
Q 1925 3584 2291 3584 
Q 2894 3584 3203 3211 
Q 3513 2838 3513 2113 
z
" id="DejaVuSans-68" transform="scale(0.015625)"/>
      </defs>
      <use xlink:href="#DejaVuSans-53"/>
      <use x="63.476562" xlink:href="#DejaVuSans-70"/>
      <use x="126.953125" xlink:href="#DejaVuSans-65"/>
      <use x="188.476562" xlink:href="#DejaVuSans-63"/>
      <use x="243.457031" xlink:href="#DejaVuSans-69"/>
      <use x="271.240234" xlink:href="#DejaVuSans-66"/>
      <use x="306.445312" xlink:href="#DejaVuSans-69"/>
      <use x="334.228516" xlink:href="#DejaVuSans-63"/>
      <use x="389.208984" xlink:href="#DejaVuSans-20"/>
      <use x="420.996094" xlink:href="#DejaVuSans-68"/>
      <use x="484.375" xlink:href="#DejaVuSans-65"/>
      <use x="545.898438" xlink:href="#DejaVuSans-61"/>
      <use x="607.177734" xlink:href="#DejaVuSans-74"/>
     </g>
    </g>
   </g>
   <g id="LineCollection_1">
    <path clip-path="url(#pca96f23222)" d="M 73.832727 292.172102 
L 73.832727 259.894211 
" style="fill:none;stroke:#ff0000;stroke-width:2;"/>
    <path clip-path="url(#pca96f23222)" d="M 80.994225 290.25388 
L 80.994225 256.119661 
" style="fill:none;stroke:#ff0000;stroke-width:2;"/>
    <path clip-path="url(#pca96f23222)" d="M 88.155722 287.618061 
L 88.155722 252.070258 
" style="fill:none;stroke:#ff0000;stroke-width:2;"/>
    <path clip-path="url(#pca96f23222)" d="M 95.317219 285.099622 
L 95.317219 246.876685 
" style="fill:none;stroke:#ff0000;stroke-width:2;"/>
    <path clip-path="url(#pca96f23222)" d="M 102.478717 282.698528 
L 102.478717 242.126266 
" style="fill:none;stroke:#ff0000;stroke-width:2;"/>
    <path clip-path="url(#pca96f23222)" d="M 109.640214 279.41764 
L 109.640214 237.50457 
" style="fill:none;stroke:#ff0000;stroke-width:2;"/>
    <path clip-path="url(#pca96f23222)" d="M 116.801711 276.114726 
L 116.801711 230.841891 
" style="fill:none;stroke:#ff0000;stroke-width:2;"/>
    <path clip-path="url(#pca96f23222)" d="M 123.963209 272.385853 
L 123.963209 225.063746 
" style="fill:none;stroke:#ff0000;stroke-width:2;"/>
    <path clip-path="url(#pca96f23222)" d="M 131.124706 268.867167 
L 131.124706 219.267511 
" style="fill:none;stroke:#ff0000;stroke-width:2;"/>
    <path clip-path="url(#pca96f23222)" d="M 138.286203 263.205615 
L 138.286203 208.574542 
" style="fill:none;stroke:#ff0000;stroke-width:2;"/>
    <path clip-path="url(#pca96f23222)" d="M 145.447701 257.390031 
L 145.447701 200.128856 
" style="fill:none;stroke:#ff0000;stroke-width:2;"/>
    <path clip-path="url(#pca96f23222)" d="M 152.609198 252.357813 
L 152.609198 191.580704 
" style="fill:none;stroke:#ff0000;stroke-width:2;"/>
    <path clip-path="url(#pca96f23222)" d="M 159.770695 244.382963 
L 159.770695 178.069415 
" style="fill:none;stroke:#ff0000;stroke-width:2;"/>
    <path clip-path="url(#pca96f23222)" d="M 166.932193 237.494308 
L 166.932193 167.836397 
" style="fill:none;stroke:#ff0000;stroke-width:2;"/>
    <path clip-path="url(#pca96f23222)" d="M 174.09369 225.550407 
L 174.09369 145.825881 
" style="fill:none;stroke:#ff0000;stroke-width:2;"/>
    <path clip-path="url(#pca96f23222)" d="M 181.255187 213.787076 
L 181.255187 124.048974 
" style="fill:none;stroke:#ff0000;stroke-width:2;"/>
    <path clip-path="url(#pca96f23222)" d="M 188.416684 196.418003 
L 188.416684 92.784452 
" style="fill:none;stroke:#ff0000;stroke-width:2;"/>
    <path clip-path="url(#pca96f23222)" d="M 195.578182 182.55638 
L 195.578182 65.784532 
" style="fill:none;stroke:#ff0000;stroke-width:2;"/>
    <path clip-path="url(#pca96f23222)" d="M 202.739679 176.331612 
L 202.739679 53.568 
" style="fill:none;stroke:#ff0000;stroke-width:2;"/>
    <path clip-path="url(#pca96f23222)" d="M 209.901176 183.050723 
L 209.901176 54.417271 
" style="fill:none;stroke:#ff0000;stroke-width:2;"/>
    <path clip-path="url(#pca96f23222)" d="M 217.062674 201.899941 
L 217.062674 83.062101 
" style="fill:none;stroke:#ff0000;stroke-width:2;"/>
    <path clip-path="url(#pca96f23222)" d="M 224.224171 213.215325 
L 224.224171 94.11123 
" style="fill:none;stroke:#ff0000;stroke-width:2;"/>
    <path clip-path="url(#pca96f23222)" d="M 231.385668 232.80531 
L 231.385668 121.037497 
" style="fill:none;stroke:#ff0000;stroke-width:2;"/>
    <path clip-path="url(#pca96f23222)" d="M 238.547166 243.782902 
L 238.547166 137.20553 
" style="fill:none;stroke:#ff0000;stroke-width:2;"/>
    <path clip-path="url(#pca96f23222)" d="M 245.708663 257.177286 
L 245.708663 156.417392 
" style="fill:none;stroke:#ff0000;stroke-width:2;"/>
    <path clip-path="url(#pca96f23222)" d="M 252.87016 265.533419 
L 252.87016 166.58888 
" style="fill:none;stroke:#ff0000;stroke-width:2;"/>
    <path clip-path="url(#pca96f23222)" d="M 260.031658 271.996591 
L 260.031658 182.446621 
" style="fill:none;stroke:#ff0000;stroke-width:2;"/>
    <path clip-path="url(#pca96f23222)" d="M 267.193155 272.783685 
L 267.193155 186.069656 
" style="fill:none;stroke:#ff0000;stroke-width:2;"/>
    <path clip-path="url(#pca96f23222)" d="M 274.354652 276.42343 
L 274.354652 192.163365 
" style="fill:none;stroke:#ff0000;stroke-width:2;"/>
    <path clip-path="url(#pca96f23222)" d="M 281.51615 280.104658 
L 281.51615 201.78232 
" style="fill:none;stroke:#ff0000;stroke-width:2;"/>
    <path clip-path="url(#pca96f23222)" d="M 288.677647 283.925707 
L 288.677647 204.401395 
" style="fill:none;stroke:#ff0000;stroke-width:2;"/>
    <path clip-path="url(#pca96f23222)" d="M 295.839144 284.429132 
L 295.839144 206.538085 
" style="fill:none;stroke:#ff0000;stroke-width:2;"/>
    <path clip-path="url(#pca96f23222)" d="M 303.000642 285.96308 
L 303.000642 204.987358 
" style="fill:none;stroke:#ff0000;stroke-width:2;"/>
    <path clip-path="url(#pca96f23222)" d="M 310.162139 288.502704 
L 310.162139 213.715707 
" style="fill:none;stroke:#ff0000;stroke-width:2;"/>
    <path clip-path="url(#pca96f23222)" d="M 317.323636 289.364662 
L 317.323636 215.336361 
" style="fill:none;stroke:#ff0000;stroke-width:2;"/>
    <path clip-path="url(#pca96f23222)" d="M 333.556364 292.53009 
L 333.556364 229.214358 
" style="fill:none;stroke:#ff0000;stroke-width:2;"/>
    <path clip-path="url(#pca96f23222)" d="M 349.789091 291.417964 
L 349.789091 233.582365 
" style="fill:none;stroke:#ff0000;stroke-width:2;"/>
    <path clip-path="url(#pca96f23222)" d="M 366.021818 293.761999 
L 366.021818 240.018029 
" style="fill:none;stroke:#ff0000;stroke-width:2;"/>
    <path clip-path="url(#pca96f23222)" d="M 382.254545 295.488 
L 382.254545 241.622529 
" style="fill:none;stroke:#ff0000;stroke-width:2;"/>
    <path clip-path="url(#pca96f23222)" d="M 398.487273 291.337944 
L 398.487273 249.33602 
" style="fill:none;stroke:#ff0000;stroke-width:2;"/>
   </g>
   <g id="line2d_16">
    <defs>
     <path d="M 2 0 
L -2 -0 
" id="md2f3c001f8" style="stroke:#ff0000;stroke-width:2;"/>
    </defs>
    <g clip-path="url(#pca96f23222)">
     <use style="fill:#ff0000;stroke:#ff0000;stroke-width:2;" x="73.832727" xlink:href="#md2f3c001f8" y="292.172102"/>
     <use style="fill:#ff0000;stroke:#ff0000;stroke-width:2;" x="80.994225" xlink:href="#md2f3c001f8" y="290.25388"/>
     <use style="fill:#ff0000;stroke:#ff0000;stroke-width:2;" x="88.155722" xlink:href="#md2f3c001f8" y="287.618061"/>
     <use style="fill:#ff0000;stroke:#ff0000;stroke-width:2;" x="95.317219" xlink:href="#md2f3c001f8" y="285.099622"/>
     <use style="fill:#ff0000;stroke:#ff0000;stroke-width:2;" x="102.478717" xlink:href="#md2f3c001f8" y="282.698528"/>
     <use style="fill:#ff0000;stroke:#ff0000;stroke-width:2;" x="109.640214" xlink:href="#md2f3c001f8" y="279.41764"/>
     <use style="fill:#ff0000;stroke:#ff0000;stroke-width:2;" x="116.801711" xlink:href="#md2f3c001f8" y="276.114726"/>
     <use style="fill:#ff0000;stroke:#ff0000;stroke-width:2;" x="123.963209" xlink:href="#md2f3c001f8" y="272.385853"/>
     <use style="fill:#ff0000;stroke:#ff0000;stroke-width:2;" x="131.124706" xlink:href="#md2f3c001f8" y="268.867167"/>
     <use style="fill:#ff0000;stroke:#ff0000;stroke-width:2;" x="138.286203" xlink:href="#md2f3c001f8" y="263.205615"/>
     <use style="fill:#ff0000;stroke:#ff0000;stroke-width:2;" x="145.447701" xlink:href="#md2f3c001f8" y="257.390031"/>
     <use style="fill:#ff0000;stroke:#ff0000;stroke-width:2;" x="152.609198" xlink:href="#md2f3c001f8" y="252.357813"/>
     <use style="fill:#ff0000;stroke:#ff0000;stroke-width:2;" x="159.770695" xlink:href="#md2f3c001f8" y="244.382963"/>
     <use style="fill:#ff0000;stroke:#ff0000;stroke-width:2;" x="166.932193" xlink:href="#md2f3c001f8" y="237.494308"/>
     <use style="fill:#ff0000;stroke:#ff0000;stroke-width:2;" x="174.09369" xlink:href="#md2f3c001f8" y="225.550407"/>
     <use style="fill:#ff0000;stroke:#ff0000;stroke-width:2;" x="181.255187" xlink:href="#md2f3c001f8" y="213.787076"/>
     <use style="fill:#ff0000;stroke:#ff0000;stroke-width:2;" x="188.416684" xlink:href="#md2f3c001f8" y="196.418003"/>
     <use style="fill:#ff0000;stroke:#ff0000;stroke-width:2;" x="195.578182" xlink:href="#md2f3c001f8" y="182.55638"/>
     <use style="fill:#ff0000;stroke:#ff0000;stroke-width:2;" x="202.739679" xlink:href="#md2f3c001f8" y="176.331612"/>
     <use style="fill:#ff0000;stroke:#ff0000;stroke-width:2;" x="209.901176" xlink:href="#md2f3c001f8" y="183.050723"/>
     <use style="fill:#ff0000;stroke:#ff0000;stroke-width:2;" x="217.062674" xlink:href="#md2f3c001f8" y="201.899941"/>
     <use style="fill:#ff0000;stroke:#ff0000;stroke-width:2;" x="224.224171" xlink:href="#md2f3c001f8" y="213.215325"/>
     <use style="fill:#ff0000;stroke:#ff0000;stroke-width:2;" x="231.385668" xlink:href="#md2f3c001f8" y="232.80531"/>
     <use style="fill:#ff0000;stroke:#ff0000;stroke-width:2;" x="238.547166" xlink:href="#md2f3c001f8" y="243.782902"/>
     <use style="fill:#ff0000;stroke:#ff0000;stroke-width:2;" x="245.708663" xlink:href="#md2f3c001f8" y="257.177286"/>
     <use style="fill:#ff0000;stroke:#ff0000;stroke-width:2;" x="252.87016" xlink:href="#md2f3c001f8" y="265.533419"/>
     <use style="fill:#ff0000;stroke:#ff0000;stroke-width:2;" x="260.031658" xlink:href="#md2f3c001f8" y="271.996591"/>
     <use style="fill:#ff0000;stroke:#ff0000;stroke-width:2;" x="267.193155" xlink:href="#md2f3c001f8" y="272.783685"/>
     <use style="fill:#ff0000;stroke:#ff0000;stroke-width:2;" x="274.354652" xlink:href="#md2f3c001f8" y="276.42343"/>
     <use style="fill:#ff0000;stroke:#ff0000;stroke-width:2;" x="281.51615" xlink:href="#md2f3c001f8" y="280.104658"/>
     <use style="fill:#ff0000;stroke:#ff0000;stroke-width:2;" x="288.677647" xlink:href="#md2f3c001f8" y="283.925707"/>
     <use style="fill:#ff0000;stroke:#ff0000;stroke-width:2;" x="295.839144" xlink:href="#md2f3c001f8" y="284.429132"/>
     <use style="fill:#ff0000;stroke:#ff0000;stroke-width:2;" x="303.000642" xlink:href="#md2f3c001f8" y="285.96308"/>
     <use style="fill:#ff0000;stroke:#ff0000;stroke-width:2;" x="310.162139" xlink:href="#md2f3c001f8" y="288.502704"/>
     <use style="fill:#ff0000;stroke:#ff0000;stroke-width:2;" x="317.323636" xlink:href="#md2f3c001f8" y="289.364662"/>
     <use style="fill:#ff0000;stroke:#ff0000;stroke-width:2;" x="333.556364" xlink:href="#md2f3c001f8" y="292.53009"/>
     <use style="fill:#ff0000;stroke:#ff0000;stroke-width:2;" x="349.789091" xlink:href="#md2f3c001f8" y="291.417964"/>
     <use style="fill:#ff0000;stroke:#ff0000;stroke-width:2;" x="366.021818" xlink:href="#md2f3c001f8" y="293.761999"/>
     <use style="fill:#ff0000;stroke:#ff0000;stroke-width:2;" x="382.254545" xlink:href="#md2f3c001f8" y="295.488"/>
     <use style="fill:#ff0000;stroke:#ff0000;stroke-width:2;" x="398.487273" xlink:href="#md2f3c001f8" y="291.337944"/>
    </g>
   </g>
   <g id="line2d_17">
    <g clip-path="url(#pca96f23222)">
     <use style="fill:#ff0000;stroke:#ff0000;stroke-width:2;" x="73.832727" xlink:href="#md2f3c001f8" y="259.894211"/>
     <use style="fill:#ff0000;stroke:#ff0000;stroke-width:2;" x="80.994225" xlink:href="#md2f3c001f8" y="256.119661"/>
     <use style="fill:#ff0000;stroke:#ff0000;stroke-width:2;" x="88.155722" xlink:href="#md2f3c001f8" y="252.070258"/>
     <use style="fill:#ff0000;stroke:#ff0000;stroke-width:2;" x="95.317219" xlink:href="#md2f3c001f8" y="246.876685"/>
     <use style="fill:#ff0000;stroke:#ff0000;stroke-width:2;" x="102.478717" xlink:href="#md2f3c001f8" y="242.126266"/>
     <use style="fill:#ff0000;stroke:#ff0000;stroke-width:2;" x="109.640214" xlink:href="#md2f3c001f8" y="237.50457"/>
     <use style="fill:#ff0000;stroke:#ff0000;stroke-width:2;" x="116.801711" xlink:href="#md2f3c001f8" y="230.841891"/>
     <use style="fill:#ff0000;stroke:#ff0000;stroke-width:2;" x="123.963209" xlink:href="#md2f3c001f8" y="225.063746"/>
     <use style="fill:#ff0000;stroke:#ff0000;stroke-width:2;" x="131.124706" xlink:href="#md2f3c001f8" y="219.267511"/>
     <use style="fill:#ff0000;stroke:#ff0000;stroke-width:2;" x="138.286203" xlink:href="#md2f3c001f8" y="208.574542"/>
     <use style="fill:#ff0000;stroke:#ff0000;stroke-width:2;" x="145.447701" xlink:href="#md2f3c001f8" y="200.128856"/>
     <use style="fill:#ff0000;stroke:#ff0000;stroke-width:2;" x="152.609198" xlink:href="#md2f3c001f8" y="191.580704"/>
     <use style="fill:#ff0000;stroke:#ff0000;stroke-width:2;" x="159.770695" xlink:href="#md2f3c001f8" y="178.069415"/>
     <use style="fill:#ff0000;stroke:#ff0000;stroke-width:2;" x="166.932193" xlink:href="#md2f3c001f8" y="167.836397"/>
     <use style="fill:#ff0000;stroke:#ff0000;stroke-width:2;" x="174.09369" xlink:href="#md2f3c001f8" y="145.825881"/>
     <use style="fill:#ff0000;stroke:#ff0000;stroke-width:2;" x="181.255187" xlink:href="#md2f3c001f8" y="124.048974"/>
     <use style="fill:#ff0000;stroke:#ff0000;stroke-width:2;" x="188.416684" xlink:href="#md2f3c001f8" y="92.784452"/>
     <use style="fill:#ff0000;stroke:#ff0000;stroke-width:2;" x="195.578182" xlink:href="#md2f3c001f8" y="65.784532"/>
     <use style="fill:#ff0000;stroke:#ff0000;stroke-width:2;" x="202.739679" xlink:href="#md2f3c001f8" y="53.568"/>
     <use style="fill:#ff0000;stroke:#ff0000;stroke-width:2;" x="209.901176" xlink:href="#md2f3c001f8" y="54.417271"/>
     <use style="fill:#ff0000;stroke:#ff0000;stroke-width:2;" x="217.062674" xlink:href="#md2f3c001f8" y="83.062101"/>
     <use style="fill:#ff0000;stroke:#ff0000;stroke-width:2;" x="224.224171" xlink:href="#md2f3c001f8" y="94.11123"/>
     <use style="fill:#ff0000;stroke:#ff0000;stroke-width:2;" x="231.385668" xlink:href="#md2f3c001f8" y="121.037497"/>
     <use style="fill:#ff0000;stroke:#ff0000;stroke-width:2;" x="238.547166" xlink:href="#md2f3c001f8" y="137.20553"/>
     <use style="fill:#ff0000;stroke:#ff0000;stroke-width:2;" x="245.708663" xlink:href="#md2f3c001f8" y="156.417392"/>
     <use style="fill:#ff0000;stroke:#ff0000;stroke-width:2;" x="252.87016" xlink:href="#md2f3c001f8" y="166.58888"/>
     <use style="fill:#ff0000;stroke:#ff0000;stroke-width:2;" x="260.031658" xlink:href="#md2f3c001f8" y="182.446621"/>
     <use style="fill:#ff0000;stroke:#ff0000;stroke-width:2;" x="267.193155" xlink:href="#md2f3c001f8" y="186.069656"/>
     <use style="fill:#ff0000;stroke:#ff0000;stroke-width:2;" x="274.354652" xlink:href="#md2f3c001f8" y="192.163365"/>
     <use style="fill:#ff0000;stroke:#ff0000;stroke-width:2;" x="281.51615" xlink:href="#md2f3c001f8" y="201.78232"/>
     <use style="fill:#ff0000;stroke:#ff0000;stroke-width:2;" x="288.677647" xlink:href="#md2f3c001f8" y="204.401395"/>
     <use style="fill:#ff0000;stroke:#ff0000;stroke-width:2;" x="295.839144" xlink:href="#md2f3c001f8" y="206.538085"/>
     <use style="fill:#ff0000;stroke:#ff0000;stroke-width:2;" x="303.000642" xlink:href="#md2f3c001f8" y="204.987358"/>
     <use style="fill:#ff0000;stroke:#ff0000;stroke-width:2;" x="310.162139" xlink:href="#md2f3c001f8" y="213.715707"/>
     <use style="fill:#ff0000;stroke:#ff0000;stroke-width:2;" x="317.323636" xlink:href="#md2f3c001f8" y="215.336361"/>
     <use style="fill:#ff0000;stroke:#ff0000;stroke-width:2;" x="333.556364" xlink:href="#md2f3c001f8" y="229.214358"/>
     <use style="fill:#ff0000;stroke:#ff0000;stroke-width:2;" x="349.789091" xlink:href="#md2f3c001f8" y="233.582365"/>
     <use style="fill:#ff0000;stroke:#ff0000;stroke-width:2;" x="366.021818" xlink:href="#md2f3c001f8" y="240.018029"/>
     <use style="fill:#ff0000;stroke:#ff0000;stroke-width:2;" x="382.254545" xlink:href="#md2f3c001f8" y="241.622529"/>
     <use style="fill:#ff0000;stroke:#ff0000;stroke-width:2;" x="398.487273" xlink:href="#md2f3c001f8" y="249.33602"/>
    </g>
   </g>
   <g id="patch_3">
    <path d="M 57.6 307.584 
L 57.6 41.472 
" style="fill:none;stroke:#000000;stroke-linecap:square;stroke-linejoin:miter;stroke-width:0.8;"/>
   </g>
   <g id="patch_4">
    <path d="M 414.72 307.584 
L 414.72 41.472 
" style="fill:none;stroke:#000000;stroke-linecap:square;stroke-linejoin:miter;stroke-width:0.8;"/>
   </g>
   <g id="patch_5">
    <path d="M 57.6 307.584 
L 414.72 307.584 
" style="fill:none;stroke:#000000;stroke-linecap:square;stroke-linejoin:miter;stroke-width:0.8;"/>
   </g>
   <g id="patch_6">
    <path d="M 57.6 41.472 
L 414.72 41.472 
" style="fill:none;stroke:#000000;stroke-linecap:square;stroke-linejoin:miter;stroke-width:0.8;"/>
   </g>
  </g>
 </g>
 <defs>
  <clipPath id="pca96f23222">
   <rect height="266.112" width="357.12" x="57.6" y="41.472"/>
  </clipPath>
 </defs>
</svg>
